<?xml version="1.0" encoding="utf-8" ?>
<svg xmlns="http://www.w3.org/2000/svg" xmlns:ev="http://www.w3.org/2001/xml-events" xmlns:xlink="http://www.w3.org/1999/xlink" baseProfile="tiny" height="600" version="1.2" width="600">
  <defs/>
  <path d="M 289.05018737348894,60.41130067921783  C 289.05018737348894,62.508676187571155, 289.05018737348894,64.60605169592448, 289.05018737348894,66.7034272042778 C 289.05018737348894,68.80080271263112, 289.05018737348894,70.89817822098446, 289.05018737348894,72.99555372933779 C 289.05018737348894,75.09292923769111, 289.05018737348894,77.19030474604443, 289.05018737348894,79.28768025439776 C 289.050187373489,81.38505576275121, 289.05018737348905,83.48243127110464, 289.0501873734891,85.5798067794581 C 289.0501873736461,87.67718228819017, 289.05018737380317,89.77455779692224, 289.05018737396017,91.87193330565431 C 289.05018780176323,93.96930984605122, 289.05018822956623,96.06668638644811, 289.0501886573693,98.16406292684502 C 289.0511843790183,100.26384054079413, 289.05218010066733,102.36361815474326, 289.05317582231635,104.46339576869238 C 289.20340017039393,106.9204316253706, 289.3536245184715,109.3774674820488, 289.5038488665491,111.83450333872702 C 289.75143511925836,113.53152089442851, 289.99902137196756,115.22853845012999, 290.2466076246768,116.92555600583148 C 291.75726256057766,118.8070329846009, 293.26791749647856,120.68850996337032, 294.7785724323794,122.56998694213974 C 293.0384020975135,124.34239761939767, 291.29823176264756,126.11480829665562, 289.55806142778164,127.88721897391356 C 289.5314348037351,129.5448375734277, 289.5048081796886,131.20245617294188, 289.4781815556421,132.86007477245602 C 289.41533252215726,135.47222943377298, 289.3524834886724,138.08438409508992, 289.2896344551876,140.69653875640688 C 289.22619959556533,142.65117948769424, 289.16276473594314,144.60582021898156, 289.0993298763209,146.56046095026892 C 289.0829527838316,148.61830204878, 289.06657569134234,150.67614314729113, 289.05019859885306,152.73398424580222 C 289.05019454372064,154.83135103743462, 289.0501904885882,156.92871782906698, 289.0501864334558,159.02608462069938 C 289.049654410809,161.1239918163024, 289.04912238816223,163.22189901190544, 289.04859036551545,165.31980620750846 C 289.31061367397666,167.1551587399009, 289.5726369824378,168.9905112722934, 289.834660290899,170.82586380468584 C 290.4552116978166,172.20861942914325, 291.0757631047342,173.59137505360067, 291.6963145116518,174.9741306780581 C 291.19747950210717,175.30286373844373, 290.6986444925626,175.63159679882935, 290.199809483018,175.960329859215 C 288.49238787609687,176.11243598745284, 286.7849662691758,176.26454211569066, 285.0775446622547,176.4166482439285 C 283.1355875594732,177.3331216310778, 281.19363045669166,178.2495950182271, 279.2516733539102,179.1660684053764 C 277.4602003691208,180.3763858091913, 275.6687273843314,181.5867032130062, 273.87725439954204,182.7970206168211 C 272.5108617912071,183.6677027071326, 271.1444691828721,184.53838479744408, 269.7780765745372,185.40906688775559 C 268.69739234522007,185.98106605550956, 267.61670811590295,186.5530652232635, 266.53602388658584,187.12506439101747 C 264.313352039236,188.42028234002564, 262.0906801918861,189.7155002890338, 259.8680083445363,191.01071823804196 C 257.80828070638864,191.96004704236216, 255.74855306824097,192.90937584668237, 253.68882543009332,193.85870465100257 C 251.994418055856,195.28081299820508, 250.30001068161866,196.7029213454076, 248.60560330738133,198.1250296926101 C 246.53085033694114,199.17765668861065, 244.45609736650096,200.23028368461124, 242.38134439606077,201.2829106806118 C 240.54378499493,202.07589568293565, 238.70622559379925,202.8688806852595, 236.86866619266848,203.66186568758337 C 234.72931170103297,205.04997116857845, 232.58995720939748,206.43807664957353, 230.45060271776197,207.8261821305686 C 229.18900565272074,209.0214117210273, 227.92740858767954,210.21664131148597, 226.6658115226383,211.41187090194467 C 224.6488231090071,213.07078790587417, 222.6318346953759,214.72970490980367, 220.6148462817447,216.38862191373318 C 218.91652687450818,217.07534155730727, 217.21820746727164,217.7620612008814, 215.51988806003513,218.44878084445548 C 214.29711354925968,219.84082529385583, 213.07433903848425,221.23286974325617, 211.8515645277088,222.62491419265652 C 210.85868416254584,223.49485438063192, 209.8658037973829,224.36479456860732, 208.87292343221995,225.23473475658272 C 206.73780116414284,226.05402509622417, 204.60267889606575,226.8733154358656, 202.46755662798864,227.69260577550705 C 200.6867584374392,228.79843551253137, 198.90596024688975,229.90426524955566, 197.12516205634032,231.01009498658 C 195.86129345433525,231.83071188353685, 194.5974248523302,232.65132878049374, 193.33355625032513,233.4719456774506 C 192.0757799777475,234.41707216040328, 190.81800370516987,235.36219864335598, 189.56022743259223,236.30732512630865 C 188.10506268919667,236.96158489687696, 186.64989794580114,237.61584466744526, 185.1947332024056,238.27010443801356 C 183.38365617200225,239.12444950863514, 181.57257914159888,239.97879457925674, 179.76150211119554,240.83313964987832 C 177.75233808434533,242.0144485857717, 175.7431740574951,243.1957575216651, 173.7340100306449,244.37706645755847 C 171.85288142036578,245.88326781906576, 169.97175281008663,247.38946918057303, 168.0906241998075,248.89567054208032 C 166.39871824394845,249.66545341370457, 164.70681228808937,250.43523628532878, 163.0149063322303,251.20501915695303 C 161.3476509062437,252.22396760890499, 159.6803954802571,253.24291606085694, 158.01314005427048,254.2618645128089 C 156.63683497193634,255.6451925051318, 155.26052988960222,257.0285204974547, 153.88422480726808,258.4118484897776 C 152.20583143973388,259.2627079175111, 150.52743807219966,260.1135673452446, 148.84904470466546,260.9644267729781 C 146.97799754583565,261.8699639796694, 145.10695038700587,262.7755011863608, 143.23590322817606,263.6810383930522 C 141.83773621496775,264.27706795825463, 140.43956920175947,264.87309752345703, 139.04140218855116,265.4691270886595 C 137.04458604557135,266.5443594568352, 135.04776990259157,267.6195918250109, 133.05095375961176,268.6948241931866 C 130.68670406209895,269.1679105784087, 128.32245436458618,269.6409969636308, 125.95820466707339,270.1140833488529 C 124.26060778473266,270.80568249841554, 122.56301090239192,271.4972816479781, 120.86541402005119,272.1888807975408 C 119.44566157061716,273.28560794773176, 118.02590912118313,274.3823350979227, 116.6061566717491,275.4790622481137 C 118.31056635516283,279.67952212328674, 120.01497603857658,283.87998199845975, 121.7193857219903,288.0804418736328 C 123.07931973623937,287.02930655198475, 124.43925375048843,285.9781712303366, 125.7991877647375,284.92703590868854 C 127.58916140671457,284.30391600996455, 129.37913504869164,283.6807961112405, 131.1691086906687,283.0576762125165 C 133.0625878953497,282.9097496687986, 134.95606710003068,282.76182312508064, 136.84954630471168,282.6138965813627 C 139.05208394822384,281.6202848275889, 141.25462159173597,280.6266730738151, 143.45715923524813,279.63306132004124 C 145.5581020806129,278.447206359468, 147.6590449259777,277.2613513988947, 149.75998777134248,276.07549643832147 C 151.68525645542294,274.8331747793563, 153.61052513950344,273.5908531203911, 155.5357938235839,272.3485314614259 C 157.14978744311523,271.68076621420255, 158.76378106264653,271.0130009669792, 160.37777468217786,270.3452357197558 C 161.75480125639817,268.9574977511314, 163.1318278306185,267.5697597825071, 164.50885440483881,266.1820218138827 C 166.35114988281774,265.0989115985747, 168.1934453607967,264.01580138326676, 170.0357408387756,262.93269116795875 C 171.84793142561162,262.2663762827569, 173.66012201244763,261.600061397555, 175.47231259928364,260.93374651235314 C 177.10497307340634,259.6776839918103, 178.73763354752901,258.4216214712675, 180.37029402165172,257.16555895072463 C 182.5536445842211,255.6049944275263, 184.7369951467905,254.04442990432793, 186.92034570935988,252.4838653811296 C 188.32278619594567,251.73917517940114, 189.72522668253143,250.99448497767267, 191.12766716911722,250.24979477594422 C 192.77066622400648,249.14459342449183, 194.41366527889573,248.03939207303947, 196.056664333785,246.93419072158707 C 197.15922989379942,246.02783295504418, 198.26179545381387,245.12147518850125, 199.3643610138283,244.21511742195835 C 200.74844873274702,243.48919568490078, 202.13253645166571,242.76327394784323, 203.51662417058444,242.03735221078566 C 205.21283551015463,241.13399493261738, 206.90904684972486,240.23063765444914, 208.60525818929506,239.32728037628087 C 210.6649540260799,238.6921670386182, 212.72464986286474,238.05705370095555, 214.78434569964958,237.4219403632929 C 215.9344220617922,236.18283309454486, 217.0844984239348,234.94372582579683, 218.23457478607742,233.7046185570488 C 219.75583751512883,232.34667762859323, 221.27710024418022,230.98873670013768, 222.79836297323163,229.6307957716821 C 224.68021945180303,228.84517202157593, 226.56207593037445,228.05954827146977, 228.44393240894584,227.2739245213636 C 230.6889516767178,225.67116121324736, 232.93397094448977,224.0683979051311, 235.17899021226174,222.46563459701485 C 235.915590178146,221.57308914198282, 236.65219014403027,220.68054368695078, 237.38879010991454,219.78799823191875 C 239.5114167762765,218.45115539327142, 241.63404344263844,217.11431255462412, 243.7566701090004,215.7774697159768 C 245.43755273851878,215.3920934566785, 247.11843536803718,215.0067171973802, 248.79931799755556,214.62134093808191 C 250.91058433260068,213.40569512783216, 253.02185066764582,212.19004931758244, 255.13311700269094,210.97440350733268 C 256.94709988934056,209.6565117458317, 258.7610827759902,208.33861998433068, 260.5750656626398,207.0207282228297 C 262.7100748477473,205.88068155964154, 264.84508403285486,204.7406348964534, 266.98009321796235,203.60058823326526 C 268.9546311005174,202.11609121355892, 270.9291689830725,200.63159419385255, 272.90370686562756,199.1470971741462 C 274.3409596284882,198.1088933391861, 275.77821239134875,197.07068950422598, 277.21546515420937,196.03248566926587 C 278.27876212226795,195.1427044751566, 279.34205909032653,194.25292328104732, 280.4053560583851,193.36314208693804 C 281.7409966199893,192.79120982834192, 283.07663718159347,192.2192775697458, 284.41227774319765,191.64734531114968 C 286.3673131279947,190.8667945785839, 288.32234851279173,190.08624384601808, 290.2773838975888,189.3056931134523 C 292.767885132569,188.27528731635795, 295.25838636754924,187.2448815192636, 297.74888760252946,186.21447572216925 C 299.4733734108789,184.43472248435236, 301.19785921922835,182.6549692465355, 302.92234502757776,180.8752160087186 C 303.52811192561535,178.04841388564773, 304.13387882365294,175.22161176257686, 304.7396457216905,172.39480963950598 C 305.0016690287246,170.0354111537625, 305.26369233575866,167.67601266801904, 305.52571564279276,165.31661418227557 C 305.5251836215722,163.21977036260037, 305.5246516003516,161.1229265429252, 305.524119579131,159.02608272325 C 305.52411552387156,156.92869849817657, 305.52411146861203,154.83131427310315, 305.52410741335257,152.73393004802972 C 305.5077298758402,150.5970201298471, 305.4913523383279,148.46011021166447, 305.4749748008155,146.32320029348185 C 305.4101726912183,144.08309004776575, 305.345370581621,141.84297980204968, 305.2805684720238,139.6028695563336 C 304.61912582398026,138.0203813873561, 303.95768317593667,136.43789321837863, 303.29624052789313,134.85540504940116 C 303.00525455496904,132.89304191252708, 302.71426858204495,130.93067877565304, 302.42328260912086,128.96831563877896 C 304.22438413654464,127.3436158585415, 306.02548566396837,125.71891607830405, 307.82658719139215,124.09421629806658 C 306.6602909235657,121.78125179993896, 305.4939946557392,119.46828730181133, 304.32769838791273,117.1553228036837 C 304.5752691902001,114.65758934270842, 304.82283999248745,112.15985588173312, 305.07041079477483,109.66212242075784 C 305.22065058415353,107.92440726069954, 305.37089037353223,106.18669210064125, 305.52113016291094,104.44897694058295 C 305.5221258936768,102.3540035378254, 305.5231216244426,100.25903013506786, 305.52411735520843,98.16405673231031 C 305.5241177830154,96.06668225600056, 305.5241182108224,93.96930777969082, 305.5241186386294,91.87193330338107 C 305.5241186387864,89.7745577954065, 305.5241186389434,87.67718228743193, 305.5241186391004,85.57980677945736 C 305.52411863910044,83.48243127110416, 305.52411863910044,81.38505576275095, 305.5241186391005,79.28768025439776 C 305.5241186391005,77.19030474604443, 305.5241186391005,75.09292923769111, 305.5241186391005,72.99555372933779 C 305.5241186391005,70.89817822098446, 305.5241186391005,68.80080271263112, 305.5241186391005,66.7034272042778 C 305.5241186391005,64.60605169592448, 305.5241186391005,62.508676187571155, 305.5241186391005,60.41130067921783 C 297.2871530062947,60.41130067921783, 289.05018737348894,60.41130067921783, 289.05018737348894,60.41130067921783" fill="black" stroke="none" stroke-width="1"/>
  <path d="M 289.05018737348894,181.90654376310312  C 289.0968354665271,184.1734569774359, 289.14348355956537,186.44037019176872, 289.19013165260355,188.7072834061015 C 289.41330533843745,190.7516125435164, 289.6364790242713,192.7959416809313, 289.8596527101052,194.84027081834617 C 290.0494012301842,196.9010208219377, 290.2391497502632,198.96177082552924, 290.4288982703422,201.02252082912077 C 290.0441218444295,203.08356438591565, 289.6593454185169,205.14460794271056, 289.27456899260426,207.20565149950545 C 288.96190493027257,209.29291109454866, 288.6492408679409,211.38017068959186, 288.3365768056092,213.46743028463507 C 288.3190520581849,215.66089186912382, 288.3015273107607,217.85435345361256, 288.28400256333646,220.0478150381013 C 287.9275825125568,222.23119147398265, 287.5711624617771,224.41456790986396, 287.2147424109974,226.5979443457453 C 286.87517875956087,228.748137135724, 286.5356151081243,230.8983299257027, 286.19605145668777,233.0485227156814 C 286.11394162626624,235.40172377706776, 286.03183179584465,237.75492483845414, 285.9497219654231,240.1081258998405 C 285.95358905846393,242.25336672957923, 285.9574561515048,244.39860755931798, 285.9613232445456,246.5438483890567 C 285.9613239168044,248.69842342468922, 285.9613245890632,250.85299846032177, 285.96132526132203,253.0075734959543 C 285.961325261277,255.16215015464414, 285.961325261232,257.31672681333396, 285.96132526118697,259.4713034720238 C 285.9613252611869,261.6258801306051, 285.96132526118686,263.78045678918636, 285.9613252611868,265.93503344776764 C 285.9613252611868,268.0896101063488, 285.9613252611868,270.24418676492996, 285.9613252611868,272.3987634235111 C 285.9613252611868,274.55334008209223, 285.9613252611868,276.7079167406734, 285.9613252611868,278.8624933992545 C 285.9613252611868,281.01707005783567, 285.9613252611868,283.17164671641683, 285.9613252611868,285.326223374998 C 285.9613252611868,287.4808000335791, 285.9613252611868,289.63537669216026, 285.9613252611868,291.78995335074137 C 285.9613252611868,293.94453000932253, 285.9613252611868,296.09910666790364, 285.9613252611868,298.2536833264848 C 291.45263568305734,298.2536833264848, 296.9439461049279,298.2536833264848, 302.4352565267984,298.2536833264848 C 302.4352565267984,296.09910666790364, 302.4352565267984,293.94453000932253, 302.4352565267984,291.78995335074137 C 302.4352565267984,289.6353766921602, 302.4352565267984,287.4808000335791, 302.4352565267984,285.32622337499794 C 302.4352565267984,283.1716467164168, 302.4352565267984,281.01707005783567, 302.4352565267984,278.8624933992545 C 302.4352565267984,276.7079167406734, 302.4352565267984,274.55334008209223, 302.4352565267984,272.3987634235111 C 302.4352565267984,270.24418676492996, 302.4352565267984,268.0896101063488, 302.4352565267984,265.93503344776764 C 302.43525652679836,263.78045678918664, 302.43525652679824,261.6258801306056, 302.4352565267982,259.4713034720246 C 302.43525652675316,257.3167268135522, 302.43525652670814,255.16215015507973, 302.4352565266631,253.0075734966073 C 302.43525719889897,250.85299521507756, 302.4352578711348,248.6984169335478, 302.43525854337065,246.54383865201805 C 302.43912550417485,244.3799261645945, 302.44299246497906,242.21601367717096, 302.44685942578326,240.05210118974742 C 302.36442341328444,238.0961489339715, 302.28198740078557,236.1401966781956, 302.19955138828675,234.18424442241968 C 302.54274675538494,232.02528389523607, 302.8859421224831,229.8663233680525, 303.22913748958126,227.70736284086888 C 303.5616990237675,225.58158595958793, 303.8942605579537,223.455809078307, 304.22682209213997,221.33003219702604 C 304.2121339507516,219.21434046435252, 304.19744580936316,217.09864873167896, 304.1827576679748,214.98295699900544 C 304.5518211786357,212.76106327688638, 304.9208846892966,210.53916955476728, 305.2899481999575,208.31727583264822 C 305.59862733439473,206.0691660722808, 305.9073064688319,203.82105631191342, 306.21598560326913,201.572946551546 C 306.1037772953248,199.32454323797526, 305.99156898738045,197.07613992440452, 305.8793606794361,194.82773661083377 C 305.7143554040817,192.56291243108637, 305.5493501287272,190.29808825133895, 305.3843448533728,188.03326407159156 C 305.430936115282,185.99102396876208, 305.4775273771913,183.9487838659326, 305.5241186391005,181.90654376310312 C 297.2871530062947,181.90654376310312, 289.05018737348894,181.90654376310312, 289.05018737348894,181.90654376310312" fill="black" stroke="none" stroke-width="1"/>
  <path d="M 299.3463944144962,203.5285785492183  C 301.21054158148394,203.4251525212723, 303.0746887484716,203.32172649332628, 304.9388359154593,203.21830046538028 C 306.89444834980935,203.15942643623086, 308.8500607841593,203.10055240708144, 310.80567321850936,203.04167837793202 C 312.7362831215668,204.01436784028326, 314.66689302462436,204.98705730263447, 316.59750292768183,205.9597467649857 C 318.35050572769507,206.45365941322763, 320.10350852770824,206.94757206146957, 321.8565113277215,207.4414847097115 C 323.9235735596489,208.4016820874381, 325.99063579157627,209.36187946516475, 328.0576980235037,210.32207684289136 C 330.344613838378,211.49477627311384, 332.6315296532523,212.66747570333632, 334.9184454681266,213.8401751335588 C 337.1769592424465,214.84363258429465, 339.4354730167664,215.84709003503053, 341.69398679108633,216.85054748576638 C 343.35518585681103,217.61927604592185, 345.0163849225358,218.3880046060773, 346.6775839882605,219.15673316623275 C 348.57455633028604,219.59896740739143, 350.47152867231165,220.04120164855013, 352.3685010143372,220.4834358897088 C 354.5401038075658,221.14664813894584, 356.71170660079434,221.80986038818287, 358.88330939402294,222.4730726374199 C 360.5138382547099,223.79358150350424, 362.14436711539696,225.11409036958858, 363.77489597608394,226.43459923567292 C 365.579706071177,227.7250981008855, 367.38451616627,229.0155969660981, 369.189326261363,230.30609583131067 C 371.2950878502707,230.91974900747215, 373.40084943917833,231.53340218363365, 375.506611028086,232.14705535979513 C 376.91946029986536,233.29813543563625, 378.3323095716447,234.44921551147735, 379.74515884342406,235.60029558731847 C 381.66729901871724,236.36832390933694, 383.5894391940104,237.13635223135543, 385.5115793693036,237.9043805533739 C 386.80469071743136,239.11209203687633, 388.09780206555916,240.31980352037874, 389.3909134136869,241.52751500388118 C 391.5216435409186,242.07277148336107, 393.6523736681503,242.61802796284093, 395.783103795382,243.16328444232082 C 397.10185969565373,244.57963528016077, 398.4206155959255,245.99598611800073, 399.73937149619724,247.4123369558407 C 401.6252728103098,248.25860470922035, 403.51117412442244,249.10487246259999, 405.397075438535,249.95114021597965 C 407.3639644469791,251.03488156662098, 409.3308534554232,252.11862291726234, 411.2977424638673,253.20236426790368 C 413.4451978878984,253.88700320665686, 415.59265331192955,254.57164214541007, 417.7401087359607,255.25628108416325 C 419.582295402988,256.2959473445541, 421.42448207001536,257.33561360494497, 423.26666873704266,258.3752798653358 C 425.10048476710676,259.1870380667153, 426.93430079717086,259.9987962680948, 428.76811682723496,260.81055446947425 C 430.8408919674111,261.1513306147306, 432.9136671075873,261.49210675998694, 434.9864422477634,261.8328829052433 C 437.04360188090214,262.5892556179094, 439.1007615140409,263.3456283305754, 441.15792114717965,264.10200104324144 C 442.8777426151977,265.0569432331925, 444.59756408321573,266.0118854231435, 446.31738555123377,266.96682761309455 C 448.37902609061155,268.06681020581453, 450.4406666299893,269.1667927985346, 452.5023071693671,270.26677539125455 C 454.2361857315584,270.8566346192569, 455.9700642937497,271.4464938472593, 457.703942855941,272.0363530752617 C 460.01052591033584,273.15383339519263, 462.3171089647306,274.27131371512354, 464.62369201912543,275.3887940350545 C 466.90702801254645,276.24716553436906, 469.19036400596747,277.1055370336836, 471.4736999993885,277.9639085329982 C 473.5901219884222,278.31029256252447, 475.7065439774559,278.6566765920507, 477.8229659664896,279.003060621577 C 479.79230295703263,279.58434233953665, 481.7616399475756,280.16562405749636, 483.7309769381186,280.746905775456 C 485.69472591132495,281.6527160008117, 487.65847488453124,282.5585262261674, 489.6222238577376,283.4643364515231 C 491.2399517332558,284.1756210106519, 492.857679608774,284.8869055697807, 494.4754074842922,285.59819012890955 C 496.2644073943018,286.52055395323276, 498.0534073043115,287.44291777755603, 499.84240721432116,288.36528160187925 C 501.95735179068987,289.3396722613352, 504.07229636705864,290.3140629207912, 506.18724094342735,291.2884535802471 C 508.03723326571406,292.0315841381451, 509.8872255880007,292.774714696043, 511.7372179102874,293.517845253941 C 513.5466307532197,294.1768703149726, 515.3560435961521,294.83589537600415, 517.1654564390843,295.4949204370357 C 519.4538707510459,296.57863219099767, 521.7422850630076,297.6623439449597, 524.0306993749691,298.7460556989216 C 525.4861986146095,299.44016487637924, 526.9416978542498,300.1342740538369, 528.3971970938902,300.82838323129454 C 530.0045327434245,301.047652765594, 531.6118683929587,301.26692229989345, 533.2192040424931,301.48619183419294 C 535.3324738430615,302.2822075139374, 537.4457436436301,303.07822319368194, 539.5590134441985,303.8742388734264 C 541.5225144113703,305.0861553054072, 543.4860153785421,306.29807173738794, 545.4495163457138,307.50998816936874 C 547.408149782059,308.0741081664724, 549.3667832184043,308.6382281635761, 551.3254166547495,309.2023481606798 C 552.8836111031663,304.6488934821517, 554.4418055515831,300.09543880362367, 556.0,295.5419841250956 C 553.7293416522492,294.7437536675168, 551.4586833044984,293.94552320993796, 549.1880249567477,293.14729275235914 C 547.6170654713754,292.21260471635566, 546.0461059860031,291.27791668035223, 544.4751465006309,290.34322864434876 C 542.3734949860454,289.77360067908506, 540.2718434714601,289.2039727138214, 538.1701919568746,288.6343447485577 C 536.2384752760626,288.21669406228824, 534.3067585952504,287.79904337601886, 532.3750419144383,287.3813926897494 C 530.9470036607462,286.71547217773985, 529.5189654070541,286.04955166573035, 528.090927153362,285.3836311537208 C 526.1601745500349,284.4312943812954, 524.2294219467076,283.47895760887, 522.2986693433804,282.52662083644464 C 520.6072678290249,281.7631931242856, 518.9158663146692,280.9997654121266, 517.2244648003136,280.2363376999675 C 515.4742185741785,279.70280196537, 513.7239723480435,279.16926623077245, 511.9737261219084,278.6357304961749 C 509.87498757732266,277.5692595482116, 507.77624903273687,276.5027886002483, 505.67751048815114,275.436317652285 C 503.9354264900881,274.46277156525497, 502.1933424920251,273.48922547822485, 500.4512584939621,272.5156793911948 C 498.51215343784344,271.66826528820957, 496.57304838172485,270.8208511852243, 494.6339433256062,269.97343708223906 C 492.37986453744367,268.7987657850337, 490.1257857492812,267.6240944878284, 487.87170696111866,266.44942319062307 C 485.61336013249394,265.5947750671725, 483.35501330386927,264.7401269437219, 481.09666647524455,263.8854788202714 C 478.98540345294595,263.54126153385795, 476.8741404306474,263.19704424744447, 474.7628774083488,262.85282696103104 C 472.81853402354614,262.28348175811266, 470.87419063874347,261.7141365551942, 468.9298472539408,261.14479135227583 C 467.0280297636596,260.1993948839532, 465.12621227337837,259.2539984156306, 463.2243947830972,258.3086019473079 C 461.39686820441176,257.684203132416, 459.5693416257264,257.059804317524, 457.741815047041,256.4354055026321 C 455.57667798845415,255.4516942749089, 453.4115409298673,254.46798304718575, 451.24640387128045,253.48427181946258 C 449.4343951604911,252.32776728154113, 447.62238644970176,251.17126274361968, 445.8103777389124,250.01475820569823 C 443.63037108730185,249.3571944758058, 441.45036443569137,248.69963074591342, 439.27035778408083,248.042067016021 C 437.12898307406493,247.51626131588867, 434.9876083640491,246.99045561575636, 432.8462336540332,246.46464991562402 C 431.123537572017,245.85938580009113, 429.4008414900009,245.25412168455824, 427.67814540798474,244.64885756902535 C 426.03135153777686,243.8565843709728, 424.384557667569,243.06431117292027, 422.73776379736114,242.27203797486771 C 420.6219782855019,241.58496644040355, 418.5061927736426,240.89789490593938, 416.39040726178337,240.21082337147521 C 414.80346629844706,239.28769610020228, 413.2165253351107,238.36456882892932, 411.6295843717744,237.4414415576564 C 409.97691196688316,236.8272749140773, 408.324239561992,236.21310827049822, 406.67156715710075,235.59894162691913 C 405.1998858147536,234.13674682240256, 403.7282044724064,232.67455201788596, 402.25652313005924,231.2123572133694 C 400.02641864801444,230.64275541578817, 397.79631416596965,230.073153618207, 395.56620968392485,229.50355182062577 C 394.0531684589411,228.18599741084788, 392.54012723395743,226.86844300107, 391.0270860089737,225.5508885912921 C 389.28594702005313,224.88937587432466, 387.5448080311325,224.22786315735723, 385.80366904221194,223.56635044038978 C 384.5079119229668,222.4323571589827, 383.2121548037216,221.29836387757567, 381.91639768447646,220.1643705961686 C 379.77303118389966,219.3976182892422, 377.62966468332286,218.63086598231578, 375.48629818274605,217.86411367538938 C 373.76292209914646,216.43797360884724, 372.03954601554693,215.01183354230514, 370.31616993194734,213.585693475763 C 368.3846304408763,212.08052137931003, 366.4530909498053,210.57534928285708, 364.5215514587343,209.0701771864041 C 362.48518167754713,208.52632442502585, 360.44881189636004,207.98247166364763, 358.4124421151729,207.43861890226938 C 356.01268086390695,206.63211015422513, 353.61291961264106,205.82560140618085, 351.2131583613751,205.0190926581366 C 349.40224734280565,204.1889853180794, 347.59133632423624,203.3588779780222, 345.78042530566677,202.528770637965 C 343.8111747218233,201.48789125166618, 341.8419241379798,200.44701186536733, 339.8726735541363,199.4061324790685 C 337.93190436603754,198.38087998851407, 335.99113517793876,197.35562749795966, 334.05036598984,196.33037500740522 C 331.8897432094864,195.33142855146872, 329.7291204291328,194.3324820955322, 327.56849764877927,193.3335356395957 C 325.09381543650017,192.54069359336572, 322.619133224221,191.7478515471357, 320.1444510119419,190.9550095009057 C 317.84737590270703,189.83052518001867, 315.5503007934721,188.70604085913166, 313.25322568423724,187.58155653824463 C 310.9811531062949,187.50934848396759, 308.70908052835256,187.43714042969052, 306.43700795041025,187.36493237541347 C 304.07347010510557,187.2615040114779, 301.7099322598009,187.15807564754232, 299.3463944144962,187.05464728360676 C 299.3463944144962,187.05464728360676, 299.3463944144962,195.29161291641253, 299.3463944144962,203.5285785492183" fill="black" stroke="none" stroke-width="1"/>
  <path d="M 296.31625971412257,121.00659292704094  C 294.0675740500928,120.30130023891999, 291.81888838606307,119.59600755079904, 289.5702027220333,118.8907148626781 C 287.5263431364081,118.08211638747494, 285.482483550783,117.27351791227179, 283.43862396515783,116.46491943706863 C 281.4011993061153,115.53100400140319, 279.36377464707283,114.59708856573775, 277.3263499880303,113.66317313007231 C 275.5141700935594,112.43386582481222, 273.7019901990885,111.20455851955212, 271.88981030461764,109.97525121429203 C 269.48711736871167,108.07950764117895, 267.0844244328057,106.18376406806586, 264.6817314968997,104.28802049495278 C 262.95377389680397,103.05969476279137, 261.22581629670816,101.83136903062996, 259.4978586966124,100.60304329846855 C 257.3477579298901,99.86881308735553, 255.19765716316778,99.13458287624252, 253.04755639644546,98.4003526651295 C 251.28110756225593,97.14173417366578, 249.5146587280664,95.88311568220206, 247.74820989387686,94.62449719073834 C 245.90359719849764,92.93511829745003, 244.05898450311838,91.24573940416172, 242.21437180773916,89.55636051087342 C 239.80397251761545,93.46438991605275, 237.39357322749171,97.37241932123207, 234.983173937368,101.28044872641141 C 237.0081782669574,103.08280791133514, 239.0331825965468,104.88516709625887, 241.0581869261362,106.6875262811826 C 242.5094575205543,107.62570628289967, 243.9607281149724,108.56388628461674, 245.4119987093905,109.50206628633381 C 247.84359613556677,110.62985133389994, 250.27519356174304,111.75763638146604, 252.7067909879193,112.88542142903216 C 254.18311864768185,114.16383871206519, 255.6594463074444,115.44225599509821, 257.13577396720694,116.72067327813123 C 259.3080836698331,118.56269539965162, 261.48039337245916,120.40471752117202, 263.6527030750853,122.2467396426924 C 265.7302699286989,123.69630306314401, 267.8078367823124,125.14586648359561, 269.88540363592597,126.59542990404722 C 272.4240526719101,127.73727312795974, 274.96270170789415,128.87911635187226, 277.5013507438783,130.0209595757848 C 280.03360150236045,131.18589162192362, 282.5658522608427,132.35082366806247, 285.09810301932487,133.5157557142013 C 287.42550937083746,134.25248426703092, 289.75291572235,134.98921281986054, 292.0803220738626,135.72594137269016 C 294.1982908939926,135.72594137269016, 296.31625971412257,128.36626714986556, 296.31625971412257,121.00659292704094" fill="black" stroke="none" stroke-width="1"/>
  <path d="M 304.9918710519189,128.4892327380208  C 307.02556875953275,127.3187455459227, 309.05926646714653,126.14825835382457, 311.09296417476037,124.97777116172647 C 313.37176261239705,124.08341407770422, 315.6505610500338,123.18905699368197, 317.92935948767047,122.29469990965973 C 319.01136443231616,120.4678961122852, 320.0933693769618,118.6410923149107, 321.1753743216075,116.81428851753617 C 322.77540016907494,115.10331966157909, 324.3754260165424,113.39235080562202, 325.97545186400987,111.68138194966494 C 327.2447884612827,110.3419938006143, 328.5141250585556,109.00260565156366, 329.78346165582843,107.66321750251302 C 331.0350449801425,106.52883915332461, 332.2866283044566,105.39446080413622, 333.5382116287707,104.2600824549478 C 334.81668109711785,102.40127966504001, 336.09515056546496,100.54247687513221, 337.37362003381213,98.68367408522441 C 338.95272434481393,96.7524360765865, 340.5318286558158,94.82119806794859, 342.1109329668176,92.88996005931068 C 343.2429680132265,91.64040945979507, 344.3750030596354,90.39085886027944, 345.5070381060443,89.14130826076382 C 346.3941800830191,87.56335017332574, 347.2813220599939,85.98539208588768, 348.16846403696866,84.4074339984496 C 349.80404751381394,83.27137113751823, 351.43963099065917,82.13530827658685, 353.07521446750445,80.99924541565548 C 354.7301993835776,78.76062536868844, 356.3851842996507,76.52200532172138, 358.04016921572384,74.28338527475434 C 359.0871137392483,72.56846309332839, 360.13405826277284,70.85354091190243, 361.1810027862973,69.13861873047648 C 362.35729248745184,69.01615645371061, 363.5335821886063,68.89369417694475, 364.70987188976085,68.77123190017888 C 363.00546220634715,64.57077202500581, 361.30105252293345,60.37031214983275, 359.59664283951975,56.16985227465969 C 357.33455992130996,57.0657913975142, 355.0724770031002,57.961730520368704, 352.8103940848904,58.85766964322321 C 351.0512647748023,61.028231946406244, 349.29213546471414,63.198794249589284, 347.53300615462604,65.36935655277232 C 345.86377795466376,67.70979748512376, 344.1945497547015,70.05023841747519, 342.5253215547392,72.39067934982663 C 341.20408485086034,73.47678806897217, 339.8828481469815,74.56289678811773, 338.5616114431026,75.64900550726327 C 337.5915072874688,77.40053688093052, 336.62140313183505,79.15206825459776, 335.65129897620125,80.90359962826501 C 334.41594591664244,82.0953968518544, 333.1805928570837,83.2871940754438, 331.9452397975249,84.47899129903318 C 330.36845781755875,86.35062544730845, 328.79167583759266,88.2222595955837, 327.2148938576265,90.09389374385896 C 325.8440519902194,92.13938684672395, 324.4732101228123,94.18487994958893, 323.10236825540517,96.23037305245393 C 322.13706350106685,97.4047550136343, 321.1717587467286,98.57913697481466, 320.20645399239027,99.75351893599503 C 318.9587243066373,101.09497249015122, 317.71099462088426,102.43642604430742, 316.4632649351313,103.77787959846361 C 315.1175443650092,105.00987086187577, 313.7718237948871,106.24186212528792, 312.42610322476503,107.47385338870008 C 311.60057772871215,108.93936261787528, 310.7750522326592,110.40487184705049, 309.94952673660634,111.87038107622568 C 307.9821778022297,112.582540325867, 306.01482886785317,113.29469957550832, 304.04747993347655,114.00685882514964 C 302.6578672895436,114.63385692093362, 301.26825464561074,115.26085501671761, 299.8786420016778,115.8878531125016 C 302.43525652679836,115.8878531125016, 304.9918710519189,122.1885429252612, 304.9918710519189,128.4892327380208" fill="black" stroke="none" stroke-width="1"/>
  <path d="M 68.12038169682417,142.7515933013114  C 67.94106254694834,144.67861593895375, 67.76174339707251,146.6056385765961, 67.58242424719668,148.53266121423846 C 67.3882370145496,150.43037497421585, 67.19404978190254,152.32808873419324, 66.99986254925545,154.22580249417064 C 65.99644729003094,155.65575313067714, 64.99303203080645,157.08570376718362, 63.989616771581936,158.51565440369012 C 63.52403689623542,160.4097250775769, 63.058457020888916,162.30379575146364, 62.5928771455424,164.1978664253504 C 61.950918686015356,166.62888427441445, 61.30896022648831,169.05990212347845, 60.66700176696126,171.49091997254249 C 60.33359197157982,173.56107049214205, 60.00018217619838,175.63122101174162, 59.66677238081694,177.70137153134118 C 59.67323154193495,179.7777062649481, 59.67969070305297,181.85404099855506, 59.686149864170986,183.930375732162 C 59.33429993273441,185.96626227441308, 58.98245000129784,188.00214881666415, 58.630600069861266,190.03803535891524 C 58.66046665736323,192.09796075895454, 58.690333244865194,194.15788615899388, 58.72019983236716,196.21781155903318 C 58.06710991752617,198.20334436068862, 57.414020002685184,200.18887716234408, 56.760930087844194,202.17440996399952 C 56.4503663072884,204.33769894765487, 56.13980252673261,206.50098793131022, 55.82923874617681,208.66427691496557 C 55.39432980762782,210.85528160003753, 54.95942086907883,213.04628628510946, 54.52451193052984,215.23729097018142 C 54.5255699718243,217.3210358831254, 54.526628013118746,219.4047807960694, 54.5276860544132,221.48852570901337 C 54.75916871939847,223.40086286900913, 54.99065138438374,225.31320002900492, 55.222134049369004,227.22553718900068 C 54.86627999385383,229.31561485187768, 54.51042593833866,231.4056925147547, 54.15457188282349,233.4957701776317 C 53.515899215095864,234.81891502823012, 52.877226547368245,236.14205987882852, 52.23855387964062,237.46520472942694 C 52.142372804984966,239.47621400285368, 52.04619173032932,241.48722327628042, 51.950010655673665,243.49823254970715 C 51.12266531298823,245.81514404692115, 50.2953199703028,248.13205554413517, 49.467974627617366,250.44896704134916 C 49.15648881408879,252.4743878485748, 48.84500300056022,254.49980865580042, 48.53351718703164,256.52522946302605 C 48.42831728334348,258.5183235477689, 48.32311737965533,260.5114176325118, 48.21791747596717,262.5045117172546 C 47.64094358539585,264.6442345017324, 47.063969694824536,266.78395728621024, 46.48699580425322,268.923680070688 C 45.7398205584496,271.19859462820983, 44.99264531264598,273.4735091857317, 44.245470066842365,275.7484237432535 C 44.20965058564076,277.9029833523033, 44.17383110443915,280.05754296135314, 44.138011623237546,282.2121025704029 C 44.092190796385154,284.4079604865611, 44.046369969532755,286.6038184027193, 44.00054914268036,288.79967631887746 C 44.00036609512025,290.88462050465114, 44.00018304756014,292.9695646904248, 44.00000000000003,295.0545088761985 C 44.03771645895164,297.23080501576254, 44.075432917903264,299.40710115532664, 44.11314937685488,301.5833972948907 C 44.22721348113451,303.9504790605549, 44.34127758541414,306.3175608262192, 44.455341689693775,308.68464259188346 C 45.419122369466635,311.03484054354664, 46.382903049239495,313.38503849520987, 47.346683729012355,315.73523644687305 C 47.99985581872052,317.8378687086411, 48.65302790842869,319.94050097040923, 49.306199998136854,322.0431332321773 C 50.61086449424563,323.57079087107246, 51.91552899035441,325.09844850996757, 53.22019348646319,326.62610614886273 C 53.58148735885853,328.83309169655666, 53.94278123125388,331.04007724425065, 54.304075103649225,333.2470627919446 C 54.99234099934345,334.6251135092845, 55.68060689503768,336.0031642266245, 56.3688727907319,337.38121494396444 C 57.16212976258724,339.07456056002997, 57.95538673444259,340.76790617609544, 58.74864370629793,342.46125179216097 C 59.54912538826771,344.4485974170959, 60.34960707023749,346.4359430420309, 61.15008875220727,348.42328866696585 C 62.10095080104942,350.59296300961586, 63.051812849891576,352.7626373522659, 64.00267489873373,354.93231169491594 C 64.85493975196431,356.14349773749876, 65.7072046051949,357.35468378008153, 66.55946945842548,358.56586982266435 C 66.54395025507252,360.36760557825386, 66.52843105171954,362.1693413338434, 66.51291184836657,363.9710770894329 C 66.21694430062685,365.70569909127147, 65.92097675288713,367.44032109310996, 65.6250092051474,369.1749430949485 C 65.62417110468877,371.2594405557383, 65.62333300423015,373.34393801652817, 65.62249490377151,375.428435477318 C 65.62249479703512,377.51367731353815, 65.62249469029872,379.5989191497583, 65.62249458356233,381.68416098597845 C 65.62249458358556,383.76940291703136, 65.62249458360881,385.85464484808426, 65.62249458363205,387.93988677913717 C 65.62249458363208,390.02512871016944, 65.62249458363209,392.11037064120177, 65.62249458363212,394.19561257223404 C 65.62249458363212,396.2808545032663, 65.62249458363212,398.3660964342985, 65.62249458363212,400.4513383653308 C 65.62249458363212,402.53658029636307, 65.62249458363212,404.6218222273954, 65.62249458363212,406.70706415842767 C 65.62249458363212,408.79230608945994, 65.62249458363212,410.87754802049216, 65.62249458363212,412.9627899515244 C 65.62249458363212,415.0480318825567, 65.62249458363212,417.133273813589, 65.62249458363212,419.2185157446213 C 65.62249458363212,421.30375767565357, 65.62249458363212,423.3889996066858, 65.62249458363212,425.47424153771806 C 65.62249458363212,427.55948346875033, 65.62249458363212,429.64472539978266, 65.62249458363212,431.72996733081493 C 65.62249458363212,433.8152092618472, 65.62249458363212,435.9004511928794, 65.62249458363212,437.9856931239117 C 65.62249458363212,440.07093505494396, 65.62249458363212,442.1561769859763, 65.62249458363212,444.24141891700856 C 65.62249458363212,446.32666084804083, 65.62249458363212,448.41190277907305, 65.62249458363212,450.4971447101053 C 65.62249458363212,452.5823866411376, 65.62249458363212,454.6676285721699, 65.62249458363212,456.7528705032022 C 65.62249458363239,458.83811243423384, 65.62249458363266,460.9233543652655, 65.62249458363293,463.0085962962971 C 65.62249458841113,465.0938382157938, 65.62249459318934,467.17908013529046, 65.62249459796755,469.26432205478716 C 65.62251988907646,471.34950292796105, 65.62254518018536,473.4346838011349, 65.62257047129427,475.5198646743088 C 65.65985688788608,477.51509037423, 65.6971433044779,479.5103160741512, 65.73442972106972,481.5055417740724 C 65.73517739674716,483.59307558111783, 65.7359250724246,485.6806093881632, 65.73667274810205,487.7681431952086 C 65.4643248077733,489.671740145176, 65.19197686744454,491.5753370951434, 64.91962892711578,493.4789340451108 C 64.84115115730732,495.4554503535248, 64.76267338749888,497.4319666619388, 64.68419561769042,499.4084829703528 C 63.95174774627175,501.4504397138091, 63.21929987485308,503.49239645726544, 62.48685200343441,505.53435320072174 C 62.26612134756409,507.7653408831664, 62.045390691693775,509.9963285656111, 61.824660035823456,512.2273162480558 C 61.346738279005464,514.1399480302138, 60.86881652218747,516.0525798123718, 60.39089476536948,517.9652115945298 C 60.52312518949241,519.903210009116, 60.65535561361535,521.8412084237021, 60.78758603773828,523.7792068382884 C 60.319525748253156,524.9733502359762, 59.85146545876804,526.1674936336641, 59.383405169282916,527.361637031352 C 58.401248386308474,529.1870993897513, 57.419091603334024,531.0125617481506, 56.43693482035958,532.8380241065499 C 55.48553196399265,534.0916660226897, 54.53412910762572,535.3453079388294, 53.58272625125879,536.5989498549691 C 57.49075565643812,539.0093491450929, 61.39878506161745,541.4197484352165, 65.30681446679678,543.8301477253403 C 66.39576832778373,542.2778792736499, 67.48472218877069,540.7256108219595, 68.57367604975764,539.1733423702691 C 69.72157595545372,536.8349386721359, 70.8694758611498,534.4965349740027, 72.01737576684587,532.1581312758694 C 72.93850913614523,530.6245380209134, 73.85964250544458,529.0909447659574, 74.78077587474394,527.5573515110013 C 74.800588639162,525.256611135148, 74.82040140358005,522.9558707592946, 74.84021416799811,520.6551303834412 C 75.75987017531341,518.3972499445221, 76.6795261826287,516.139369505603, 77.599182189944,513.8814890666838 C 77.70391417415185,511.94199287620364, 77.8086461583597,510.00249668572354, 77.91337814256755,508.0630004952434 C 78.68168634443656,505.9344733766313, 79.44999454630555,503.8059462580191, 80.21830274817455,501.677419139407 C 80.38685177349682,499.4834515857564, 80.5554007988191,497.2894840321059, 80.72394982414136,495.09551647845535 C 81.14677739385847,492.8286295663582, 81.56960496357557,490.56174265426097, 81.99243253329269,488.2948557421638 C 81.98978620535941,486.2119056871447, 81.98713987742615,484.1289556321255, 81.98449354949287,482.04600557710637 C 82.02177902042087,479.8707474149631, 82.05906449134888,477.69548925281975, 82.09634996227688,475.5202310906765 C 82.09637525315405,473.43492810178583, 82.09640054403121,471.3496251128951, 82.09642583490839,469.2643221240045 C 82.09642583968655,467.17908018143663, 82.09642584446472,465.09383823886884, 82.09642584924288,463.008596296301 C 82.09642584924315,460.92335436526804, 82.09642584924342,458.83811243423514, 82.09642584924369,456.7528705032022 C 82.09642584924369,454.6676285721699, 82.09642584924369,452.5823866411376, 82.09642584924369,450.4971447101053 C 82.09642584924369,448.41190277907305, 82.09642584924369,446.32666084804083, 82.09642584924369,444.24141891700856 C 82.09642584924369,442.1561769859763, 82.09642584924369,440.07093505494396, 82.09642584924369,437.9856931239117 C 82.09642584924369,435.9004511928794, 82.09642584924369,433.8152092618472, 82.09642584924369,431.72996733081493 C 82.09642584924369,429.64472539978266, 82.09642584924369,427.55948346875033, 82.09642584924369,425.47424153771806 C 82.09642584924369,423.3889996066858, 82.09642584924369,421.30375767565357, 82.09642584924369,419.2185157446213 C 82.09642584924369,417.133273813589, 82.09642584924369,415.0480318825567, 82.09642584924369,412.9627899515244 C 82.09642584924369,410.87754802049216, 82.09642584924369,408.79230608945994, 82.09642584924369,406.70706415842767 C 82.09642584924369,404.6218222273954, 82.09642584924369,402.53658029636307, 82.09642584924369,400.4513383653308 C 82.09642584924369,398.3660964342985, 82.09642584924369,396.2808545032663, 82.09642584924369,394.19561257223404 C 82.09642584924372,392.11037064120177, 82.09642584924373,390.02512871016955, 82.09642584924376,387.9398867791373 C 82.096425849267,385.85464484812564, 82.09642584929024,383.769402917114, 82.09642584931349,381.68416098610237 C 82.09642574257623,379.59891896025914, 82.09642563583897,377.51367693441597, 82.09642552910171,375.42843490857274 C 82.09558742184986,373.34244851635543, 82.09474931459799,371.25646212413807, 82.09391120734614,369.17047573192076 C 81.79791216849972,366.7346558588134, 81.5019131296533,364.2988359857061, 81.20591409080689,361.86301611259876 C 81.05541736489376,359.66959268597446, 80.90492063898064,357.47616925935023, 80.75442391306751,355.28274583272594 C 79.67338236829181,353.5193914414688, 78.5923408235161,351.7560370502118, 77.5112992787404,349.99268265895466 C 76.80058867265278,347.99338996433215, 76.08987806656515,345.9940972697097, 75.37916746047753,343.9948045750872 C 74.41990750121045,341.811311840983, 73.46064754194336,339.6278191068788, 72.50138758267627,337.44432637277464 C 71.44871561241587,335.7164823632832, 70.39604364215548,333.9886383537917, 69.34337167189507,332.2607943443003 C 68.47966203533895,330.81651239167667, 67.61595239878282,329.3722304390531, 66.7522427622267,327.9279484864295 C 66.46544964352094,325.92129631512813, 66.17865652481518,323.9146441438267, 65.89186340610942,321.90799197252534 C 65.01710449955965,320.6737035419312, 64.14234559300988,319.4394151113371, 63.2675866864601,318.205126680743 C 62.62017756188669,316.1068764616483, 61.97276843731329,314.00862624255365, 61.325359312739884,311.910376023459 C 60.884357045284695,310.09008355550435, 60.44335477782951,308.26979108754966, 60.00235251037432,306.44949861959503 C 60.12213674830608,304.6460965223596, 60.24192098623785,302.84269442512414, 60.36170522416961,301.0392923278887 C 60.39942043773283,299.04510460538836, 60.43713565129604,297.0509168828881, 60.474850864859256,295.05672916038776 C 60.47466781691656,292.97118948409695, 60.47448476897385,290.8856498078061, 60.47430172103115,288.8001101315153 C 60.42848493091795,286.8254841856089, 60.38266814080476,284.8508582397025, 60.33685135069156,282.87623229379614 C 60.315246187050064,280.8603080407814, 60.293641023408576,278.8443837877667, 60.27203585976708,276.8284595347519 C 60.86208115696483,274.9328902302092, 61.452126454162574,273.0373209256665, 62.04217175136032,271.1417516211238 C 62.57401222511538,269.110990543537, 63.10585269887044,267.0802294659503, 63.637693172625504,265.04946838836355 C 63.819230727882804,262.8720786110429, 64.0007682831401,260.6946888337223, 64.1823058383974,258.51729905640167 C 64.54300920913815,256.3722360044684, 64.9037125798789,254.22717295253514, 65.26441595061965,252.08210990060186 C 65.63559505834193,250.2285450166091, 66.00677416606422,248.37498013261632, 66.3779532737865,246.52141524862355 C 66.48656197152268,244.37957637158937, 66.59517066925883,242.23773749455518, 66.70377936699501,240.095898617521 C 67.41468603294294,238.59833107090242, 68.12559269889087,237.10076352428382, 68.8364993648388,235.60319597766525 C 69.18044682129762,233.52820190130643, 69.52439427775644,231.45320782494764, 69.86834173421526,229.37821374858882 C 70.0920867682673,227.120067869011, 70.31583180231932,224.86192198943317, 70.53957683637135,222.60377610985535 C 70.53978845572101,220.5170371606672, 70.54000007507067,218.43029821147908, 70.54021169442032,216.34355926229094 C 70.88750395587024,214.36408008529824, 71.23479621732018,212.38460090830552, 71.5820884787701,210.40512173131282 C 71.82799596395988,208.39792685290362, 72.07390344914964,206.39073197449443, 72.31981093433942,204.38353709608523 C 73.05550259654102,202.19858603567613, 73.79119425874262,200.01363497526702, 74.52688592094422,197.82868391485792 C 74.517992234422,195.71812545283268, 74.50909854789978,193.60756699080747, 74.50020486137755,191.49700852878223 C 74.89294213780444,189.36241120896875, 75.28567941423134,187.2278138891553, 75.67841669065822,185.09321656934182 C 75.67934286339157,182.99906744082975, 75.6802690361249,180.9049183123177, 75.68119520885824,178.81076918380563 C 76.0447994329524,176.71043569009004, 76.40840365704658,174.61010219637447, 76.77200788114074,172.50976870265887 C 76.79857589370849,170.76990773609955, 76.82514390627622,169.0300467695402, 76.85171191884398,167.2901858029809 C 77.05579562657708,165.670153264965, 77.2598793343102,164.05012072694913, 77.4639630420433,162.43008818893324 C 78.46289943286648,161.01143769266974, 79.46183582368965,159.59278719640628, 80.46077221451283,158.17413670014278 C 81.03698203421878,155.9827261410358, 81.61319185392472,153.79131558192884, 82.18940167363067,151.59990502282187 C 82.69860829990529,149.35645738902838, 83.20781492617992,147.11300975523488, 83.71702155245454,144.8695621214414 C 75.91870162463935,144.8695621214414, 68.12038169682417,143.8105777113764, 68.12038169682417,142.7515933013114" fill="black" stroke="none" stroke-width="1"/>
  <path d="M 361.59164607149444,291.6079496909256  C 361.55161624539335,293.57017234525273, 361.51158641929226,295.5323949995799, 361.47155659319117,297.494617653907 C 360.2538829853208,298.91366322661156, 359.03620937745046,300.33270879931604, 357.8185357695801,301.75175437202057 C 357.31759022172565,303.8048781210722, 356.81664467387117,305.85800187012376, 356.31569912601674,307.9111256191754 C 355.08151657155895,310.2873561540036, 353.84733401710116,312.66358668883186, 352.6131514626434,315.03981722366007 C 352.1928462214815,317.2543606963308, 351.77254098031966,319.46890416900163, 351.3522357391578,321.6834476416724 C 350.72992644521196,323.793870542101, 350.10761715126614,325.9042934425296, 349.4853078573203,328.0147163429582 C 348.7385730410871,329.9567198454746, 347.99183822485384,331.898723347991, 347.2451034086206,333.8407268505074 C 347.2361680749369,336.1027603819219, 347.22723274125326,338.3647939133364, 347.2182974075696,340.6268274447509 C 347.12516624817545,342.802369607494, 347.0320350887813,344.977911770237, 346.93890392938715,347.15345393298 C 346.5995769055926,349.2903966619555, 346.260249881798,351.42733939093097, 345.92092285800345,353.56428211990647 C 345.6166362524504,355.5991514618266, 345.3123496468974,357.63402080374675, 345.00806304134437,359.66889014566686 C 345.0152143488294,361.7851191854358, 345.0223656563143,363.9013482252047, 345.0295169637993,366.0175772649736 C 344.7260412585413,368.0923090569333, 344.4225655532832,370.167040848893, 344.11908984802517,372.2417726408527 C 343.4541326893515,374.2826537029983, 342.78917553067794,376.32353476514396, 342.1242183720043,378.3644158272896 C 341.74157637953664,380.6787582661147, 341.3589343870689,382.99310070493976, 340.9762923946013,385.3074431437649 C 340.6197233333931,387.7918120903726, 340.263154272185,390.2761810369803, 339.9065852109768,392.760549983588 C 340.0141769301048,394.8028572637614, 340.12176864923276,396.8451645439348, 340.22936036836074,398.88747182410816 C 340.9028262986022,401.0047008878562, 341.57629222884367,403.1219299516042, 342.2497581590851,405.23915901535224 C 341.57243309469675,407.03041452022046, 340.8951080303084,408.8216700250887, 340.21778296592004,410.6129255299569 C 340.0810027438333,412.95120080027897, 339.9442225217466,415.2894760706011, 339.8074422996599,417.62775134092317 C 339.88580285228574,420.0765219998629, 339.96416340491163,422.5252926588027, 340.04252395753747,424.97406331774243 C 341.0318558021802,427.4666097488128, 342.0211876468229,429.9591561798832, 343.01051949146563,432.4517026109536 C 344.9271885573688,434.7141438556816, 346.843857623272,436.97658510040964, 348.7605266891752,439.23902634513763 C 350.03036400986656,440.87796124904054, 351.30020133055797,442.5168961529434, 352.5700386512493,444.1558310568463 C 353.87049502904716,445.2267346725308, 355.17095140684506,446.29763828821535, 356.4714077846429,447.3685419038999 C 358.2917813852381,448.73533539762064, 360.1121549858333,450.10212889134135, 361.9325285864285,451.4689223850621 C 363.2671937364971,453.18095156459395, 364.60185888656576,454.89298074412574, 365.9365240366344,456.6050099236576 C 367.2609725339791,458.29639387572695, 368.58542103132385,459.9877778277963, 369.90986952866854,461.6791617798657 C 371.6595831680816,462.58565411353356, 373.4092968074946,463.49214644720143, 375.1590104469077,464.3986387808693 C 377.19919427548865,465.1026150015536, 379.23937810406966,465.80659122223796, 381.2795619326506,466.51056744292225 C 381.46696519271984,467.88578870666385, 381.6543684527891,469.2610099704055, 381.8417717128583,470.6362312341471 C 385.1900267463245,468.2863962773846, 388.53828177979074,465.9365613206221, 391.88653681325695,463.5867263638596 C 391.2191110794976,461.4125077584349, 390.55168534573835,459.2382891530102, 389.884259611979,457.0640705475855 C 387.66560024044344,456.11798261435126, 385.4469408689078,455.171894681117, 383.2282814973722,454.22580674788276 C 381.32331606573365,453.04915485493666, 379.41835063409513,451.87250296199056, 377.51338520245656,450.69585106904447 C 376.70020670420564,449.35697669607094, 375.8870282059548,448.0181023230975, 375.07384970770386,446.67922795012396 C 373.54101052576664,444.8746322573804, 372.0081713438294,443.0700365646369, 370.4753321618922,441.26544087189336 C 368.9670037706472,440.35324756583435, 367.4586753794022,439.4410542597753, 365.9503469881572,438.5288609537163 C 364.45450277142476,437.4565170365178, 362.95865855469225,436.3841731193193, 361.4628143379598,435.31182920212086 C 360.8447221822006,433.9909549342249, 360.2266300264414,432.6700806663289, 359.6085378706822,431.3492063984329 C 358.590506022759,430.0901653400504, 357.57247417483575,428.8311242816679, 356.5544423269125,427.5720832232854 C 356.17759550602165,425.79116811437024, 355.8007486851308,424.0102530054551, 355.42390186423995,422.22933789653996 C 355.50583129220166,420.4046291423826, 355.58776072016343,418.57992038822516, 355.66969014812514,416.7552116340678 C 355.53436795898284,414.8201049086992, 355.3990457698405,412.88499818333065, 355.2637235806982,410.94989145796205 C 355.9257883415613,409.1229059940963, 356.58785310242445,407.29592053023055, 357.2499178632876,405.4689350663648 C 356.57982863550666,403.34378163244435, 355.9097394077257,401.2186281985239, 355.23965017994476,399.09347476460346 C 355.3496556134872,396.8622833590412, 355.45966104702956,394.63109195347903, 355.569666480572,392.3999005479168 C 355.9581485613057,390.6107900028568, 356.3466306420393,388.8216794577968, 356.735112722773,387.0325689127368 C 356.9708039451704,385.0734318700227, 357.20649516756777,383.1142948273086, 357.4421863899652,381.1551577845945 C 358.186555504772,378.92255936520377, 358.9309246195789,376.6899609458131, 359.6752937343857,374.45736252642234 C 360.0301385063837,372.2586148368457, 360.38498327838164,370.0598671472691, 360.73982805037963,367.86111945769244 C 360.74966836390877,365.703869015925, 360.7595086774379,363.54661857415766, 360.76934899096705,361.38936813239025 C 361.15802769080113,359.1507579927749, 361.5467063906353,356.91214785315964, 361.93538509046937,354.6735377135443 C 362.2744871169687,352.53700096146935, 362.613589143468,350.40046420939433, 362.95269116996735,348.26392745731937 C 362.85962660983677,346.1659798403677, 362.76656204970624,344.06803222341597, 362.67349748957565,341.9700846064643 C 362.6048000054282,339.8977273219768, 362.5361025212807,337.8253700374892, 362.4674050371333,335.7530127530017 C 363.0658190712076,334.16914320395165, 363.664233105282,332.5852736549016, 364.2626471393563,331.0014041058515 C 365.0449354384794,328.83807656335756, 365.8272237376024,326.67474902086366, 366.6095120367255,324.5114214783697 C 366.98039614268697,322.45248543619186, 367.3512802486485,320.39354939401403, 367.72216435460996,318.3346133518362 C 368.56410126691776,316.4373694996425, 369.40603817922556,314.5401256474488, 370.24797509153336,312.6428817952551 C 370.69726461472624,310.44323953445434, 371.1465541379191,308.2435972736536, 371.595843661112,306.04395501285285 C 372.7846898358272,304.5321645319971, 373.9735360105424,303.02037405114135, 375.16238218525757,301.5085835702856 C 375.13169382583663,299.20679235386933, 375.10100546641576,296.90500113745304, 375.0703171069948,294.60320992103675 C 368.33098158924463,294.60320992103675, 361.59164607149444,293.10557980598117, 361.59164607149444,291.6079496909256" fill="black" stroke="none" stroke-width="1"/>
  <path d="M 391.41852740230206,466.9857578286991  C 394.0968066035535,465.3534240343135, 396.77508580480486,463.72109023992795, 399.4533650060563,462.08875644554234 C 400.62265335697174,459.1920322080834, 401.79194170788713,456.2953079706245, 402.9612300588026,453.39858373316554 C 403.9296356211,450.6656878002704, 404.8980411833974,447.93279186737533, 405.8664467456948,445.1998959344802 C 405.80367535827776,442.45715486749, 405.74090397086064,439.71441380049976, 405.6781325834436,436.97167273350954 C 400.6860321999249,436.4724626951576, 395.6939318164063,435.97325265680576, 390.7018314328876,435.47404261845384 C 390.63906004547056,438.22261197333415, 390.57628865805344,440.9711813282144, 390.5135172706364,443.71975068309473 C 390.1090952274662,445.79175136933634, 389.7046731842959,447.86375205557795, 389.3002511411257,449.93575274181956 C 389.09671188657353,451.84392512349734, 388.89317263202133,453.75209750517513, 388.68963337746914,455.6602698868529 C 387.2494297623177,456.08717750066876, 385.80922614716616,456.5140851144846, 384.3690225320147,456.94099272830044 C 387.8937749671584,456.94099272830044, 391.41852740230206,461.96337527849977, 391.41852740230206,466.9857578286991" fill="black" stroke="none" stroke-width="1"/>
  <path d="M 352.10573688209263,411.573443571642  C 354.64001783580426,411.5287052890519, 357.17429878951594,411.48396700646185, 359.7085797432276,411.4392287238718 C 361.9780465038927,410.350776408439, 364.2475132645579,409.26232409300627, 366.516980025223,408.1738717775735 C 368.7344789082918,407.0011754628566, 370.95197779136066,405.82847914813976, 373.16947667442946,404.6557828334229 C 375.59594244011697,404.51275337228475, 378.02240820580454,404.36972391114654, 380.44887397149205,404.2266944500084 C 382.40988487295334,402.9208291735428, 384.3708957744147,401.6149638970772, 386.331906675876,400.3090986206116 C 384.6274969924623,396.10863874543855, 382.9230873090486,391.90817887026554, 381.2186776256349,387.7077189950925 C 379.67403651857484,388.63789091801357, 378.12939541151474,389.56806284093466, 376.5847543044547,390.49823476385575 C 374.0011281781197,390.80176935934276, 371.41750205178465,391.10530395482976, 368.83387592544966,391.4088385503168 C 366.798314549551,392.3358261579959, 364.76275317365236,393.26281376567505, 362.7271917977537,394.18980137335416 C 360.7346699670514,395.06175395022643, 358.74214813634904,395.93370652709865, 356.74962630564676,396.8056591039709 C 354.3494583227552,396.88236877800614, 351.9492903398636,396.95907845204135, 349.549122356972,397.03578812607657 C 350.8274296195323,397.03578812607657, 352.10573688209263,404.30461584885927, 352.10573688209263,411.573443571642" fill="black" stroke="none" stroke-width="1"/>
  <path d="M 367.2426334732154,307.67259895751084  C 368.9844094411122,307.79274045313684, 370.726185409009,307.91288194876284, 372.4679613769058,308.03302344438885 C 373.61886092646154,309.05640345793, 374.7697604760173,310.0797834714712, 375.92066002557306,311.1031634850124 C 376.78585572828234,312.8262527501052, 377.6510514309917,314.54934201519796, 378.516247133701,316.2724312802908 C 379.01862869174283,318.6445241361939, 379.5210102497847,321.01661699209706, 380.02339180782656,323.3887098480002 C 381.30510374455963,325.2980581124404, 382.58681568129265,327.20740637688056, 383.8685276180257,329.11675464132077 C 384.7503421995597,331.5699128403528, 385.63215678109367,334.02307103938483, 386.5139713626277,336.47622923841686 C 388.18186092468216,338.50214680115494, 389.84975048673664,340.528064363893, 391.5176400487911,342.5539819266311 C 395.2794542189736,339.79058783315236, 399.0412683891561,337.02719373967363, 402.8030825593386,334.2637996461949 C 401.03055528044325,332.2767589492141, 399.25802800154787,330.28971825223334, 397.48550072265255,328.30267755525256 C 397.07042076141846,326.7419428640294, 396.65534080018443,325.18120817280624, 396.24026083895035,323.6204734815831 C 395.46924107237805,322.1809425306972, 394.69822130580576,320.7414115798113, 393.92720153923347,319.30188062892546 C 393.6572507336117,316.9680091681277, 393.38729992798994,314.63413770733, 393.1173491223682,312.30026624653226 C 391.18933274483066,309.31636100235636, 389.2613163672932,306.3324557581805, 387.3332999897557,303.3485505140046 C 385.0134033222528,301.0587738121001, 382.69350665475,298.7689971101956, 380.37360998724716,296.4792204082911 C 377.40859702932323,295.3038971094813, 374.4435840713993,294.12857381067147, 371.47857111347537,292.95325051186165 C 369.3606022933454,292.95325051186165, 367.2426334732154,300.31292473468625, 367.2426334732154,307.67259895751084" fill="black" stroke="none" stroke-width="1"/>
  <path d="M 424.149822463179,297.75355482741656  C 424.1900008615448,300.01612155375483, 424.2301792599106,302.2786882800931, 424.27035765827634,304.54125500643136 C 424.6752443282634,306.91737312630664, 425.0801309982504,309.29349124618193, 425.48501766823745,311.6696093660572 C 426.7464147044407,314.48518254407094, 428.00781174064406,317.3007557220846, 429.26920877684734,320.1163289000983 C 430.68133318316364,322.30262547259093, 432.0934575894799,324.4889220450836, 433.5055819957962,326.6752186175762 C 435.8827947405095,327.8630800336315, 438.26000748522284,329.0509414496868, 440.63722022993613,330.23880286574206 C 441.5043144532281,331.5264844783961, 442.37140867652016,332.8141660910502, 443.23850289981215,334.10184770370427 C 443.8726386393541,335.6638838134605, 444.50677437889595,337.2259199232166, 445.1409101184379,338.78795603297283 C 445.8650477292317,340.4967812503242, 446.58918534002555,342.2056064676755, 447.3133229508194,343.9144316850269 C 448.1932596057158,345.5198122163633, 449.0731962606123,347.1251927476997, 449.9531329155087,348.7305732790361 C 450.77988339673624,350.7341897259809, 451.6066338779637,352.7378061729257, 452.4333843591912,354.7414226198705 C 452.9414528062824,356.7869945416739, 453.44952125337363,358.83256646347724, 453.95758970046484,360.87813838528064 C 454.1819627840743,362.57505588893235, 454.4063358676837,364.271973392584, 454.6307089512932,365.96889089623573 C 454.77149486574973,367.8420143660889, 454.91228078020634,369.71513783594213, 455.0530666946629,371.5882613057953 C 455.3936873983144,373.7664601441022, 455.73430810196584,375.9446589824091, 456.07492880561733,378.12285782071604 C 456.02318822970483,380.1803631143087, 455.9714476537923,382.2378684079013, 455.9197070778798,384.295373701494 C 455.8969648508522,386.41877487611663, 455.8742226238246,388.54217605073933, 455.851480396797,390.665577225362 C 456.0266920113448,392.6201111811675, 456.2019036258926,394.57464513697306, 456.3771152404404,396.5291790927786 C 457.25074163047054,397.95518066256096, 458.1243680205007,399.3811822323434, 458.99799441053085,400.8071838021258 C 458.74689519956775,401.2024248707829, 458.4957959886046,401.59766593944005, 458.2446967776415,401.9929070080972 C 457.42397369028504,401.39254543011526, 456.6032506029286,400.7921838521334, 455.78252751557216,400.1918222741515 C 453.98907352986464,400.4044271463849, 452.1956195441571,400.6170320186182, 450.4021655584496,400.8296368908516 C 451.0287049507999,400.6600535680758, 451.65524434315023,400.4904702453, 452.28178373550054,400.3208869225242 C 453.09071381548557,400.3762842635884, 453.89964389547066,400.4316816046526, 454.7085739754557,400.4870789457168 C 455.92184428917375,400.06282423368253, 457.13511460289186,399.6385695216483, 458.3483849166099,399.21431480961405 C 460.1672237524196,399.63185609941917, 461.98606258822923,400.0493973892242, 463.8049014240389,400.46693867902934 C 463.30569138568706,395.47483829551066, 462.8064813473352,390.48273791199205, 462.30727130898333,385.49063752847337 C 459.7069338981249,385.85459435699966, 457.10659648726636,386.21855118552594, 454.5062590764079,386.5825080140522 C 452.7469105154989,387.5512262208644, 450.9875619545898,388.51994442767665, 449.2282133936808,389.48866263448883 C 447.7978804641389,391.6703765134408, 446.367547534597,393.85209039239277, 444.93721460505515,396.0338042713447 C 444.45126370794554,398.85894164069856, 443.965312810836,401.68407901005236, 443.4793619137264,404.5092163794062 C 446.1144417766782,406.52275648448955, 448.74952163962996,408.5362965895728, 451.38460150258175,410.54983669465616 C 454.9231324585103,411.27669658753643, 458.4616634144388,412.0035564804167, 462.00019437036735,412.730416373297 C 464.0694026115735,410.7357878682521, 466.13861085277966,408.74115936320726, 468.2078190939858,406.7465308581624 C 469.40329023883527,403.8018449360219, 470.5987613836847,400.8571590138814, 471.79423252853417,397.91247309174094 C 471.96946627585197,395.50141480356854, 472.1447000231697,393.09035651539614, 472.3199337704875,390.67929822722374 C 472.2971910087203,388.4371076166412, 472.274448246953,386.1949170060586, 472.25170548518577,383.952726395476 C 472.1996532588211,381.64463990368085, 472.1476010324565,379.3365534118857, 472.09554880609187,377.0284669200905 C 471.74827616359823,374.84107399732045, 471.4010035211046,372.6536810745504, 471.05373087861096,370.4662881517803 C 470.5063986261707,367.97391996388063, 469.9590663737305,365.4815517759809, 469.41173412129024,362.98918358808123 C 468.9233560845509,361.0230446189144, 468.4349780478115,359.05690564974753, 467.9466000110722,357.0907666805807 C 467.1542656262396,354.77024393286786, 466.36193124140704,352.449721185155, 465.56959685657444,350.12919843744214 C 465.0518880562825,348.43254295143953, 464.53417925599064,346.735887465437, 464.0164704556987,345.03923197943436 C 462.77913688485086,342.97031804344016, 461.54180331400295,340.9014041074459, 460.3044697431551,338.8324901714517 C 459.31041291146005,336.845020280548, 458.316356079765,334.85755038964436, 457.32229924806995,332.87008049874066 C 456.2917551069436,330.71260657003603, 455.2612109658172,328.55513264133134, 454.23066682469084,326.3976587126267 C 452.9031354390442,324.74263759698016, 451.5756040533975,323.08761648133367, 450.2480726677509,321.4325953656871 C 448.2100241040757,320.2943901967338, 446.1719755404006,319.1561850277804, 444.13392697672543,318.01797985882706 C 443.1540757958923,316.5527507092004, 442.17422461505925,315.0875215595737, 441.1943734342261,313.622292409947 C 441.0931400947175,312.0722170994975, 440.99190675520884,310.52214178904796, 440.89067341570023,308.97206647859844 C 440.62958365401636,306.98259285055434, 440.3684938923324,304.9931192225103, 440.10740413064855,303.0036455944662 C 440.13330542836565,300.900620535428, 440.1592067260828,298.79759547638974, 440.1851080237999,296.69457041735154 C 432.16746524348946,296.69457041735154, 424.149822463179,297.22406262238405, 424.149822463179,297.75355482741656" fill="black" stroke="none" stroke-width="1"/>
  <path d="M 450.2271177420495,394.762734629678  C 446.61945477951963,391.7395213982662, 443.0117918169898,388.71630816685445, 439.40412885445994,385.6930949354427 C 435.5352660651326,384.39899676264884, 431.6664032758053,383.104898589855, 427.79754048647794,381.81080041706116 C 426.59234084141605,386.51047033058603, 425.3871411963542,391.2101402441109, 424.1819415512923,395.9098101576358 C 427.17721678930315,396.6749533930434, 430.1724920273139,397.44009662845093, 433.16776726532476,398.20523986385854 C 435.73782852739924,400.6733370543173, 438.3078897894738,403.141434244776, 440.8779510515483,405.60953143523477 C 445.5525343967989,405.60953143523477, 450.2271177420495,400.1861330324564, 450.2271177420495,394.762734629678" fill="black" stroke="none" stroke-width="1"/>
  <path d="M 456.6645500537096,411.81937474795245  C 458.32857050871695,413.3690143638244, 459.99259096372424,414.91865397969644, 461.6566114187316,416.4682935955684 C 461.59499307680994,418.23298070471304, 461.5333747348883,419.99766781385773, 461.47175639296665,421.76235492300236 C 461.6959057318032,423.6693465318473, 461.92005507063976,425.5763381406922, 462.1442044094763,427.4833297495371 C 462.24843328328865,429.4906216747702, 462.35266215710107,431.49791360000324, 462.4568910309134,433.5052055252363 C 462.5003912574756,435.47565302392695, 462.5438914840378,437.4461005226176, 462.58739171059995,439.41654802130824 C 462.1565270796037,441.12080984636276, 461.72566244860747,442.8250716714172, 461.2947978176112,444.52933349647174 C 460.7868697381023,446.5807053605694, 460.2789416585934,448.63207722466717, 459.7710135790845,450.68344908876486 C 459.0536572623308,452.55892331686147, 458.33630094557697,454.434397544958, 457.6189446288232,456.3098717730546 C 457.12243487942453,458.1627113750762, 456.62592513002585,460.0155509770978, 456.12941538062717,461.86839057911936 C 454.2142443251779,462.85007607442606, 452.29907326972864,463.83176156973275, 450.3839022142794,464.81344706503944 C 449.1597790092671,466.6339707952765, 447.93565580425485,468.45449452551355, 446.71153259924256,470.27501825575064 C 446.2315979829037,473.0893829007285, 445.75166336656486,475.90374754570627, 445.271728750226,478.7181121906841 C 450.2638291337446,479.21732222903603, 455.2559295172632,479.7165322673879, 460.24802990078183,480.2157423057398 C 459.76457952659086,478.6209307461704, 459.2811291523999,477.026119186601, 458.79767877820893,475.43130762703163 C 459.6123803884621,474.1930431787034, 460.4270819987153,472.9547787303752, 461.2417836089685,471.716514282047 C 462.9889801320839,471.1185992234226, 464.73617665519936,470.52068416479824, 466.48337317831476,469.92276910617386 C 467.75208218243233,467.3237152252274, 469.0207911865499,464.7246613442809, 470.28950019066747,462.1256074633344 C 471.74207533202053,459.5965800949106, 473.19465047337366,457.0675527264869, 474.6472256147267,454.5385253580631 C 475.12751768641266,452.1855039145402, 475.60780975809865,449.8324824710173, 476.0881018297846,447.4794610274944 C 476.6640011074852,445.4243452710943, 477.2399003851858,443.36922951469427, 477.81579966288643,441.3141137582942 C 477.90055034319744,438.921307297925, 477.98530102350844,436.5285008375558, 478.07005170381944,434.1356943771866 C 478.17297145308044,431.7384706833841, 478.2758912023414,429.3412469895816, 478.3788109516024,426.94402329577906 C 477.9139845385401,424.44652633752884, 477.4491581254777,421.94902937927867, 476.9843317124154,419.45153242102845 C 476.5004367941845,416.8117771883041, 476.0165418759536,414.17202195557985, 475.5326469577227,411.5322667228555 C 473.504305531586,409.363785342761, 471.47596410544935,407.1953039626664, 469.44762267931264,405.02682258257187 C 463.0560863665111,405.02682258257187, 456.6645500537096,408.42309866526216, 456.6645500537096,411.81937474795245" fill="black" stroke="none" stroke-width="1"/>
  <path d="M 456.8434876716444,465.8359269185921  C 455.2006444134157,464.81620685372684, 453.557801155187,463.79648678886156, 451.9149578969583,462.7767667239963 C 452.0301058930522,460.8127632902385, 452.14525388914615,458.8487598564806, 452.26040188524007,456.88475642272283 C 451.66176706017706,454.5487323124601, 451.0631322351141,452.21270820219735, 450.4644974100511,449.87668409193464 C 450.52712235974815,447.48309109288465, 450.58974730944516,445.0894980938347, 450.6523722591422,442.69590509478473 C 450.6684608118623,440.19501572048347, 450.6845493645823,437.69412634618226, 450.7006379173024,435.193236971881 C 445.20932749543186,435.193236971881, 439.7180170735614,435.193236971881, 434.22670665169085,435.193236971881 C 434.2427956133787,437.77180973781, 434.25888457506653,440.3503825037389, 434.2749735367544,442.9289552696679 C 434.33341307764454,445.6148244108503, 434.3918526185347,448.3006935520328, 434.45029215942486,450.9865626932152 C 435.2130905440012,453.7300007631983, 435.9758889285775,456.4734388331814, 436.73868731315383,459.21687690316446 C 437.6300051572816,462.331302500915, 438.52132300140926,465.4457280986656, 439.412640845537,468.56015369641614 C 441.81410375407864,470.56168743228375, 444.21556666262035,472.56322116815136, 446.617029571162,474.56475490401897 C 451.7302586214032,474.56475490401897, 456.8434876716444,470.20034091130555, 456.8434876716444,465.8359269185921" fill="black" stroke="none" stroke-width="1"/>
  <path d="M 433.5100106822764,316.16376191307427  C 430.67075834159726,317.50601053475265, 427.8315060009182,318.8482591564311, 424.99225366023904,320.19050777810946 C 422.56427912824506,322.9668652884265, 420.1363045962511,325.7432227987436, 417.7083300642571,328.51958030906064 C 416.56964041855883,331.9729387325461, 415.43095077286057,335.42629715603147, 414.2922611271623,338.8796555795169 C 419.3449258440422,339.9386399895819, 424.39759056092214,340.9976243996469, 429.45025527780206,342.05660880971186 C 429.59272209892225,339.56111995705214, 429.7351889200425,337.0656311043924, 429.8776557411627,334.5701422517327 C 431.12898442773843,332.93096755183404, 432.3803131143142,331.29179285193544, 433.63164180088995,329.6526181520368 C 435.441723013096,329.0037978108674, 437.2518042253021,328.354977469698, 439.0618854375082,327.7061571285286 C 436.2859480598923,327.7061571285286, 433.5100106822764,321.93495952080144, 433.5100106822764,316.16376191307427" fill="black" stroke="none" stroke-width="1"/>
  <path d="M 186.6524836387116,321.3705928455065  C 187.3304731391772,322.83292284399903, 188.00846263964277,324.2952528424915, 188.68645214010837,325.757582840984 C 190.90097266353672,327.2869560638335, 193.11549318696507,328.81632928668296, 195.33001371039342,330.34570250953243 C 195.59335335937664,331.4917336903546, 195.85669300835983,332.63776487117667, 196.12003265734305,333.7837960519988 C 196.82330503298806,335.6413514501494, 197.5265774086331,337.49890684829995, 198.22984978427812,339.3564622464505 C 198.5680966539103,341.8052994800972, 198.90634352354246,344.2541367137439, 199.24459039317463,346.70297394739055 C 199.46624192336031,348.37126910615916, 199.687893453546,350.0395642649278, 199.90954498373168,351.7078594236964 C 201.02282348664727,353.4418877398352, 202.13610198956286,355.1759160559739, 203.24938049247845,356.9099443721127 C 207.59605560264836,355.558529492054, 211.94273071281827,354.2071146119952, 216.2894058229882,352.8556997319365 C 215.30928893094625,351.34555986030415, 214.3291720389043,349.83541998867184, 213.34905514686236,348.3252801170395 C 212.8441190993168,346.15257217133563, 212.33918305177124,343.97986422563173, 211.8342470042257,341.8071562799279 C 211.571526355557,339.55420792228136, 211.30880570688834,337.3012595646349, 211.04608505821966,335.0483112069884 C 210.4168256836378,332.9523283205996, 209.78756630905593,330.85634543421077, 209.15830693447407,328.76036254782196 C 208.0563640740123,326.72120250519686, 206.9544212135505,324.68204246257176, 205.8524783530887,322.64288241994666 C 203.69106032558398,321.10830129387125, 201.5296422980792,319.57372016779584, 199.36822427057447,318.03913904172043 C 198.18546862342598,316.09379907951, 197.0027129762775,314.1484591172995, 195.819957329129,312.2031191550891 C 191.2362204839203,312.2031191550891, 186.6524836387116,316.7868560002978, 186.6524836387116,321.3705928455065" fill="black" stroke="none" stroke-width="1"/>
  <path d="M 210.29888536276582,358.78198201593216  C 212.75730723409433,358.54598355920274, 215.2157291054228,358.30998510247326, 217.67415097675132,358.07398664574384 C 220.34114525386445,357.3588205476048, 223.00813953097762,356.6436544494657, 225.67513380809075,355.9284883513267 C 227.84062220094003,354.0752904050098, 230.0061105937893,352.22209245869294, 232.17159898663857,350.3688945123761 C 233.7075106645816,348.2175873308203, 235.24342234252464,346.0662801492645, 236.77933402046767,343.91497296770876 C 238.11126347066886,342.70184395572534, 239.44319292087008,341.48871494374197, 240.77512237107126,340.27558593175854 C 242.7565521843881,339.22234219315914, 244.73798199770496,338.1690984545598, 246.7194118110218,337.1158547159604 C 247.56809728322986,335.2808426725065, 248.4167827554379,333.44583062905264, 249.26546822764595,331.61081858559874 C 249.39892062251292,329.5591470719554, 249.53237301737985,327.5074755583121, 249.66582541224682,325.45580404466875 C 250.68862340943875,325.0609028903562, 251.71142140663068,324.6660017360437, 252.7342194038226,324.27110058173116 C 253.1703401072496,324.26046400959115, 253.6064608106766,324.24982743745113, 254.04258151410357,324.2391908653111 C 254.90045278025016,325.45420408722117, 255.75832404639678,326.6692173091313, 256.61619531254337,327.88423053104134 C 257.35595876009074,329.6478945371105, 258.0957222076381,331.41155854317964, 258.8354856551855,333.1752225492488 C 259.474231734756,334.9627792003956, 260.11297781432654,336.7503358515423, 260.75172389389706,338.53789250268903 C 261.9773292423251,340.16021955819866, 263.20293459075316,341.78254661370823, 264.4285399391812,343.40487366921786 C 264.8247658349449,344.80888270377926, 265.2209917307087,346.2128917383407, 265.61721762647244,347.6169007729021 C 266.1307191938632,349.6952847014117, 266.6442207612539,351.77366862992125, 267.15772232864464,353.85205255843084 C 267.55799861657175,355.2700533088029, 267.9582749044989,356.68805405917504, 268.35855119242603,358.1060548095471 C 269.03461756558784,359.78803419233765, 269.71068393874964,361.4700135751281, 270.38675031191144,363.15199295791865 C 270.2781899539701,364.84567178009394, 270.1696295960288,366.53935060226917, 270.0610692380875,368.23302942444445 C 270.22703226245204,369.983310857159, 270.39299528681653,371.73359228987357, 270.5589583111811,373.4838737225881 C 270.0988438302012,375.30090069421766, 269.63872934922125,377.11792766584716, 269.17861486824137,378.9349546374767 C 268.42839749374264,380.1531447471522, 267.67818011924396,381.3713348568278, 266.92796274474523,382.5895249665033 C 266.47377362653856,384.09399466007585, 266.01958450833195,385.5984643536484, 265.5653953901253,387.10293404722097 C 264.3941721148933,388.3970895438599, 263.22294883966134,389.69124504049887, 262.0517255644294,390.9854005371378 C 260.56513702651995,391.74660713147773, 259.0785484886105,392.50781372581764, 257.5919599507011,393.26902032015755 C 257.1159490274376,395.74528164367166, 256.6399381041741,398.22154296718577, 256.1639271809106,400.6978042906999 C 255.37017909755235,403.03752478395876, 254.5764310141941,405.3772452772177, 253.78268293083585,407.7169657704766 C 253.42483078896177,409.962143444897, 253.0669786470877,412.20732111931744, 252.70912650521362,414.45249879373785 C 252.29617540904744,416.27346160021824, 251.88322431288123,418.0944244066987, 251.47027321671504,419.9153872131791 C 251.29825591839744,422.2623485884778, 251.12623862007982,424.6093099637765, 250.95422132176222,426.9562713390752 C 251.26003563237148,428.7126675689154, 251.56584994298072,430.4690637987555, 251.87166425358998,432.22546002859565 C 252.23763376679207,433.8079168843789, 252.60360327999416,435.39037374016226, 252.96957279319625,436.97283059594554 C 252.12420213751858,437.94355684614476, 251.2788314818409,438.9142830963439, 250.43346082616324,439.88500934654314 C 248.70765377186785,440.77015082834714, 246.98184671757244,441.65529231015114, 245.25603966327705,442.54043379195514 C 244.22189212525183,444.5109354065449, 243.18774458722663,446.4814370211346, 242.1535970492014,448.45193863572433 C 241.29136829365981,450.8136139222948, 240.42913953811825,453.1752892088653, 239.56691078257666,455.53696449543577 C 244.41279593109846,456.3891693371426, 249.25868107962023,457.2413741788495, 254.10456622814203,458.0935790205564 C 254.00557693062441,456.8944377344518, 253.90658763310682,455.6952964483472, 253.8075983355892,454.49615516224264 C 254.31387334300175,452.9724130052572, 254.8201483504143,451.4486708482717, 255.32642335782685,449.92492869128625 C 257.1368045758593,448.94213213805784, 258.9471857938917,447.9593355848295, 260.75756701192415,446.9765390316011 C 262.0848271665945,445.4157416469923, 263.4120873212648,443.85494426238347, 264.7393474759351,442.29414687777466 C 265.32976646394616,439.65800806719443, 265.9201854519572,437.02186925661414, 266.51060443996823,434.3857304460339 C 266.81645382243676,431.9092440770477, 267.1223032049053,429.43275770806144, 267.4281525873738,426.9562713390752 C 267.2560131702721,425.07022610413037, 267.0838737531705,423.1841808691855, 266.91173433606883,421.2981356342407 C 267.25487622998406,419.64585535966654, 267.59801812389924,417.99357508509235, 267.94116001781447,416.3412948105182 C 268.2237181858829,414.28050614776885, 268.50627635395125,412.2197174850195, 268.78883452201967,410.1589288222701 C 269.1331962088175,408.2657194264192, 269.4775578956153,406.37251003056826, 269.8219195824131,404.47930063471733 C 269.5192662681665,402.684922165884, 269.21661295392,400.8905436970507, 268.9139596396734,399.0961652282174 C 270.21083296322166,398.40791584500033, 271.50770628677,397.71966646178333, 272.8045796103182,397.0314170785663 C 273.68410634572285,396.13708959641843, 274.5636330811274,395.24276211427065, 275.44315981653205,394.3484346321228 C 276.5556692364707,392.29786577759984, 277.6681786564093,390.2472969230768, 278.78068807634793,388.19672806855385 C 279.9728459531069,386.652183769115, 281.1650038298659,385.1076394696762, 282.3571617066249,383.5630951702374 C 283.25444494673246,381.07334006395257, 284.1517281868401,378.5835849576678, 285.0490114269477,376.093829851383 C 285.1618999049836,373.6112069115409, 285.27478838301954,371.12858397169873, 285.38767686105547,368.6459610318566 C 285.27910755565387,366.10675435575126, 285.1705382502522,363.56754767964594, 285.0619689448506,361.0283410035406 C 284.3101455454424,359.16596685807303, 283.55832214603424,357.30359271260545, 282.80649874662606,355.44121856713787 C 281.810830185779,353.315931040983, 280.815161624932,351.1906435148281, 279.81949306408495,349.0653559886732 C 279.3815516014201,347.17976571171147, 278.94361013875516,345.2941754347498, 278.5056686760903,343.408585157788 C 277.94548206871167,341.6055060093875, 277.3852954613331,339.80242686098705, 276.8251088539545,337.99934771258654 C 276.0426098461577,336.7434188350849, 275.26011083836084,335.48748995758325, 274.47761183056406,334.23156108008163 C 273.61918678809576,331.87724997270965, 272.76076174562746,329.5229388653377, 271.90233670315916,327.16862775796574 C 270.4972219946007,324.69774093937934, 269.09210728604216,322.226854120793, 267.6869925774837,319.7559673022066 C 264.97098295795007,317.60708277384504, 262.2549733384165,315.45819824548346, 259.5389637188829,313.3093137171219 C 256.40875640775926,313.34132325937145, 253.27854909663557,313.3733328016211, 250.14834178551192,313.40534234387064 C 246.89946996693143,314.85563244525287, 243.65059814835092,316.30592254663514, 240.40172632977044,317.75621264801737 C 239.65391843706496,319.92784703251675, 238.90611054435948,322.09948141701614, 238.158302651654,324.2711158015155 C 237.65748782066586,325.98265047296314, 237.15667298967776,327.6941851444108, 236.65585815868963,329.40571981585845 C 235.09281656071033,329.81838707983144, 233.529774962731,330.2310543438045, 231.96673336475172,330.6437216077775 C 230.52918168827915,331.64615431052226, 229.09163001180656,332.648587013267, 227.654078335334,333.6510197160118 C 226.21890271366001,335.7122929804816, 224.783727091986,337.77356624495144, 223.34855147031203,339.8348395094213 C 221.97275082417283,341.0793355961206, 220.5969501780336,342.3238316828199, 219.2211495318944,343.5683277695192 C 217.66852757948877,343.5299938581511, 216.1159056270831,343.491659946783, 214.56328367467745,343.4533260354149 C 212.78882276735192,343.21778284204703, 211.01436186002636,342.9822396486791, 209.23990095270082,342.7466964553113 C 209.7693931577333,342.7466964553113, 210.29888536276582,350.7643392356217, 210.29888536276582,358.78198201593216" fill="black" stroke="none" stroke-width="1"/>
  <path d="M 254.56706487479877,441.7829985776607  C 252.28186450226315,439.13075253112487, 249.99666412972752,436.4785064845891, 247.7114637571919,433.8262604380533 C 247.2733401049175,431.52647616973917, 246.83521645264312,429.226691901425, 246.39709280036874,426.9269076331109 C 241.19821284849195,427.6328972398209, 235.99933289661516,428.3388868465309, 230.80045294473837,429.04487645324093 C 231.75010913326247,432.5796095081642, 232.69976532178657,436.1143425630875, 233.64942151031067,439.6490756180108 C 236.1541655215809,442.83134689471245, 238.65890953285114,446.01361817141407, 241.16365354412136,449.19588944811574 C 247.86535920946005,449.19588944811574, 254.56706487479877,445.4894440128882, 254.56706487479877,441.7829985776607" fill="black" stroke="none" stroke-width="1"/>
  <path d="M 264.92751009203266,387.8976781416235  C 262.2014804481092,387.04548846459727, 259.47545080418564,386.19329878757105, 256.74942116026216,385.34110911054483 C 254.35350838724875,383.9548646271415, 251.95759561423532,382.5686201437381, 249.5616828412219,381.18237566033474 C 246.80382541363332,379.59380583828175, 244.04596798604476,378.0052360162288, 241.28811055845617,376.41666619417583 C 238.51870855861944,375.9789721252586, 235.74930655878273,375.54127805634135, 232.979904558946,375.10358398742414 C 231.920920148881,380.1562487043041, 230.861935738816,385.20891342118404, 229.802951328751,390.261578138064 C 232.5248597507848,390.5102978718806, 235.24676817281858,390.75901760569724, 237.96867659485238,391.0077373395138 C 240.0157157864005,392.16482272839613, 242.06275497794863,393.3219081172784, 244.10979416949675,394.4789935061607 C 246.51877801562006,395.8384042336926, 248.92776186174336,397.1978149612245, 251.33674570786667,398.5572256887564 C 254.10202648581367,399.7642774199316, 256.86730726376067,400.9713291511068, 259.63258804170766,402.178380882282 C 262.28004906687016,402.178380882282, 264.92751009203266,395.03802951195274, 264.92751009203266,387.8976781416235" fill="black" stroke="none" stroke-width="1"/>
  <path d="M 187.21133954970838,316.6932541181069  C 185.5150116704741,317.3781741736694, 183.8186837912398,318.0630942292318, 182.12235591200553,318.7480142847943 C 180.16812936785834,320.367051588739, 178.21390282371118,321.98608889268365, 176.259676279564,323.60512619662836 C 174.5049602717103,325.1755703642586, 172.75024426385664,326.7460145318889, 170.99552825600296,328.3164586995191 C 170.04574736016332,330.4721691777508, 169.0959664643237,332.62787965598255, 168.14618556848407,334.78359013421425 C 167.61933177426192,336.73177007621535, 167.09247798003977,338.6799500182165, 166.56562418581763,340.6281299602176 C 164.65013544510222,342.1126936460875, 162.7346467043868,343.59725733195745, 160.8191579636714,345.08182101782734 C 160.31944056192148,347.4684913034037, 159.81972316017155,349.85516158898, 159.32000575842164,352.2418318745564 C 159.01441762282218,354.7457454206207, 158.70882948722274,357.249658966685, 158.40324135162328,359.7535725127493 C 158.5894856910279,361.6779797244876, 158.77573003043253,363.6023869362259, 158.96197436983715,365.5267941479642 C 158.67563067225146,367.61375346347035, 158.3892869746658,369.70071277897654, 158.1029432770801,371.7876720944827 C 157.34119345828194,373.6492957031379, 156.5794436394838,375.51091931179315, 155.81769382068563,377.3725429204484 C 155.59063874366706,380.0521659434421, 155.36358366664845,382.73178896643583, 155.13652858962988,385.41141198942955 C 155.73462408666515,388.3408562766528, 156.33271958370045,391.2703005638761, 156.93081508073573,394.19974485109935 C 158.87475088677505,395.71983029413633, 160.81868669281434,397.23991573717336, 162.76262249885366,398.76000118021034 C 164.31604737098743,399.6448224427154, 165.86947224312124,400.52964370522045, 167.422897115255,401.4144649677255 C 167.27175680762633,403.194045686798, 167.12061649999765,404.97362640587045, 166.96947619236897,406.75320712494295 C 167.48142746425023,408.9307033727704, 167.99337873613146,411.1081996205978, 168.50533000801272,413.28569586842525 C 170.03733305784363,415.373194863466, 171.56933610767456,417.4606938585067, 173.10133915750546,419.54819285354745 C 174.6440489593201,420.8861037536879, 176.1867587611347,422.2240146538284, 177.72946856294934,423.5619255539689 C 178.5335133193249,425.3844338495471, 179.33755807570043,427.20694214512537, 180.141602832076,429.0294504407036 C 181.56105368152072,430.52106608275307, 182.98050453096545,432.01268172480246, 184.39995538041018,433.5042973668519 C 185.3986060224027,435.59474211819884, 186.39725666439523,437.68518686954576, 187.39590730638776,439.7756316208927 C 189.2571861551583,440.6909388464467, 191.1184650039289,441.60624607200083, 192.97974385269944,442.5215532975549 C 194.46998919108202,443.95628101804766, 195.9602345294646,445.39100873854045, 197.45047986784718,446.82573645903324 C 197.40754689805982,448.4081800767374, 197.36461392827243,449.9906236944415, 197.32168095848508,451.57306731214567 C 197.47942576300287,453.463130207946, 197.63717056752068,455.3531931037464, 197.79491537203847,457.2432559995467 C 198.20855708797242,459.5477754860305, 198.62219880390637,461.85229497251436, 199.03584051984032,464.15681445899816 C 199.81725975682954,466.53410598177703, 200.59867899381877,468.91139750455585, 201.380098230808,471.2886890273347 C 206.28654771269106,469.8767098139148, 211.19299719457413,468.4647306004948, 216.0994466764572,467.05275138707486 C 215.51042832045866,465.13995664276723, 214.92140996446008,463.22716189845966, 214.33239160846153,461.314367154152 C 214.05094377355184,459.32880037287117, 213.76949593864217,457.3432335915904, 213.48804810373247,455.3576668103095 C 212.9576562025847,452.95764166792685, 212.42726430143696,450.5576165255442, 211.8968724002892,448.1575913831615 C 211.17553426632972,445.4499505055544, 210.45419613237024,442.7423096279473, 209.73285799841076,440.0346687503402 C 207.61939528163308,437.8714685286873, 205.50593256485539,435.70826830703436, 203.3924698480777,433.54506808538144 C 201.23767176870203,432.29143695603136, 199.08287368932633,431.0378058266813, 196.92807560995067,429.7841746973312 C 195.99368572045273,428.22390427755494, 195.0592958309548,426.6636338577786, 194.12490594145686,425.10336343800236 C 192.7417338564899,423.65711209901616, 191.35856177152291,422.21086076003, 189.97538968655596,420.7646094210438 C 189.27065285912565,419.1374534879956, 188.56591603169534,417.51029755494733, 187.86117920426503,415.8831416218991 C 186.7067426928948,414.8347768150988, 185.55230618152456,413.78641200829856, 184.39786967015434,412.73804720149826 C 183.42753104120067,411.22593886553176, 182.45719241224703,409.7138305295653, 181.48685378329336,408.2017221935988 C 181.15652280087792,406.0864896533244, 180.8261918184625,403.97125711305, 180.49586083604706,401.8560245727756 C 179.71502333139668,399.343431628107, 178.9341858267463,396.83083868343846, 178.15334832209592,394.31824573876986 C 176.55987444058349,393.2990355802626, 174.96640055907108,392.2798254217554, 173.37292667755864,391.26061526324816 C 171.51388682208776,390.22792142835516, 169.65484696661684,389.1952275934622, 167.79580711114596,388.1625337585692 C 168.4229223902874,386.79910015653337, 169.05003766942883,385.43566655449746, 169.67715294857027,384.0722329524616 C 170.1384661808465,382.46158003375155, 170.59977941312277,380.85092711504154, 171.06109264539901,379.2402741963315 C 171.74378566610616,377.5673865242951, 172.4264786868133,375.8944988522587, 173.10917170752046,374.22161118022234 C 173.47248253022622,371.9495263376111, 173.83579335293197,369.67744149499987, 174.19910417563773,367.4053566523886 C 174.34853805688604,365.0396639790281, 174.49797193813433,362.6739713056676, 174.64740581938264,360.30827863230706 C 174.34161700868245,358.5220912453196, 174.03582819798228,356.73590385833216, 173.7300393872821,354.9497164713447 C 173.9302049847954,352.97203605093455, 174.13037058230876,350.9943556305244, 174.33053617982208,349.0166752101143 C 175.7243683384187,348.38395688049053, 177.11820049701532,347.75123855086673, 178.51203265561196,347.118520221243 C 178.78107225705196,345.4237439603659, 179.05011185849196,343.7289676994888, 179.31915145993196,342.03419143861174 C 180.39874524073093,339.8603752815899, 181.47833902152988,337.686559124568, 182.55793280232885,335.51274296754616 C 183.85838368522624,334.2305865186043, 185.1588345681236,332.9484300696625, 186.459285451021,331.66627362072063 C 187.5178685853297,330.88949906148974, 188.57645171963838,330.1127245022588, 189.63503485394708,329.3359499430279 C 190.8239765726083,328.6161882698506, 192.01291829126956,327.8964265966733, 193.20186000993078,327.176664923496 C 190.20659977981958,327.176664923496, 187.21133954970838,321.93495952080144, 187.21133954970838,316.6932541181069" fill="black" stroke="none" stroke-width="1"/>
  <path d="M 173.70054942609468,400.52842147310696  C 175.4423827836282,399.6410750205851, 177.18421614116176,398.7537285680633, 178.92604949869528,397.86638211554146 C 181.39617392820793,397.7527847552263, 183.86629835772055,397.6391873949112, 186.3364227872332,397.525590034596 C 188.69778622226693,396.57380616545623, 191.05914965730065,395.6220222963165, 193.42051309233437,394.67023842717674 C 194.97782483933545,393.92253798773174, 196.5351365863365,393.17483754828675, 198.0924483333376,392.42713710884175 C 200.09223136629078,393.07811172405013, 202.092014399244,393.7290863392585, 204.09179743219718,394.3800609544669 C 204.44479223555217,389.327396237587, 204.7977870389072,384.27473152070706, 205.15078184226218,379.22206680382715 C 202.2089803693126,379.08293432050743, 199.26717889636305,378.9438018371877, 196.32537742341347,378.804669353868 C 194.39190353132068,379.55554203263006, 192.4584296392279,380.30641471139216, 190.5249557471351,381.0572873901542 C 187.86497241932273,381.88430261388135, 185.20498909151033,382.7113178376085, 182.54500576369796,383.5383330613356 C 180.07416908224124,383.7002730599792, 177.60333240078452,383.8622130586229, 175.1324957193278,384.0241530572665 C 173.30376540819137,385.1789007523767, 171.4750350970549,386.33364844748695, 169.64630478591846,387.48839614259714 C 171.67342710600656,387.48839614259714, 173.70054942609468,394.00840880785205, 173.70054942609468,400.52842147310696" fill="black" stroke="none" stroke-width="1"/>
</svg>
