<?xml version="1.0" encoding="utf-8" ?>
<svg xmlns="http://www.w3.org/2000/svg" xmlns:ev="http://www.w3.org/2001/xml-events" xmlns:xlink="http://www.w3.org/1999/xlink" baseProfile="tiny" height="600" version="1.2" width="600">
  <defs/>
  <path d="M 311.2743778761488,44.0  C 310.40186283183954,50.26312078395829, 309.52934778753036,56.52624156791659, 308.6568327432211,62.789362351874885 C 306.84493777128324,68.03718691122756, 305.03304279934537,73.28501147058026, 303.2211478274075,78.53283602993294 C 300.0741750127564,84.2721698863259, 296.92720219810536,90.01150374271884, 293.7802293834543,95.7508375991118 C 291.90302483880436,101.76455480340155, 290.02582029415447,107.77827200769129, 288.14861574950453,113.79198921198103 C 285.0471314006557,119.53355727878527, 281.94564705180693,125.27512534558952, 278.8441627029581,131.01669341239375 C 276.57621580347717,137.09731051535206, 274.3082689039962,143.1779276183104, 272.04032200451525,149.25854472126872 C 269.72865908489155,155.86622125158885, 267.4169961652678,162.473897781909, 265.1053332456441,169.08157431222912 C 263.2927595733133,175.1653714792561, 261.4801859009825,181.24916864628307, 259.6676122286517,187.33296581331004 C 259.0122236193202,194.18820035135298, 258.35683500998874,201.04343488939588, 257.70144640065723,207.89866942743882 C 258.04231222746466,214.6040619641743, 258.3831780542721,221.30945450090974, 258.7240438810795,228.0148470376452 C 259.7978410172387,234.69880241624992, 260.87163815339784,241.38275779485463, 261.945435289557,248.06671317345933 C 263.5232204647525,254.84037169343796, 265.1010056399481,261.6140302134166, 266.6787908151436,268.3876887333952 C 269.24679779432216,274.3668783717696, 271.8148047735008,280.34606801014405, 274.38281175267934,286.32525764851846 C 277.0162615330753,290.1732982946618, 279.64971131347124,294.0213389408051, 282.2831610938672,297.8693795869484 C 282.55391320306376,303.2055830302052, 282.8246653122604,308.5417864734621, 283.09541742145694,313.8779899167189 C 280.88124405507455,316.14459621508604, 278.6670706886922,318.41120251345313, 276.4528973223098,320.6778088118203 C 271.8971657405167,325.93321599166063, 267.3414341587236,331.1886231715009, 262.7857025769305,336.44403035134127 C 260.2240397313413,341.42708589588636, 257.66237688575217,346.4101414404314, 255.10071404016298,351.3931969849765 C 252.69136588783482,356.9414763729322, 250.28201773550668,362.48975576088793, 247.87266958317852,368.0380351488436 C 245.458472780041,373.9805905473527, 243.04427597690346,379.9231459458617, 240.63007917376595,385.86570134437073 C 238.7224431224607,391.5862519881111, 236.81480707115549,397.3068026318515, 234.90717101985024,403.02735327559185 C 232.55805175016104,409.2088378756872, 230.20893248047184,415.3903224757826, 227.85981321078265,421.571807075878 C 226.2028695263736,428.14743459035265, 224.5459258419646,434.72306210482736, 222.88898215755555,441.298689619302 C 221.24669822880134,447.23440791790745, 219.60441430004715,453.1701262165129, 217.96213037129294,459.10584451511835 C 216.28612715633037,465.8149276570788, 214.61012394136782,472.5240107990393, 212.93412072640524,479.2330939409997 C 211.51053320296188,485.48634140823447, 210.08694567951852,491.73958887546917, 208.66335815607516,497.9928363427039 C 208.08547822258896,504.45798225709945, 207.5075982891028,510.923128171495, 206.9297183556166,517.3882740858905 C 205.92154177888193,523.7372392967637, 204.91336520214725,530.0862045076368, 203.9051886254126,536.43516971851 C 202.92144099038302,542.95677981234, 201.93769335535342,549.47838990617, 200.95394572032384,556.0 C 207.53341325558097,556.0, 214.11288079083806,556.0, 220.69234832609519,556.0 C 221.1880214144253,550.2136206158008, 221.68369450275537,544.4272412316017, 222.17936759108548,538.6408618474024 C 223.4094756971831,532.1994166709944, 224.6395838032807,525.7579714945864, 225.8696919093783,519.3165263181784 C 226.45974678167303,512.8212555810812, 227.04980165396773,506.325984843984, 227.63985652626246,499.8307141068868 C 228.7293580701195,493.9414443409622, 229.81885961397657,488.05217457503767, 230.9083611578336,482.1629048091131 C 232.38486238173513,475.9161033882935, 233.86136360563663,469.6693019674739, 235.33786482953815,463.4225005466543 C 237.0989339982591,457.22026601262775, 238.86000316698005,451.01803147860113, 240.621072335701,444.8157969445746 C 242.38220346680993,438.4309793550838, 244.14333459791885,432.04616176559307, 245.90446572902778,425.6613441761023 C 247.5963736475213,419.7358648220562, 249.28828156601477,413.81038546801017, 250.9801894845083,407.88490611396406 C 253.0383185908595,402.2589745974149, 255.0964476972107,396.6330430808658, 257.1545768035619,391.00711156431663 C 259.4626185090947,385.3063021422815, 261.7706602146275,379.6054927202464, 264.0787019201603,373.90468329821124 C 266.0265729789544,368.4431562826445, 267.9744440377484,362.9816292670778, 269.9223150965425,357.52010225151105 C 272.4089219068717,352.85760997179375, 274.8955287172008,348.1951176920764, 277.38213552753,343.5326254123591 C 280.04717869992425,339.7861695000914, 282.71222187231854,336.0397135878237, 285.3772650447128,332.293257675556 C 289.89192124435755,327.5055566398383, 294.4065774440023,322.7178556041206, 298.9212336436471,317.9301545684029 C 299.1933933532678,310.30730284347925, 299.46555306288855,302.68445111855567, 299.73771277250927,295.06159939363204 C 295.7175453801349,289.2227163837744, 291.69737798776043,283.38383337391673, 287.67721059538604,277.5449503640591 C 286.2691883374712,272.9844406818374, 284.86116607955626,268.4239309996156, 283.4531438216414,263.8634213173939 C 282.5079102321872,257.7395136401782, 281.5626766427331,251.61560596296252, 280.6174430532789,245.49169828574685 C 279.7123650856122,239.2152370110107, 278.8072871179454,232.93877573627452, 277.9022091502787,226.66231446153836 C 277.748360305995,220.4072903447772, 277.5945114617113,214.1522662280161, 277.4406626174276,207.89724211125494 C 277.60257166081357,201.78977767694374, 277.76448070419957,195.68231324263255, 277.9263897475855,189.57484880832135 C 279.38805519927,184.33057288857378, 280.84972065095445,179.0862969688262, 282.31138610263895,173.84202104907862 C 284.5198071461799,167.5040941849456, 286.72822818972094,161.16616732081255, 288.9366492332619,154.8282404566795 C 291.15827347273,148.77085977610446, 293.3798977121981,142.7134790955294, 295.6015219516662,136.65609841495436 C 298.2988967349726,131.08078780937964, 300.9962715182789,125.50547720380493, 303.69364630158526,119.93016659823022 C 305.842693787992,113.80723217995401, 307.9917412743987,107.68429776167781, 310.14078876080544,101.56136334340161 C 312.9583258433189,96.06918936477273, 315.7758629258323,90.57701538614383, 318.5934000083458,85.08484140751494 C 320.96357203157976,78.93872425435809, 323.3337440548137,72.79260710120123, 325.70391607804765,66.64648994804438 C 327.1231591051906,59.94354834914056, 328.5424021323335,53.24060675023675, 329.96164515947646,46.53766515133294 C 320.61801151781265,46.53766515133294, 311.2743778761488,45.268832575666465, 311.2743778761488,44.0" fill="black" stroke="none" stroke-width="1"/>
  <path d="M 287.2775760959618,328.36735096940805  C 288.6084011203471,329.7965029045646, 289.9392261447323,331.2256548397211, 291.27005116911755,332.6548067748776 C 292.4896937480489,333.2446756157115, 293.70933632698024,333.83454445654536, 294.9289789059116,334.42441329737926 C 295.64553144816864,334.87827264986356, 296.36208399042573,335.33213200234786, 297.07863653268276,335.78599135483216 C 298.2067433650755,337.20791509506086, 299.3348501974683,338.62983883528955, 300.46295702986106,340.05176257551824 C 301.01863814015394,341.0037295565035, 301.5743192504468,341.95569653748873, 302.1300003607397,342.907663518474 C 302.4176780894279,344.41708334555346, 302.7053558181161,345.9265031726329, 302.9930335468043,347.4359229997124 C 303.7313926725383,348.9468932779215, 304.4697517982722,350.45786355613063, 305.2081109240062,351.96883383433976 C 306.1606386080196,353.18573869279703, 307.11316629203304,354.40264355125424, 308.0656939760465,355.6195484097115 C 308.94219089119105,357.16515485588246, 309.8186878063356,358.71076130205336, 310.6951847214802,360.2563677482243 C 311.36601027364094,361.89131043823596, 312.03683582580175,363.52625312824756, 312.7076613779625,365.1611958182592 C 313.5847022251969,366.4151596300488, 314.4617430724314,367.6691234418383, 315.3387839196658,368.92308725362784 C 316.3254628806515,370.4801903530451, 317.3121418416372,372.0372934524624, 318.2988208026229,373.59439655187964 C 319.41836808881277,375.11538192019805, 320.53791537500257,376.6363672885165, 321.6574626611924,378.1573526568349 C 322.7858250864785,379.8163508583453, 323.91418751176457,381.47534905985566, 325.04254993705064,383.13434726136603 C 325.8027253468583,384.59243498445545, 326.562900756666,386.05052270754487, 327.3230761664737,387.5086104306343 C 328.3889380583092,389.0336398037636, 329.45479995014466,390.558669176893, 330.52066184198014,392.0836985500223 C 331.80922140361,393.54967510905766, 333.0977809652399,395.015651668093, 334.3863405268698,396.4816282271284 C 334.87296982147126,397.8728076256409, 335.3595991160728,399.2639870241534, 335.84622841067426,400.6551664226659 C 336.87746458038333,402.2053110078822, 337.90870075009246,403.75545559309853, 338.93993691980154,405.3056001783148 C 339.3018777821514,406.4434328408533, 339.6638186445013,407.5812655033917, 340.02575950685116,408.7190981659302 C 340.6978199966276,409.9059706961854, 341.36988048640404,411.09284322644066, 342.04194097618046,412.2797157566959 C 342.7570026471721,413.415395965243, 343.47206431816375,414.5510761737901, 344.1871259891554,415.6867563823372 C 345.06605494235794,417.3771345386191, 345.94498389556054,419.0675126949009, 346.8239128487631,420.7578908511828 C 347.27359904513156,422.42640081672073, 347.7232852415001,424.09491078225864, 348.17297143786857,425.76342074779654 C 349.3229118384293,426.46502384642463, 350.47285223899,427.1666269450527, 351.62279263955077,427.8682300436808 C 352.5468062369772,429.450239701265, 353.4708198344036,431.0322493588491, 354.39483343183,432.6142590164333 C 355.20940739305007,433.90401291804613, 356.0239813542702,435.19376681965895, 356.8385553154902,436.48352072127176 C 357.21825669714065,437.64667384614637, 357.5979580787911,438.8098269710209, 357.97765946044154,439.97298009589554 C 359.3082682924402,441.6497755196463, 360.6388771244388,443.3265709433971, 361.96948595643744,445.00336636714786 C 366.476740565066,441.6923785831115, 370.9839951736945,438.38139079907523, 375.49124978232305,435.0704030150389 C 374.4400188777155,433.64718972831315, 373.38878797310787,432.22397644158735, 372.3375570685003,430.8007631548616 C 371.8945872232488,429.6514942235611, 371.45161737799725,428.5022252922606, 371.0086475327457,427.3529563609601 C 370.15876605551205,426.3186648535812, 369.30888457827837,425.28437334620236, 368.4590031010447,424.25008183882346 C 367.60306275644643,422.8465953976442, 366.7471224118482,421.443108956465, 365.89118206724993,420.0396225152857 C 364.6645913307404,419.13639262382435, 363.4380005942308,418.2331627323629, 362.21140985772126,417.32993284090156 C 361.86039819565775,415.8963326906982, 361.5093865335943,414.4627325404949, 361.1583748715308,413.0291323902916 C 360.35160800354834,411.51615629454915, 359.5448411355659,410.0031801988068, 358.73807426758344,408.49020410306434 C 358.3634867265258,407.6826185837561, 357.9888991854682,406.8750330644479, 357.6143116444106,406.06744754513966 C 356.84521068179873,404.6933569464809, 356.07610971918683,403.3192663478222, 355.307008756575,401.9451757491634 C 354.9313686348361,400.79145446810793, 354.5557285130972,399.63773318705245, 354.1800883913583,398.48401190599697 C 353.4667674676652,396.904169027094, 352.75344654397213,395.324326148191, 352.040125620279,393.744483269288 C 351.4622102385339,392.0158373145524, 350.88429485678876,390.28719135981675, 350.3063794750436,388.55854540508113 C 349.11378314215597,386.9049447010963, 347.9211868092683,385.2513439971116, 346.72859047638065,383.59774329312677 C 345.6390785416817,382.0031975299984, 344.54956660698286,380.4086517668699, 343.46005467228395,378.81410600374153 C 342.6156940199557,377.15261860188104, 341.77133336762745,375.4911312000206, 340.9269727152992,373.82964379816013 C 339.8999931483463,372.36906671110415, 338.87301358139337,370.9084896240482, 337.8460340144405,369.4479125369922 C 336.4902018064753,367.84929300557053, 335.13436959851003,366.2506734741489, 333.77853739054484,364.65205394272726 C 332.78932504103085,363.0860979468493, 331.8001126915168,361.52014195097127, 330.8109003420028,359.9541859550933 C 330.0270707923848,358.94631068781274, 329.2432412427668,357.93843542053224, 328.4594116931488,356.9305601532517 C 327.6625236068272,355.41367838184647, 326.86563552050563,353.8967966104412, 326.06874743418405,352.37991483903596 C 325.1766500712592,350.8000782671942, 324.2845527083344,349.2202416953524, 323.39245534540953,347.6404051235106 C 322.65912539431196,346.6531347294853, 321.92579544321444,345.66586433546007, 321.19246549211687,344.67859394143477 C 320.25339510740173,342.98381505895725, 319.3143247226866,341.2890361764797, 318.37525433797146,339.5942572940022 C 317.86182907341214,337.985002898323, 317.3484038088529,336.37574850264383, 316.83497854429356,334.7664941069646 C 315.78880301055614,333.44891905813824, 314.74262747681877,332.1313440093119, 313.69645194308134,330.8137689604855 C 312.3772149058757,328.9921280234195, 311.05797786867004,327.1704870863535, 309.7387408314644,325.3488461492875 C 308.73132145915474,324.4646638609263, 307.72390208684516,323.5804815725651, 306.7164827145355,322.69629928420386 C 305.33507987344274,321.75596968248595, 303.95367703235,320.8156400807681, 302.57227419125724,319.8753104790502 C 300.78502927686174,318.1987360338743, 298.9977843624663,316.5221615886984, 297.2105394480708,314.8455871435225 C 292.2440577720163,314.8455871435225, 287.2775760959618,321.60646905646524, 287.2775760959618,328.36735096940805" fill="black" stroke="none" stroke-width="1"/>
  <path d="M 363.34716715871537,428.14898312170834  C 363.84938460527763,428.15036288899455, 364.35160205183996,428.15174265628076, 364.85381949840223,428.15312242356697 C 364.90767506269015,427.9888888494102, 364.9615306269781,427.82465527525346, 365.01538619126603,427.6604217010967 C 364.9042602789502,427.46927562500707, 364.7931343666343,427.2781295489175, 364.68200845431846,427.08698347282785 C 364.6890305105074,427.00744767648064, 364.6960525666964,426.9279118801335, 364.7030746228853,426.84837608378626 C 364.95825677982435,426.91033581235666, 365.2134389367634,426.972295540927, 365.46862109370244,427.0342552694974 C 365.6899359549802,426.97550491159916, 365.9112508162581,426.91675455370086, 366.13256567753587,426.8580041958026 C 366.1632739233542,426.5589408791568, 366.1939821691726,426.259877562511, 366.22469041499096,425.9608142458652 C 366.33914419730183,425.72693035305895, 366.4535979796127,425.49304646025274, 366.5680517619236,425.2591625674465 C 366.87096471828227,425.2298057040493, 367.17387767464095,425.20044884065203, 367.47679063099963,425.17109197725483 C 367.65385914962565,425.07396481614205, 367.83092766825166,424.97683765502927, 368.0079961868777,424.8797104939165 C 367.97115313405845,424.6320426325815, 367.9343100812392,424.3843747712464, 367.89746702841995,424.1367069099114 C 367.97294788935665,424.0125901543621, 368.04842875029334,423.88847339881283, 368.12390961123003,423.7643566432635 C 368.37553108704907,423.80179628240217, 368.62715256286805,423.8392359215409, 368.8787740386871,423.87667556067953 C 368.99412510537616,423.7776535409884, 369.10947617206523,423.67863152129723, 369.2248272387543,423.5796095016061 C 369.18517813301804,423.32869252662226, 369.1455290272817,423.07777555163847, 369.10587992154547,422.8268585766546 C 369.2233412148435,422.7255199852954, 369.3408025081416,422.6241813939363, 369.45826380143967,422.5228428025771 C 369.7103748442169,422.55974500325294, 369.9624858869941,422.5966472039288, 370.21459692977135,422.63354940460465 C 370.28323964577595,422.5169394508101, 370.35188236178055,422.40032949701555, 370.42052507778516,422.283719543221 C 370.38282923090975,422.0369878650148, 370.3451333840344,421.7902561868086, 370.307437537159,421.5435245086024 C 370.51181294766235,421.41696361294623, 370.71618835816577,421.29040271729014, 370.9205637686691,421.163841821634 C 371.23322170837,421.1317330904066, 371.5458796480709,421.0996243591793, 371.8585375877718,421.06751562795193 C 371.88954893130546,420.9460268446818, 371.92056027483915,420.82453806141166, 371.9515716183728,420.7030492781415 C 371.85949141690526,420.5274022800235, 371.7674112154377,420.3517552819056, 371.67533101397015,420.1761082837876 C 371.8503574662437,420.07861886912184, 372.02538391851715,419.98112945445615, 372.2004103707907,419.8836400397904 C 372.5419862984794,419.8307686262856, 372.8835622261682,419.7778972127808, 373.2251381538569,419.72502579927595 C 373.4556198715618,419.62040586041235, 373.6861015892666,419.5157859215488, 373.9165833069715,419.4111659826852 C 374.0219295242165,419.2301587305967, 374.1272757414614,419.0491514785082, 374.2326219587064,418.8681442264197 C 374.29691789376847,418.6128372911423, 374.3612138288306,418.3575303558649, 374.4255097638927,418.1022234205875 C 374.5330014652213,417.7747482369809, 374.64049316654985,417.44727305337426, 374.7479848678784,417.11979786976764 C 370.736240202213,414.3043200286944, 366.7244955365476,411.4888421876211, 362.7127508708822,408.6733643465479 C 362.95740931348087,408.65982919510617, 363.20206775607954,408.6462940436645, 363.4467261986782,408.6327588922228 C 363.35597865541683,408.9246731941016, 363.26523111215545,409.2165874959805, 363.17448356889406,409.5085017978593 C 362.90990911469856,409.85805283971337, 362.645334660503,410.20760388156737, 362.3807602063075,410.5571549234214 C 362.10386354994455,410.7168088753577, 361.8269668935816,410.87646282729395, 361.5500702372186,411.0361167792302 C 361.3769834344516,410.92849357774935, 361.2038966316846,410.8208703762685, 361.03080982891754,410.7132471747876 C 360.9551718093166,410.7185977246696, 360.8795337897156,410.72394827455156, 360.80389577011465,410.72929882443356 C 360.77271714545805,411.034850838968, 360.74153852080144,411.3404028535024, 360.71035989614484,411.6459548680368 C 360.6131918574381,411.84042872353825, 360.51602381873136,412.03490257903974, 360.4188557800246,412.22937643454117 C 360.241390967463,412.13288254774216, 360.06392615490137,412.03638866094315, 359.88646134233977,411.93989477414414 C 359.80452260205834,411.947589490234, 359.7225838617769,411.9552842063239, 359.6406451214955,411.96297892241375 C 359.674545778137,412.2134005819723, 359.70844643477847,412.46382224153086, 359.74234709141996,412.7142439010894 C 359.6452539857189,412.8585222107409, 359.54816088001786,413.0028005203924, 359.4510677743168,413.1470788300439 C 359.2015560784041,413.1076507539461, 358.9520443824914,413.06822267784827, 358.7025326865787,413.02879460175046 C 358.5914097985206,413.1239602417021, 358.48028691046244,413.2191258816537, 358.36916402240433,413.31429152160536 C 358.4073384526142,413.56663733682234, 358.4455128828241,413.8189831520393, 358.483687313034,414.0713289672563 C 358.37001471351215,414.1687562432691, 358.25634211399023,414.2661835192819, 358.14266951446837,414.36361079529473 C 357.8925662922806,414.3247074127451, 357.6424630700928,414.28580403019544, 357.392359847905,414.2469006476458 C 357.30352902856214,414.3838501732208, 357.2146982092192,414.52079969879577, 357.1258673898763,414.6577492243708 C 357.160798447126,414.9072569016196, 357.1957295043757,415.1567645788683, 357.2306605616254,415.4062722561171 C 357.11589341219513,415.4427105170914, 357.0011262627649,415.47914877806573, 356.8863591133346,415.51558703904004 C 356.6995407096472,415.4218939440982, 356.51272230595976,415.32820084915636, 356.32590390227233,415.2345077542145 C 356.3336028418393,415.319264567617, 356.34130178140623,415.4040213810194, 356.3490007209732,415.48877819442185 C 356.4347824174893,415.6701853746642, 356.52056411400537,415.8515925549066, 356.6063458105215,416.0329997351489 C 356.4948334355709,416.0668189962541, 356.3833210606203,416.1006382573593, 356.2718086856697,416.1344575184645 C 356.0517732117445,416.14659609650784, 355.83173773781925,416.1587346745512, 355.611702263894,416.17087325259456 C 355.49648304055887,416.39449271942283, 355.38126381722367,416.61811218625104, 355.2660445938885,416.8417316530793 C 355.2327823624275,417.1538459083428, 355.1995201309665,417.4659601636063, 355.16625789950547,417.77807441886983 C 355.10422770779326,417.92335174596366, 355.04219751608105,418.06862907305754, 354.98016732436884,418.21390640015136 C 354.7785002076705,417.93679816689377, 354.5768330909722,417.6596899336361, 354.37516597427384,417.3825817003785 C 358.8611665664946,417.3825817003785, 363.34716715871537,422.76578241104346, 363.34716715871537,428.14898312170834" fill="black" stroke="none" stroke-width="1"/>
  <path d="M 295.9417068724043,295.5843642333907  C 297.6356581348514,294.33326672637395, 299.3296093972985,293.08216921935724, 301.02356065974556,291.8310717123405 C 302.9043814918826,290.7178594563218, 304.78520232401956,289.604647200303, 306.6660231561566,288.4914349442843 C 308.43981156737215,287.7611021292485, 310.21359997858775,287.03076931421276, 311.9873883898033,286.30043649917695 C 313.7438878075476,284.15328562601854, 315.5003872252919,282.0061347528601, 317.2568866430362,279.85898387970167 C 318.97645327631506,277.90143574338646, 320.69601990959393,275.9438876070712, 322.4155865428728,273.986339470756 C 323.56794591773723,272.39399092936293, 324.7203052926016,270.80164238796993, 325.87266466746604,269.2092938465769 C 327.1671941125184,267.0614607355164, 328.4617235575708,264.91362762445596, 329.75625300262317,262.76579451339546 C 330.8543798249222,260.7162605154228, 331.95250664722124,258.66672651745006, 333.0506334695203,256.6171925194774 C 334.0707324718012,254.69745805667958, 335.09083147408217,252.77772359388177, 336.1109304763631,250.85798913108397 C 336.7761757835684,249.5840171591023, 337.44142109077376,248.3100451871206, 338.1066663979791,247.03607321513894 C 338.8241081293715,245.63886272038806, 339.54154986076395,244.24165222563718, 340.25899159215635,242.8444417308863 C 341.54196042812646,241.32796183580444, 342.82492926409657,239.8114819407226, 344.1078981000667,238.29500204564073 C 344.8800704961176,237.26302545472487, 345.65224289216843,236.231048863809, 346.42441528821934,235.19907227289315 C 348.056259132351,233.43767909816083, 349.68810297648264,231.67628592342854, 351.3199468206143,229.91489274869622 C 352.1500794099036,228.8985966700292, 352.9802119991928,227.8823005913622, 353.8103445884821,226.86600451269518 C 354.9470894752913,225.56504166283358, 356.08383436210056,224.264078812972, 357.22057924890976,222.9631159631104 C 358.36776697528444,221.45297468281672, 359.5149547016591,219.94283340252304, 360.6621424280338,218.43269212222935 C 362.0404275717168,216.91683054805603, 363.41871271539986,215.40096897388267, 364.79699785908286,213.88510739970934 C 365.8184675530828,212.83273088607058, 366.8399372470828,211.7803543724318, 367.86140694108275,210.72797785879303 C 369.09355155637047,209.33809351754428, 370.3256961716582,207.94820917629556, 371.5578407869459,206.55832483504682 C 373.23186597954077,204.91230632824403, 374.90589117213557,203.26628782144127, 376.5799163647304,201.62026931463848 C 377.3798861090682,200.01520578175968, 378.179855853406,198.41014224888087, 378.9798255977438,196.80507871600207 C 380.19882465794404,195.068612443869, 381.41782371814435,193.3321461717359, 382.6368227783446,191.59567989960283 C 383.5254574132426,189.98867724957967, 384.4140920481405,188.3816745995565, 385.3027266830385,186.77467194953334 C 386.5473712366582,185.64539435010792, 387.79201579027796,184.51611675068247, 389.03666034389767,183.38683915125705 C 390.17064437381106,181.4839942533536, 391.3046284037245,179.5811493554501, 392.4386124336379,177.67830445754663 C 393.55767759532415,175.34199982603837, 394.67674275701046,173.0056951945301, 395.7958079186967,170.66939056302184 C 396.8409561441759,168.45950294656373, 397.8861043696551,166.24961533010563, 398.93125259513425,164.03972771364752 C 398.9695198233149,161.8818784120306, 399.0077870514955,159.72402911041365, 399.0460542796761,157.56617980879673 C 392.8169651852336,156.7202914250191, 386.5878760907911,155.8744030412415, 380.35878699634856,155.02851465746386 C 380.45174416658796,156.86939347053766, 380.5447013368273,158.7102722836115, 380.6376585070667,160.5511510966853 C 379.91125355938107,162.33999095615505, 379.1848486116955,164.12883081562478, 378.45844366400985,165.91767067509454 C 378.02233502150506,167.5805844003427, 377.5862263790002,169.24349812559083, 377.1501177364954,170.906411850839 C 376.2633821123929,172.6186478061937, 375.3766464882903,174.33088376154845, 374.4899108641878,176.04311971690316 C 373.59163977667333,176.79072743768668, 372.6933686891589,177.53833515847018, 371.79509760164444,178.2859428792537 C 371.12222519290646,179.923566461609, 370.4493527841685,181.5611900439643, 369.77648037543054,183.1988136263196 C 368.47200500485656,184.61345150902488, 367.1675296342826,186.02808939173016, 365.8630542637086,187.44272727443544 C 365.0540779240781,189.0520172988313, 364.2451015844476,190.6613073232271, 363.4361252448171,192.27059734762295 C 362.0155751381266,193.76427480104473, 360.5950250314362,195.2579522544665, 359.1744749247457,196.75162970788827 C 358.00303755043507,197.9959135303957, 356.8316001761244,199.24019735290318, 355.6601628018138,200.48448117541062 C 354.74330459784085,201.48895348915553, 353.8264463938679,202.49342580290048, 352.909588189895,203.4978981166454 C 351.5667312118383,205.1746795098044, 350.2238742337817,206.8514609029634, 348.88101725572506,208.52824229612241 C 347.68898128162135,210.06535685749643, 346.4969453075176,211.60247141887044, 345.3049093334139,213.13958598024445 C 344.0825916104459,214.29444159845153, 342.86027388747794,215.4492972166586, 341.63795616450994,216.6041528348657 C 340.8602426031709,217.95095061141808, 340.08252904183183,219.29774838797044, 339.3048154804928,220.64454616452284 C 337.7607450387782,222.1911609065575, 336.2166745970637,223.73777564859222, 334.6726041553491,225.2843903906269 C 333.66845155725207,226.4180346390936, 332.664298959155,227.55167888756029, 331.66014636105797,228.685323136027 C 330.4848333733827,230.4168025875704, 329.30952038570734,232.14828203911378, 328.13420739803206,233.8797614906572 C 326.93708155336435,235.36679990893097, 325.73995570869664,236.85383832720473, 324.54282986402893,238.3408767454785 C 323.66594223935,239.72963420489194, 322.78905461467104,241.11839166430534, 321.9121669899921,242.50714912371876 C 320.51205248737864,244.5654716246905, 319.1119379847652,246.62379412566222, 317.7118234821517,248.68211662663396 C 316.47144771573033,250.63132528791664, 315.2310719493089,252.58053394919935, 313.9906961828875,254.52974261048203 C 312.99540416812636,256.38530016624657, 312.0001121533652,258.24085772201107, 311.00482013860403,260.0964152777756 C 309.8371236621437,261.69669825770063, 308.6694271856834,263.29698123762563, 307.50173070922307,264.8972642175507 C 306.7790569931966,266.1154963241584, 306.0563832771702,267.3337284307662, 305.33370956114373,268.55196053737393 C 303.9113556670202,270.43488847993274, 302.48900177289664,272.31781642249155, 301.0666478787731,274.20074436505035 C 299.59982157494574,274.6484655025741, 298.13299527111843,275.09618664009776, 296.66616896729107,275.5439077776215 C 295.44688464490685,276.22795813669035, 294.2276003225226,276.91200849575927, 293.0083160001384,277.59605885482813 C 291.5210135573017,278.73452759823925, 290.033711114465,279.87299634165043, 288.54640867162834,281.01146508506156 C 292.24405777201633,281.01146508506156, 295.9417068724043,288.29791465922614, 295.9417068724043,295.5843642333907" fill="black" stroke="none" stroke-width="1"/>
</svg>
