<?xml version="1.0" encoding="utf-8" ?>
<svg xmlns="http://www.w3.org/2000/svg" xmlns:ev="http://www.w3.org/2001/xml-events" xmlns:xlink="http://www.w3.org/1999/xlink" baseProfile="tiny" height="600" version="1.2" width="600">
  <defs/>
  <path d="M 188.39821853316505,61.640202105823775  C 195.9551347018372,62.093162450784426, 203.51205087050934,62.54612279574508, 211.0689670391815,62.99908314070573 C 214.5034798938765,63.47285162679625, 217.9379927485715,63.94662011288676, 221.3725056032665,64.42038859897728 C 221.56903895349348,71.05774041879049, 221.7655723037205,77.6950922386037, 221.96210565394748,84.33244405841691 C 221.9217476786165,91.10089998226587, 221.88138970328552,97.86935590611483, 221.84103172795454,104.6378118299638 C 219.41918030162358,106.98272333681703, 216.9973288752926,109.32763484367028, 214.57547744896164,111.67254635052352 C 208.10384539558206,115.48806145261089, 201.63221334220248,119.30357655469827, 195.1605812888229,123.11909165678564 C 190.00551194931415,126.83805257593312, 184.8504426098054,130.55701349508058, 179.69537327029667,134.27597441422807 C 175.36067826861387,137.81958500561606, 171.02598326693106,141.36319559700408, 166.69128826524826,144.90680618839207 C 161.2630025643983,148.6614341634477, 155.83471686354832,152.4160621385033, 150.40643116269837,156.17069011355892 C 144.10061407612844,161.9079514977651, 137.79479698955853,167.6452128819713, 131.4889799029886,173.3824742661775 C 126.62402243562732,179.566614970617, 121.75906496826603,185.75075567505652, 116.89410750090475,191.93489637949602 C 115.47803524470095,200.6984551913898, 114.06196298849716,209.4620140032836, 112.64589073229335,218.22557281517737 C 117.17453419421805,225.0332013984374, 121.70317765614277,231.8408299816974, 126.23182111806747,238.64845856495742 C 130.7268325725566,243.50806299641766, 135.22184402704573,248.36766742787788, 139.71685548153485,253.22727185933812 C 140.70412646173048,258.0993038975473, 141.6913974419261,262.97133593575654, 142.67866842212175,267.84336797396577 C 139.34269330448706,272.21974840762545, 136.0067181868524,276.59612884128506, 132.6707430692177,280.97250927494474 C 128.96607717635362,285.6492228111057, 125.26141128348952,290.3259363472666, 121.55674539062542,295.0026498834275 C 118.34658927451585,303.0121758134205, 115.13643315840628,311.0217017434135, 111.9262770422967,319.0312276734065 C 117.49338734372436,327.4119575861364, 123.06049764515204,335.79268749886626, 128.6276079465797,344.1734174115962 C 134.39058431542324,347.63534883834035, 140.1535606842668,351.0972802650845, 145.91653705311035,354.5592116918287 C 150.9723138461402,357.945799689035, 156.02809063917005,361.3323876862413, 161.0838674321999,364.71897568344764 C 166.8022642436603,368.06283012828675, 172.5206610551207,371.40668457312586, 178.2390578665811,374.75053901796497 C 183.24879506944964,377.9852506476752, 188.2585322723182,381.2199622773854, 193.26826947518674,384.4546739070956 C 199.34289148489424,388.2198030373212, 205.41751349460176,391.98493216754684, 211.49213550430926,395.75006129777245 C 218.30551298267784,399.2582708839777, 225.11889046104642,402.76648047018284, 231.932267939415,406.27469005638807 C 233.67211018771235,409.7013676206742, 235.4119524360097,413.1280451849604, 237.15179468430705,416.55472274924654 C 237.3728196014694,423.7704059291629, 237.5938445186317,430.9860891090792, 237.81486943579404,438.2017722889956 C 238.65364383110008,445.7726185153455, 239.4924182264061,453.34346474169547, 240.33119262171215,460.9143109680454 C 241.4175387351721,468.17128638578896, 242.50388484863205,475.4282618035325, 243.590230962092,482.68523722127605 C 249.47029833069993,482.2969123829096, 255.35036569930784,481.9085875445432, 261.2304330679158,481.52026270617677 C 260.05138469960303,474.039484247505, 258.8723363312902,466.5587057888332, 257.6932879629775,459.07792733016146 C 257.02190527544263,451.9110196800961, 256.35052258790773,444.7441120300307, 255.6791399003729,437.57720437996534 C 255.1638700275818,430.05513367200905, 254.64860015479067,422.5330629640527, 254.13333028199958,415.0109922560964 C 249.0062209670889,407.48942456480734, 243.8791116521782,399.96785687351826, 238.75200233726753,392.4462891822292 C 232.25551282156587,389.2366318583656, 225.75902330586425,386.0269745345021, 219.2625337901626,382.8173172106385 C 212.94601819674745,378.964470457109, 206.6295026033323,375.1116237035795, 200.31298700991715,371.25877695004993 C 195.2018871575742,368.3898082170627, 190.0907873052312,365.5208394840754, 184.97968745288824,362.65187075108815 C 179.67842854162583,359.26177191828566, 174.37716963036343,355.87167308548317, 169.07591071910102,352.4815742526807 C 163.90394539774144,349.3320584833454, 158.73198007638186,346.1825427140101, 153.56001475502228,343.0330269446748 C 148.45692623226063,339.37367785052874, 143.35383770949898,335.7143287563827, 138.25074918673732,332.05497966223663 C 134.77417717205444,327.17082522224734, 131.29760515737155,322.286670782258, 127.82103314268865,317.4025163422687 C 129.94062347804572,312.24860119934414, 132.0602138134028,307.0946860564196, 134.1798041487599,301.94077091349504 C 137.20289761126463,297.8231567616346, 140.2259910737694,293.7055426097741, 143.24908453627413,289.5879284579137 C 147.65678034260466,283.7961865474339, 152.06447614893523,278.0044446369541, 156.47217195526576,272.2127027264743 C 155.18172848630633,263.69630900891457, 153.89128501734686,255.17991529135483, 152.60084154838742,246.66352157379512 C 147.85346704823064,240.75313546917317, 143.10609254807383,234.8427493645512, 138.35871804791705,228.93236325992925 C 134.7543016232531,223.9771932310266, 131.14988519858915,219.02202320212393, 127.54546877392521,214.0668531732213 C 128.45954747739245,208.8487871479891, 129.3736261808597,203.6307211227569, 130.28770488432696,198.41265509752472 C 134.2448998349193,193.60490100184856, 138.2020947855116,188.79714690617243, 142.15928973610394,183.98939281049627 C 148.2353800879717,178.81640311096334, 154.31147043983944,173.6434134114304, 160.3875607917072,168.47042371189747 C 165.19618098503466,164.1971125470187, 170.0048011783621,159.92380138213994, 174.81342137168957,155.65049021726117 C 179.14763324592607,152.10058243938064, 183.48184512016257,148.5506746615001, 187.81605699439908,145.00076688361958 C 192.9023216407476,141.46133172369557, 197.98858628709615,137.92189656377153, 203.07485093344468,134.38246140384751 C 208.2804234959481,132.19021129031353, 213.4859960584515,129.99796117677957, 218.6915686209549,127.80571106324558 C 225.02898114115158,121.08040062477122, 231.36639366134824,114.35509018629685, 237.7038061815449,107.62977974782248 C 238.4132802639482,99.6604816084422, 239.12275434635148,91.6911834690619, 239.83222842875477,83.72188532968161 C 238.52993192358682,75.62148448816932, 237.22763541841888,67.52108364665702, 235.92533891325093,59.42068280514472 C 227.65212801071812,54.58260941005921, 219.3789171081853,49.74453601497371, 211.1057062056525,44.9064626198882 C 203.9248684865231,44.6043084132588, 196.7440307673937,44.3021542066294, 189.5631930482643,44.0 C 188.9807057907147,44.0, 188.39821853316505,52.82010105291189, 188.39821853316505,61.640202105823775" fill="black" stroke="none" stroke-width="1"/>
  <path d="M 250.52153513394487,402.7803834062624  C 251.3728478875888,402.260722328642, 252.22416064123271,401.7410612510216, 253.07547339487664,401.2214001734012 C 253.5963510522144,400.08227313651406, 254.11722870955217,398.94314609962686, 254.63810636688993,397.8040190627397 C 254.67799599885902,396.6461913444318, 254.71788563082814,395.48836362612394, 254.75777526279722,394.33053590781606 C 254.9230907286588,393.08148832832734, 255.08840619452033,391.8324407488387, 255.2537216603819,390.58339316934996 C 255.40391252284604,389.33521425512015, 255.5541033853102,388.08703534089034, 255.70429424777436,386.8388564266605 C 255.7407826117778,385.68389302865677, 255.77727097578122,384.52892963065295, 255.81375933978467,383.3739662326492 C 255.77005902762662,382.18924444988306, 255.72635871546854,381.00452266711693, 255.68265840331048,379.8198008843508 C 255.68245124742177,378.7386811848981, 255.68224409153308,377.65756148544546, 255.68203693564436,376.57644178599276 C 255.6813390387616,375.4958556954382, 255.6806411418788,374.4152696048836, 255.67994324499602,373.334683514329 C 255.7201063856466,372.25110228127573, 255.76026952629718,371.1675210482225, 255.80043266694776,370.08393981516923 C 255.34730260405124,368.8941693198931, 254.89417254115472,367.70439882461693, 254.4410424782582,366.5146283293408 C 254.43487172809014,365.44461306294755, 254.42870097792212,364.3745977965544, 254.42253022775407,363.30458253016116 C 254.4228358356789,362.22500445669084, 254.42314144360378,361.14542638322047, 254.42344705152863,360.06584830975015 C 254.47190796319038,359.08967580518686, 254.52036887485215,358.1135033006235, 254.5688297865139,357.1373307960602 C 254.1794693525267,356.0518712723429, 253.79010891853946,354.9664117486256, 253.40074848455225,353.8809522249083 C 253.36239373425715,352.6951807016141, 253.32403898396205,351.5094091783199, 253.28568423366696,350.3236376550257 C 253.28694418611974,349.24683795263104, 253.28820413857252,348.17003825023636, 253.2894640910253,347.0932385478417 C 253.31090087470335,346.0662017487034, 253.33233765838136,345.0391649495652, 253.3537744420594,344.0121281504269 C 253.4057978342071,342.981102159894, 253.45782122635484,341.9500761693612, 253.50984461850254,340.9190501788283 C 253.11087699385448,339.8376548841838, 252.7119093692064,338.75625958953924, 252.31294174455834,337.67486429489475 C 252.3031681580603,336.59427252444044, 252.2933945715622,335.5136807539862, 252.28362098506415,334.4330889835319 C 252.28367214135446,333.35236419416475, 252.2837232976448,332.2716394047976, 252.2837744539351,331.1909146154305 C 252.31924635095368,330.19595399327665, 252.35471824797224,329.2009933711229, 252.3901901449908,328.20603274896905 C 252.3521503466313,327.03360245394646, 252.31411054827183,325.8611721589238, 252.27607074991232,324.6887418639012 C 252.27873642484337,323.614546122109, 252.28140209977445,322.5403503803168, 252.2840677747055,321.4661546385246 C 252.28030443750657,320.3780489100914, 252.27654110030767,319.2899431816583, 252.27277776310873,318.20183745322515 C 252.28819810641482,317.1026935253307, 252.3036184497209,316.00354959743635, 252.31903879302698,314.9044056695419 C 251.915003272258,313.7974411679293, 251.510967751489,312.6904766663168, 251.10693223072002,311.5835121647042 C 251.08341681919836,310.46282893855073, 251.05990140767668,309.3421457123972, 251.03638599615502,308.22146248624375 C 245.1563186275471,308.6097873246102, 239.27625125893917,308.9981121629766, 233.39618389033126,309.38643700134304 C 233.3864891511544,310.42694383127167, 233.3767944119775,311.46745066120025, 233.36709967280063,312.5079574911289 C 233.74929000639767,313.56218304559843, 234.13148033999474,314.6164086000679, 234.51367067359178,315.6706341545375 C 234.48288391851298,316.73268028272514, 234.4520971634342,317.79472641091286, 234.4213104083554,318.8567725391005 C 234.41885167762365,319.9298568667495, 234.41639294689193,321.00294119439843, 234.4139342161602,322.0760255220474 C 234.41656988353668,323.1630198363373, 234.4192055509132,324.2500141506272, 234.4218412182897,325.33700846491706 C 234.38380219047335,326.32576822597656, 234.34576316265702,327.3145279870361, 234.30772413484067,328.3032877480956 C 234.34319410247062,329.46951718202394, 234.3786640701006,330.6357466159522, 234.41413403773055,331.8019760498805 C 234.41397538363796,332.8824413165955, 234.41381672954535,333.9629065833104, 234.41365807545276,335.0433718500254 C 234.42343436062407,336.12397013565317, 234.43321064579538,337.204568421281, 234.4429869309667,338.2851667069088 C 234.84129159305343,339.3649614683464, 235.23959625514016,340.444756229784, 235.6379009172269,341.5245509912216 C 235.6269418602985,342.65471505677084, 235.61598280337014,343.7848791223201, 235.60502374644176,344.91504318786934 C 235.62795605234015,346.04919644481316, 235.65088835823855,347.183349701757, 235.67382066413694,348.3175029587008 C 235.67570486239683,349.40189331238827, 235.67758906065674,350.4862836660757, 235.67947325891663,351.57067401976315 C 235.6306969476583,352.54609255255104, 235.58192063639999,353.52151108533894, 235.53314432514165,354.49692961812684 C 235.91847487896248,355.57266015049163, 236.3038054327833,356.6483906828565, 236.68913598660413,357.72412121522126 C 236.72718152582573,358.90913876674006, 236.76522706504736,360.0941563182588, 236.80327260426895,361.2791738697776 C 236.80380946909543,362.36078585238937, 236.8043463339219,363.44239783500115, 236.80488319874837,364.5240098176129 C 236.81981851042408,365.6151846073018, 236.83475382209983,366.70635939699065, 236.84968913377554,367.7975341866795 C 237.21237527886922,368.7689537474855, 237.5750614239629,369.74037330829145, 237.93774756905657,370.71179286909745 C 237.89511055490456,371.7894016921263, 237.85247354075253,372.8670105151552, 237.80983652660052,373.94461933818405 C 237.8105422475271,375.02522330371136, 237.8112479684537,376.1058272692386, 237.8119536893803,377.1864312347659 C 237.81173146973836,378.2665015913926, 237.8115092500964,379.3465719480193, 237.81128703045448,380.426642304646 C 237.76758658917564,381.4031105785598, 237.7238861478968,382.37957885247357, 237.68018570661795,383.35604712638735 C 237.71667347137168,384.3622737428489, 237.75316123612544,385.3685003593104, 237.78964900087917,386.374726975772 C 237.93987204637986,387.2877403007534, 238.09009509188053,388.2007536257348, 238.24031813738122,389.11376695071624 C 238.40423406084182,390.0258144911721, 238.56814998430238,390.9378620316281, 238.73206590776297,391.84990957208396 C 238.82152512649228,392.856634398238, 238.9109843452216,393.86335922439196, 239.0004435639509,394.870084050546 C 238.6504159700357,395.8074676728539, 238.30038837612048,396.74485129516177, 237.95036078220528,397.68223491746966 C 237.35903337022552,397.8949444026525, 236.76770595824576,398.1076538878354, 236.176378546266,398.32036337301827 C 243.34895684010542,398.32036337301827, 250.52153513394487,400.5503733896403, 250.52153513394487,402.7803834062624" fill="black" stroke="none" stroke-width="1"/>
  <path d="M 222.00182852636863,119.37113506869893  C 222.3388067865285,119.71582394080278, 222.67578504668833,120.06051281290662, 223.0127633068482,120.40520168501047 C 223.02068302470119,120.76071369200598, 223.0286027425542,121.11622569900149, 223.03652246040718,121.471737705997 C 223.38611855744657,121.82772751091251, 223.73571465448592,122.183717315828, 224.0853107515253,122.53970712074351 C 223.99391816987648,122.93751537261558, 223.90252558822763,123.33532362448764, 223.8111330065788,123.7331318763597 C 223.93156340953732,123.94721531794637, 224.05199381249582,124.16129875953303, 224.17242421545433,124.37538220111969 C 224.5283137829217,124.53403249832402, 224.8842033503891,124.69268279552836, 225.2400929178565,124.85133309273269 C 225.28847662224513,125.3961509373013, 225.33686032663377,125.94096878186991, 225.3852440310224,126.48578662643853 C 225.35143116517622,126.82069497347274, 225.31761829933004,127.15560332050697, 225.28380543348385,127.49051166754118 C 225.2693122600668,127.88667187883557, 225.25481908664977,128.28283209012994, 225.24032591323274,128.67899230142433 C 225.19867464867772,128.98823117693328, 225.15702338412274,129.29747005244224, 225.11537211956772,129.6067089279512 C 225.10237911601823,129.97807303885503, 225.0893861124687,130.34943714975887, 225.0763931089192,130.7208012606627 C 225.07958786749847,131.13150517804593, 225.08278262607772,131.54220909542911, 225.08597738465699,131.95291301281233 C 225.08319852640815,132.35200183983824, 225.08041966815935,132.75109066686414, 225.07764080991052,133.15017949389005 C 225.08180112851196,133.559930766187, 225.08596144711342,133.9696820384839, 225.09012176571485,134.37943331078085 C 224.93858882331668,134.6350491036328, 224.78705588091847,134.89066489648476, 224.6355229385203,135.14628068933672 C 224.67181804548102,135.52370068033264, 224.70811315244174,135.90112067132856, 224.74440825940246,136.27854066232447 C 225.1199058603221,136.30069250726058, 225.49540346124172,136.32284435219668, 225.87090106216135,136.3449961971328 C 225.83302974788367,136.78933794559572, 225.795158433606,137.23367969405865, 225.7572871193283,137.67802144252158 C 225.7666856396653,138.06800233826, 225.77608416000228,138.4579832339984, 225.78548268033927,138.8479641297368 C 225.79515751367538,139.25944154403234, 225.80483234701146,139.67091895832792, 225.81450718034756,140.08239637262346 C 225.78334373806652,140.49999432279876, 225.75218029578548,140.91759227297402, 225.72101685350444,141.3351902231493 C 225.96332768627377,141.75346562058863, 226.2056385190431,142.17174101802794, 226.44794935181244,142.59001641546726 C 226.6773149931418,143.01280041459395, 226.90668063447117,143.43558441372062, 227.13604627580054,143.8583684128473 C 227.10228150816621,144.27360955152415, 227.06851674053192,144.68885069020098, 227.0347519728976,145.1040918288778 C 227.08814996837555,145.55728249791267, 227.1415479638535,146.01047316694752, 227.19494595933145,146.46366383598237 C 227.01331817351098,146.69372662353604, 226.83169038769051,146.92378941108967, 226.65006260187005,147.15385219864334 C 226.61445321156285,147.52862939647233, 226.57884382125562,147.9034065943013, 226.54323443094842,148.27818379213028 C 226.55634661815438,148.70339467009572, 226.56945880536037,149.12860554806113, 226.58257099256633,149.55381642602657 C 226.5884314980967,149.97333476422438, 226.59429200362703,150.39285310242218, 226.6001525091574,150.81237144061998 C 232.4802198777653,150.42404660225355, 238.36028724637325,150.03572176388712, 244.24035461498116,149.6473969255207 C 244.24619078998018,149.25972380599035, 244.25202696497917,148.87205068646, 244.25786313997818,148.48437756692965 C 244.27111302578268,148.1023969272227, 244.2843629115872,147.7204162875158, 244.2976127973917,147.33843564780886 C 244.2612542185728,146.90602165607774, 244.22489563975387,146.4736076643466, 244.18853706093495,146.04119367261546 C 244.01077312046294,145.46406356397372, 243.83300917999097,144.88693345533196, 243.65524523951896,144.30980334669022 C 243.6903289725671,143.95580932452927, 243.72541270561524,143.60181530236835, 243.76049643866338,143.2478212802074 C 243.80813334431392,142.8558408368401, 243.85577024996448,142.46386039347274, 243.903407155615,142.07187995010543 C 243.70419652692775,141.68759960740778, 243.50498589824048,141.3033192647101, 243.3057752695532,140.91903892201245 C 243.08506291194027,140.52961022079126, 242.86435055432736,140.14018151957006, 242.64363819671442,139.75075281834887 C 242.69755580308896,139.36313553236025, 242.7514734094635,138.9755182463716, 242.80539101583804,138.58790096038297 C 242.80219691619396,138.1849355943115, 242.7990028165499,137.78197022824, 242.7958087169058,137.37900486216853 C 242.78457608445154,136.98681774952448, 242.7733434519973,136.59463063688045, 242.76211081954304,136.2024435242364 C 242.80237542867027,135.76056922218874, 242.8426400377975,135.3186949201411, 242.88290464692474,134.87682061809343 C 242.50154583980168,134.84879727122413, 242.1201870326786,134.8207739243548, 241.73882822555552,134.7927505774855 C 241.7126429442459,134.42543668308295, 241.6864576629363,134.05812278868038, 241.6602723816267,133.69080889427784 C 241.51229844250264,133.13567553193533, 241.36432450337858,132.58054216959286, 241.21635056425453,132.02540880725036 C 241.22241490453112,131.62606532807106, 241.22847924480774,131.2267218488918, 241.23454358508434,130.8273783697125 C 241.23067842796635,130.42036139904707, 241.22681327084834,130.0133444283816, 241.22294811373035,129.60632745771616 C 241.22648781852354,129.20949635686384, 241.23002752331672,128.8126652560115, 241.2335672281099,128.4158341551592 C 241.22075438927018,127.97982043852996, 241.20794155043046,127.54380672190072, 241.19512871159074,127.10779300527149 C 241.15209844563097,126.61124759363724, 241.1090681796712,126.11470218200301, 241.06603791371143,125.61815677036877 C 241.05766307376106,125.20088531480263, 241.04928823381067,124.78361385923651, 241.0409133938603,124.36634240367037 C 240.98182792020532,123.91983447954183, 240.92274244655036,123.4733265554133, 240.86365697289537,123.02681863128475 C 241.01171536591986,122.66278832174041, 241.15977375894437,122.29875801219605, 241.30783215196885,121.9347277026517 C 241.07612941046904,121.8812400999512, 240.84442666896925,121.82775249725069, 240.61272392746943,121.77426489455019 C 240.42059491282527,121.46710857999892, 240.22846589818107,121.15995226544767, 240.0363368835369,120.85279595089641 C 240.08701851687343,120.38961621529847, 240.13770015020995,119.92643647970056, 240.18838178354648,119.46325674410262 C 239.7826648974188,119.02248607309558, 239.37694801129112,118.58171540208853, 238.97123112516346,118.14094473108149 C 238.89896351813582,117.68734808656298, 238.82669591110815,117.23375144204448, 238.7544283040805,116.78015479752597 C 238.34027207910262,116.31799095815994, 237.92611585412473,115.85582711879393, 237.51195962914684,115.3936632794279 C 229.75689407775775,115.3936632794279, 222.00182852636863,117.38239917406341, 222.00182852636863,119.37113506869893" fill="black" stroke="none" stroke-width="1"/>
  <path d="M 187.02427251431615,45.71515915441196  C 186.19493406523895,45.73904105411298, 185.36559561616176,45.762922953814, 184.53625716708456,45.78680485351502 C 183.87020251302906,45.76052739993013, 183.20414785897353,45.73424994634525, 182.53809320491803,45.70797249276036 C 182.1227577058101,45.94127126563165, 181.70742220670218,46.17457003850293, 181.29208670759425,46.407868811374215 C 180.7045204385303,46.48089183120536, 180.11695416946637,46.5539148510365, 179.5293879004024,46.62693787086765 C 178.84801792858178,46.61251678123091, 178.16664795676118,46.598095691594175, 177.48527798494055,46.58367460195743 C 176.77569947263171,46.552029888290576, 176.06612096032288,46.52038517462371, 175.35654244801404,46.488740460956855 C 174.64831121822345,46.930738692420775, 173.94007998843287,47.372736923884695, 173.2318487586423,47.814735155348615 C 172.41753820130498,47.809115456419335, 171.60322764396764,47.80349575749005, 170.78891708663033,47.79787605856077 C 170.20279393783207,47.670250414243455, 169.6166707890338,47.542624769926135, 169.03054764023554,47.41499912560882 C 168.3188314338532,47.412209284624, 167.6071152274709,47.40941944363918, 166.89539902108856,47.406629602654355 C 166.0744721357825,47.44996685091912, 165.25354525047644,47.49330409918389, 164.43261836517036,47.53664134744865 C 163.7978257767283,47.50053636986218, 163.16303318828622,47.464431392275706, 162.52824059984417,47.42832641468924 C 161.83151457204073,47.382537709557695, 161.1347885442373,47.33674900442615, 160.43806251643386,47.29096029929461 C 159.72394002166894,47.744141779608334, 159.009817526904,48.19732325992205, 158.29569503213907,48.650504740235775 C 157.58043342502597,48.62643185721717, 156.86517181791285,48.602358974198566, 156.14991021079976,48.57828609117996 C 155.44072957360902,48.68383759709867, 154.7315489364183,48.789389103017385, 154.02236829922757,48.894940608936096 C 153.18696995013084,49.191563874143995, 152.35157160103415,49.488187139351886, 151.51617325193743,49.784810404559785 C 150.80689399511346,49.791168132868705, 150.0976147382895,49.79752586117763, 149.38833548146553,49.80388358948655 C 148.77939603307416,49.759997114353176, 148.17045658468277,49.7161106392198, 147.5615171362914,49.67222416408642 C 146.84272849373002,49.67328974061548, 146.12393985116864,49.67435531714453, 145.40515120860726,49.67542089367359 C 144.68150908243086,49.67649391192705, 143.95786695625443,49.6775669301805, 143.23422483007803,49.678639948433954 C 142.63209970632815,49.59543082947498, 142.02997458257826,49.512221710516, 141.42784945882838,49.429012591557026 C 140.65376384675503,49.89951343105625, 139.87967823468168,50.370014270555465, 139.10559262260833,50.84051511005469 C 138.22626479694281,50.88006204643462, 137.3469369712773,50.919608982814545, 136.4676091456118,50.95915591919447 C 135.7252588930659,50.96758410200049, 134.98290864052004,50.97601228480651, 134.24055838797415,50.98444046761252 C 133.48508317203513,51.000520115688936, 132.72960795609615,51.016599763765356, 131.97413274015713,51.03267941184177 C 131.20273642965327,51.05510896104032, 130.43134011914944,51.077538510238874, 129.65994380864558,51.09996805943742 C 129.0619679558228,51.048120856537714, 128.46399210300007,50.996273653638, 127.8660162501773,50.94442645073829 C 127.08360314951435,51.3529434338331, 126.30119004885141,51.76146041692791, 125.51877694818846,52.16997740002272 C 126.29542662492133,57.88919535397293, 127.0720763016542,63.60841330792315, 127.84872597838708,69.32763126187336 C 128.49842677030864,68.97408551695307, 129.14812756223023,68.62053977203277, 129.7978283541518,68.26699402711247 C 130.63196639391356,68.22101964926236, 131.46610443367533,68.17504527141223, 132.3002424734371,68.12907089356212 C 132.96096005551777,68.15248597474265, 133.62167763759845,68.17590105592318, 134.28239521967913,68.19931613710371 C 134.95903389632466,68.21589165281323, 135.63567257297018,68.23246716852273, 136.3123112496157,68.24904268423225 C 137.00207488965435,68.26239658952599, 137.69183852969297,68.27575049481972, 138.38160216973162,68.28910440011346 C 138.93438823665065,68.38481548888748, 139.48717430356965,68.48052657766152, 140.03996037048867,68.57623766643555 C 140.69798865099983,68.15380934768221, 141.35601693151102,67.7313810289289, 142.01404521202218,67.30895271017556 C 142.84403398085684,67.29777761696866, 143.67402274969146,67.28660252376177, 144.5040115185261,67.27542743055487 C 145.21248328493425,67.28063818106351, 145.9209550513424,67.28584893157215, 146.62942681775053,67.29105968208079 C 147.34275206777366,67.29225711683765, 148.05607731779682,67.29345455159451, 148.76940256781995,67.29465198635137 C 149.5925770120131,67.24979942068927, 150.4157514562062,67.20494685502717, 151.23892590039935,67.16009428936508 C 151.96176053615991,67.1481217392683, 152.6845951719205,67.13614918917152, 153.40742980768107,67.12417663907475 C 154.0041453511689,66.92641902922139, 154.6008608946567,66.72866141936804, 155.19757643814452,66.53090380951468 C 155.92050969353835,66.41965578487212, 156.64344294893215,66.30840776022954, 157.36637620432597,66.19715973558698 C 158.08322848979762,66.22057376567291, 158.80008077526924,66.24398779575884, 159.51693306074088,66.26740182584477 C 160.23492445856309,65.812618097098, 160.9529158563853,65.3578343683512, 161.6709072542075,64.90305063960443 C 162.40629511901327,64.93282797305774, 163.141682983819,64.96260530651105, 163.87707084862478,64.99238263996436 C 164.67439215294624,64.96118695720291, 165.4717134572677,64.92999127444146, 166.26903476158915,64.89879559168001 C 166.8802217693012,64.942386160131, 167.4914087770132,64.98597672858197, 168.10259578472522,65.02956729703295 C 168.82299345536774,65.02694105669651, 169.54339112601022,65.02431481636008, 170.26378879665273,65.02168857602364 C 171.10977913040338,64.89819657263483, 171.955769464154,64.77470456924604, 172.80175979790465,64.65121256585724 C 173.4195559898674,64.71761894757492, 174.0373521818302,64.78402532929259, 174.65514837379294,64.85043171101027 C 175.37892615829426,64.39939574208466, 176.10270394279556,63.948359773159055, 176.82648172729688,63.497323804233446 C 177.5476426073807,63.520467868562726, 178.2688034874645,63.54361193289201, 178.98996436754834,63.56675599722129 C 179.72443277900445,63.540974883742614, 180.45890119046052,63.51519377026393, 181.19336960191663,63.48941265678525 C 181.8437736957691,63.3686801071189, 182.4941777896216,63.247947557452555, 183.14458188347407,63.127215007786205 C 183.6360243412234,62.835205378221346, 184.1274667989727,62.54319574865649, 184.61890925672202,62.25118611909163 C 185.36796395489003,62.20790581143491, 186.11701865305804,62.1646255037782, 186.86607335122605,62.12134519612148 C 187.46798065861356,62.14435904579313, 188.06988796600106,62.16737289546479, 188.67179527338857,62.190386745136436 C 187.84803389385235,62.190386745136436, 187.02427251431615,53.9527729497742, 187.02427251431615,45.71515915441196" fill="black" stroke="none" stroke-width="1"/>
  <path d="M 321.74459184559123,120.23023022533768  C 321.7216082502319,121.84109218133374, 321.6986246548726,123.45195413732979, 321.6756410595133,125.06281609332585 C 321.67091125599137,126.69866256502601, 321.6661814524694,128.33450903672616, 321.6614516489475,129.97035550842634 C 322.07717328453805,131.74200209470214, 322.4928949201286,133.51364868097798, 322.90861655571916,135.2852952672538 C 322.9024078990615,136.94286128808102, 322.8961992424038,138.60042730890825, 322.8899905857461,140.25799332973548 C 322.84244692137145,141.8216479631815, 322.7949032569968,143.38530259662755, 322.74735959262216,144.94895723007357 C 323.1751434916277,146.71815171818253, 323.6029273906333,148.4873462062915, 324.0307112896388,150.25654069440046 C 324.0281780811864,151.92263259921975, 324.025644872734,153.58872450403905, 324.0231116642816,155.25481640885835 C 324.39875394559857,156.82202979519738, 324.7743962269155,158.3892431815364, 325.15003850823246,159.95645656787542 C 325.1090995749901,161.6193843836887, 325.06816064174785,163.28231219950194, 325.0272217085055,164.94524001531522 C 325.06426497384535,166.7014108984144, 325.10130823918524,168.45758178151354, 325.1383515045251,170.2137526646127 C 325.10133799219096,171.79134779640614, 325.0643244798569,173.36894292819957, 325.0273109675228,174.946538059993 C 325.01967763464114,176.61282817728343, 325.0120443017595,178.27911829457386, 325.00441096887783,179.9454084118643 C 325.3889472069275,181.61185364411415, 325.7734834449772,183.27829887636398, 326.1580196830269,184.94474410861383 C 326.1575437421083,186.6081682710254, 326.15706780118967,188.27159243343698, 326.1565918602711,189.93501659584854 C 326.1565930604234,191.6014764004065, 326.1565942605758,193.2679362049645, 326.1565954607281,194.9343960095225 C 326.1576439176092,196.60389253827142, 326.1586923744904,198.2733890670204, 326.1597408313715,199.94288559576933 C 326.1686729905337,201.60931362807506, 326.177605149696,203.27574166038082, 326.1865373088582,204.94216969268655 C 326.6011725270456,206.72107946827217, 327.015807745233,208.4999892438578, 327.43044296342043,210.27889901944343 C 327.426050835623,211.93282585595696, 327.42165870782566,213.5867526924705, 327.41726658002824,215.24067952898403 C 327.3530901157165,216.80652943692942, 327.2889136514048,218.37237934487484, 327.22473718709307,219.93822925282024 C 327.62689180368994,221.6054269365922, 328.0290464202869,223.27262462036416, 328.43120103688375,224.93982230413613 C 328.42892265800526,226.60595642555117, 328.4266442791267,228.27209054696618, 328.42436590024823,229.93822466838122 C 328.5259214369281,231.36386868306403, 328.627476973608,232.7895126977468, 328.7290325102879,234.2151567124296 C 329.0132963668115,235.59352153776658, 329.2975602233351,236.97188636310355, 329.58182407985873,238.35025118844052 C 329.9483013218467,239.71090914088003, 330.31477856383475,241.07156709331957, 330.68125580582273,242.43222504575908 C 330.2580051585749,242.98704846737024, 329.8347545113271,243.54187188898143, 329.4115038640793,244.0966953105926 C 329.15582609520465,244.37774115050217, 328.90014832632994,244.65878699041178, 328.6444705574553,244.93983283032136 C 327.8749864987368,245.50837144710647, 327.10550244001837,246.07691006389155, 326.3360183812999,246.64544868067665 C 325.13699885183627,246.94253150071336, 323.9379793223726,247.23961432075004, 322.738959792909,247.53669714078674 C 324.9356568050056,251.38091691195578, 327.1323538171022,255.22513668312484, 329.3290508291988,259.0693564542939 C 330.6984278114423,258.60191618147735, 332.06780479368575,258.1344759086608, 333.4371817759292,257.6670356358443 C 334.5351029614242,256.77005989228246, 335.6330241469191,255.8730841487206, 336.7309453324141,254.97610840515878 C 338.11635929485783,253.56532637182642, 339.5017732573016,252.15454433849402, 340.88718721974533,250.74376230516165 C 341.9988236297219,249.50055317943657, 343.11046003969847,248.2573440537115, 344.22209644967506,247.01413492798642 C 344.5278956949465,244.98119527917513, 344.83369494021787,242.9482556303638, 345.1394941854893,240.9153159815525 C 345.42380084249515,238.96080404075406, 345.708107499501,237.0062920999556, 345.99241415650687,235.05178015915715 C 346.09396625385597,233.14450516156077, 346.19551835120507,231.2372301639644, 346.29707044855417,229.32995516636802 C 346.2984385751916,227.6631696838304, 346.2998067018291,225.99638420129276, 346.3011748284665,224.32959871875514 C 345.8996360372676,222.66387679796244, 345.49809724606865,220.99815487716975, 345.09655845486975,219.33243295637706 C 345.07738696705036,217.5653632597621, 345.0582154792309,215.79829356314713, 345.0390439914115,214.03122386653217 C 345.0330534703935,212.35223109848533, 345.0270629493755,210.67323833043852, 345.02107242835746,208.99424556239168 C 344.69959381823315,207.44023573341696, 344.3781152081088,205.88622590444226, 344.0566365979845,204.33221607546753 C 344.0476781197137,202.6657245032129, 344.0387196414429,200.9992329309583, 344.0297611631721,199.3327413587037 C 344.03122841286813,197.66931828289228, 344.03269566256415,196.00589520708087, 344.0341629122602,194.34247213126946 C 344.0341617139948,192.6760123312671, 344.0341605157295,191.00955253126472, 344.0341593174642,189.34309273126235 C 344.03212045197466,187.67359728911356, 344.0300815864852,186.0041018469648, 344.0280427209957,184.33460640481601 C 343.64349441273765,182.66813203250553, 343.25894610447966,181.001657660195, 342.8743977962216,179.33518328788452 C 342.8818905574551,177.66855380061457, 342.8893833186886,176.00192431334466, 342.8968760799221,174.33529482607472 C 342.86027168879326,172.5799703533078, 342.82366729766443,170.82464588054086, 342.7870629065356,169.06932140777394 C 342.82433873393654,167.49257268631274, 342.8616145613375,165.91582396485157, 342.89889038873844,164.33907524339037 C 342.93690332858733,162.6690834546433, 342.9749162684363,160.9990916658962, 343.0129292082852,159.32909987714913 C 342.5550685039687,157.5633936589278, 342.09720779965215,155.79768744070645, 341.63934709533567,154.03198122248511 C 341.64157552755233,152.36515352274407, 341.64380395976906,150.698325823003, 341.6460323919857,149.03149812326194 C 341.303356693373,147.46777300681057, 340.96068099476037,145.90404789035918, 340.61800529614766,144.34032277390781 C 340.58038237009595,142.5710578027935, 340.5427594440443,140.80179283167914, 340.5051365179926,139.0325278605648 C 340.50397732485305,137.3571742768317, 340.5028181317136,135.68182069309856, 340.50165893857405,134.00646710936545 C 340.1730768880103,132.4451940910809, 339.8444948374466,130.88392107279637, 339.51591278688284,129.32264805451183 C 339.4952816769735,127.62557492165165, 339.47465056706415,125.92850178879146, 339.4540194571548,124.23142865593128 C 339.43094428857484,122.50937100736698, 339.4078691199949,120.78731335880269, 339.38479395141496,119.06525571023839 C 330.5646928985031,119.06525571023839, 321.74459184559123,119.64774296778803, 321.74459184559123,120.23023022533768" fill="black" stroke="none" stroke-width="1"/>
  <path d="M 329.4320210016408,246.50699541636646  C 329.4274002543389,248.9657913112029, 329.4227795070371,251.42458720603938, 329.4181587597352,253.88338310087582 C 329.50604935310645,256.31745776588053, 329.59393994647763,258.7515324308853, 329.6818305398489,261.18560709589 C 329.26616557653784,263.63557875540533, 328.85050061322676,266.0855504149207, 328.4348356499157,268.535522074436 C 328.850288782895,270.9828485665684, 329.26574191587423,273.43017505870085, 329.6811950488535,275.87750155083324 C 329.6440505289998,278.43581991217684, 329.60690600914614,280.99413827352043, 329.56976148929243,283.55245663486403 C 329.52384383828934,285.8896365088355, 329.4779261872862,288.226816382807, 329.4320085362831,290.56399625677847 C 329.42858189610115,293.003336441083, 329.4251552559192,295.4426766253875, 329.42172861573727,297.882016809692 C 329.4673283032835,300.4396303761977, 329.5129279908297,302.9972439427034, 329.558527678376,305.5548575092091 C 329.9733297467293,308.01003699360234, 330.3881318150826,310.4652164779955, 330.8029338834359,312.92039596238874 C 330.8079901625158,315.2592945270723, 330.8130464415957,317.5981930917559, 330.8181027206756,319.93709165643946 C 330.40259649384694,322.3879853421536, 329.98709026701835,324.83887902786785, 329.5715840401897,327.289772713582 C 329.79428671075436,329.69311400472145, 330.016989381319,332.09645529586084, 330.23969205188365,334.4997965870003 C 331.03068441098463,336.93968416479174, 331.82167677008556,339.37957174258315, 332.61266912918654,341.8194593203746 C 332.24098840373284,343.90634556888006, 331.8693076782792,345.99323181738544, 331.4976269528255,348.0801180658909 C 330.8375628432879,350.47138994866526, 330.17749873375027,352.86266183143965, 329.5174346242127,355.25393371421404 C 329.48963201044955,357.7875838090244, 329.4618293966864,360.3212339038347, 329.4340267829233,362.85488399864505 C 329.4333934515582,365.30420096731336, 329.432760120193,367.7535179359817, 329.4321267888279,370.20283490465 C 329.47346541922644,372.75025008550165, 329.51480404962496,375.29766526635325, 329.5561426800235,377.8450804472049 C 329.6059604744083,380.4042527521097, 329.655778268793,382.96342505701443, 329.7055960631777,385.5225973619192 C 330.07645364204603,387.96217382689525, 330.4473112209144,390.4017502918713, 330.8181687997827,392.8413267568473 C 331.1973262601364,395.28893783296337, 331.57648372049005,397.73654890907943, 331.9556411808437,400.1841599851955 C 331.9591297620852,402.64273795858605, 331.9626183433267,405.10131593197656, 331.9661069245682,407.5598939053671 C 332.2968372774947,409.8927924288107, 332.6275676304212,412.22569095225435, 332.95829798334773,414.55858947569794 C 333.0297305937779,417.18207557872523, 333.1011632042081,419.8055616817526, 333.17259581463827,422.42904778477987 C 333.5349087053286,424.80453559833836, 333.8972215960189,427.1800234118968, 334.2595344867092,429.5555112254553 C 334.65934506937697,432.1151015788181, 335.05915565204475,434.6746919321809, 335.45896623471253,437.2342822855437 C 335.42194216888976,439.57104941997574, 335.38491810306704,441.9078165544078, 335.34789403724426,444.24458368883984 C 335.7956587595472,446.36557346210174, 336.2434234818502,448.48656323536363, 336.69118820415315,450.60755300862553 C 336.4005264200728,452.9830862964398, 336.1098646359925,455.35861958425403, 335.81920285191217,457.7341528720683 C 341.37757139120464,458.12247771043474, 346.9359399304971,458.51080254880117, 352.4943084697896,458.8991273871676 C 352.96404542697206,456.3794350057839, 353.4337823841545,453.8597426244002, 353.90351934133696,451.3400502430165 C 353.59055022447666,448.56581434708033, 353.2775811076164,445.7915784511441, 352.9646119907561,443.01734255520796 C 352.9090379983039,440.458884020442, 352.85346400585166,437.900425485676, 352.79789001339947,435.34196695091003 C 352.49084594298427,433.00633163507484, 352.18380187256906,430.6706963192396, 351.87675780215386,428.3350610034044 C 351.4546945877199,425.81532314776484, 351.032631373286,423.29558529212534, 350.61056815885206,420.7758474364858 C 350.6848337345056,418.50410787031507, 350.7590993101591,416.2323683041444, 350.83336488581267,413.9606287379737 C 350.40760208592843,411.3983015922193, 349.98183928604425,408.83597444646483, 349.55607648616,406.2736473007104 C 349.56167172332,403.8369996049029, 349.56726696047997,401.4003519090955, 349.57286219763995,398.963704213288 C 349.19370328051133,396.516089620206, 348.81454436338265,394.068475027124, 348.43538544625403,391.620860434042 C 348.05787032080553,389.16521122982004, 347.680355195357,386.70956202559813, 347.3028400699085,384.25391282137616 C 347.3454411668584,381.91785945708295, 347.38804226380836,379.5818060927897, 347.43064336075827,377.2457527284965 C 347.47198409492836,374.8979422401501, 347.5133248290985,372.55013175180375, 347.5546655632686,370.20232126345735 C 347.55403225516926,367.75641256289595, 347.55339894706987,365.3105038623345, 347.5527656389705,362.8645951617731 C 347.5250625465139,360.5030194497307, 347.4973594540573,358.1414437376883, 347.46965636160064,355.7798680256459 C 347.63754427373453,353.27666424726687, 347.8054321858684,350.77346046888783, 347.9733200980023,348.2702566905088 C 348.3535910738205,346.20424132929224, 348.73386204963873,344.13822596807574, 349.1141330254569,342.0722106068592 C 348.3264860846457,339.62891495469705, 347.5388391438345,337.185619302535, 346.75119220302327,334.74232365037284 C 346.8933477378,332.25043750164264, 347.0355032725767,329.7585513529124, 347.17765880735345,327.2666652041822 C 347.59637787184454,324.82233322019937, 348.0150969363356,322.3780012362166, 348.4338160008267,319.9336692522338 C 348.5197972217818,317.37734214771945, 348.60577844273683,314.8210150432051, 348.6917596636919,312.2646879386907 C 348.27066535182604,309.8246417538859, 347.8495710399602,307.3845955690811, 347.4284767280943,304.9445493842763 C 347.4740057626123,302.60693728158395, 347.51953479713035,300.2693251788917, 347.56506383164833,297.93171307619934 C 347.56163716017886,295.47582759130586, 347.5582104887094,293.0199421064123, 347.5547838172399,290.56405662151883 C 347.50886831997155,288.00601082629225, 347.4629528227032,285.44796503106573, 347.4170373254348,282.88991923583916 C 347.37726428237784,280.55301192798476, 347.3374912393208,278.2161046201303, 347.2977181962638,275.8791973122759 C 346.8824950624854,273.4312981352103, 346.467271928707,270.98339895814473, 346.0520487949286,268.5354997810791 C 346.4696649792617,266.09024577139644, 346.8872811635948,263.64499176171375, 347.3048973479279,261.19973775203107 C 347.3928093917121,258.73858674783776, 347.4807214354962,256.27743574364445, 347.5686334792804,253.81628473945116 C 347.56401276999947,251.3798549650896, 347.5593920607186,248.94342519072802, 347.5547713514377,246.50699541636646 C 338.49339617653925,246.50699541636646, 329.4320210016408,246.50699541636646, 329.4320210016408,246.50699541636646" fill="black" stroke="none" stroke-width="1"/>
  <path d="M 340.1439500944773,351.12165945860136  C 342.0478026900126,351.5810100100308, 343.95165528554793,352.0403605614602, 345.8555078810832,352.49971111288966 C 347.6449660050779,352.82669404593753, 349.43442412907257,353.1536769789854, 351.22388225306725,353.4806599120333 C 352.9229367954102,354.0688284022329, 354.6219913377532,354.6569968924326, 356.3210458800961,355.2451653826322 C 356.98816293913814,356.2669236707248, 357.6552799981801,357.28868195881734, 358.32239705722213,358.31044024690993 C 359.99642737737906,359.7009672109315, 361.67045769753594,361.09149417495297, 363.34448801769287,362.4820211389745 C 365.3050517663785,364.57768394789974, 367.26561551506416,366.67334675682497, 369.22617926374977,368.7690095657502 C 370.140530938324,369.6321003357455, 371.05488261289815,370.4951911057409, 371.9692342874724,371.3582818757362 C 373.3572652597955,372.78241826966894, 374.74529623211856,374.2065546636016, 376.1333272044417,375.6306910575343 C 376.79433970091225,376.9107522827426, 377.45535219738287,378.19081350795085, 378.1163646938534,379.4708747331591 C 380.1235677348897,381.4681385230241, 382.13077077592595,383.4654023128891, 384.13797381696224,385.4626661027541 C 385.82600531882395,387.40391437551864, 387.5140368206856,389.3451626482832, 389.2020683225473,391.2864109210477 C 391.20406863193415,391.838491366051, 393.20606894132106,392.3905718110543, 395.2080692507079,392.9426522560576 C 396.9688980197216,393.6964606201885, 398.7297267887353,394.4502689843193, 400.490555557749,395.20407734845014 C 400.5569687510637,395.93345088030446, 400.6233819443784,396.66282441215884, 400.6897951376931,397.39219794401316 C 400.49997458322093,398.72574551973435, 400.3101540287488,400.0592930954555, 400.1203334742766,401.39284067117666 C 400.0128070504283,403.30684654523253, 399.90528062658007,405.2208524192884, 399.79775420273177,407.1348582933443 C 399.8884540947023,408.9037886673269, 399.9791539866729,410.67271904130956, 400.0698538786434,412.4416494152922 C 400.4109374196197,414.0522289648462, 400.7520209605959,415.6628085144003, 401.0931045015722,417.2733880639543 C 400.75628245490697,418.84078292546866, 400.41946040824166,420.40817778698306, 400.0826383615764,421.9755726484974 C 399.064607201186,423.0167441831489, 398.0465760407956,424.0579157178004, 397.0285448804052,425.0990872524519 C 396.5478831690713,427.0823462893443, 396.0672214577374,429.06560532623666, 395.5865597464035,431.04886436312904 C 394.55430221351105,433.229067728372, 393.5220446806186,435.409271093615, 392.48978714772613,437.589474458858 C 391.9336310464349,439.46467619944747, 391.3774749451438,441.33987794003696, 390.82131884385257,443.21507968062645 C 389.97707720250173,445.30648155743586, 389.13283556115096,447.3978834342452, 388.2885939198001,449.48928531105463 C 387.7628462168058,451.2076696919874, 387.23709851381153,452.9260540729201, 386.71135081081724,454.6444384538529 C 386.2059277506936,456.67191775928177, 385.70050469057,458.6993970647106, 385.1950816304464,460.72687637013945 C 384.69061642345747,462.42118461391874, 384.1861512164686,464.1154928576981, 383.6816860094797,465.8098011014774 C 382.9384114417833,467.7752408923677, 382.1951368740868,469.740680683258, 381.4518623063904,471.70612047414835 C 380.66857788914905,473.63989936269996, 379.88529347190774,475.5736782512516, 379.1020090546664,477.5074571398032 C 384.49952817930114,479.0607564932689, 389.8970473039359,480.61405584673463, 395.29456642857065,482.16735520020035 C 395.9382311882282,480.06518233639656, 396.5818959478858,477.9630094725928, 397.22556070754337,475.860836608789 C 398.0556696134754,473.7846283643078, 398.88577851940744,471.70842011982666, 399.7158874253395,469.6322118753455 C 400.0052236971866,468.0524784117295, 400.2945599690337,466.47274494811353, 400.5838962408808,464.89301148449755 C 401.08182198578027,462.8789942585818, 401.5797477306798,460.86497703266616, 402.0776734755793,458.85095980675044 C 402.70880323785985,457.28088407981096, 403.3399330001404,455.7108083528714, 403.97106276242096,454.14073262593195 C 404.7520221173051,452.2082149366674, 405.5329814721893,450.27569724740283, 406.31394082707345,448.3431795581383 C 407.15334624022927,446.1824268607349, 407.992751653385,444.02167416333145, 408.83215706654084,441.8609214659281 C 409.429549787445,440.0051752039977, 410.02694250834924,438.1494289420673, 410.6243352292534,436.2936826801369 C 410.93076855002727,434.245380037886, 411.2372018708012,432.19707739563506, 411.54363519157505,430.14877475338415 C 412.74087821191114,428.6744922897735, 413.9381212322473,427.20020982616296, 415.1353642525834,425.72592736255234 C 415.5378943721452,423.99711939945513, 415.940424491707,422.26831143635786, 416.34295461126885,420.53950347326065 C 416.68472057599564,418.11480788378367, 417.0264865407224,415.69011229430663, 417.36825250544916,413.26541670482965 C 417.45895476575015,410.99839013786465, 417.5496570260512,408.7313635708997, 417.6403592863522,406.4643370039347 C 417.5316823151878,404.3423858463284, 417.42300534402347,402.2204346887221, 417.3143283728591,400.0984835311158 C 416.3861261623071,397.3964419177118, 415.4579239517551,394.69440030430786, 414.5297217412031,391.99235869090387 C 413.4191356699723,389.93006287535655, 412.3085495987416,387.8677670598093, 411.1979635275108,385.805471244262 C 408.93856524802356,384.2679169078221, 406.6791669685363,382.7303625713822, 404.4197686890491,381.19280823494233 C 402.386438038722,380.1224223621577, 400.353107388395,379.0520364893731, 398.31977673806796,377.98165061658847 C 396.7985607032973,376.52505706794534, 395.2773446685267,375.06846351930227, 393.7561286337561,373.61186997065914 C 392.3813079521981,372.2823498138465, 391.0064872706401,370.95282965703393, 389.6316665890821,369.6233095002213 C 388.64002268206104,368.39980159819703, 387.64837877504004,367.1762936961728, 386.656734868019,365.95278579414855 C 385.41380871191586,364.5796443855829, 384.17088255581274,363.2065029770173, 382.9279563997096,361.83336156845166 C 382.04831587669645,360.47666053870444, 381.16867535368334,359.1199595089572, 380.2890348306702,357.76325847921 C 378.25288163915457,355.81338012818674, 376.2167284476389,353.86350177716344, 374.1805752561233,351.9136234261402 C 372.32679061182176,349.9965535046751, 370.47300596752024,348.07948358321, 368.6192213232187,346.1624136617449 C 367.01297813709255,344.6872924094675, 365.40673495096644,343.21217115719014, 363.8004917648403,341.73704990491274 C 361.45858789822773,340.8308732909018, 359.1166840316152,339.92469667689085, 356.77478016500265,339.01852006287993 C 354.5282493637212,338.0325815148084, 352.2817185624398,337.04664296673684, 350.03518776115834,336.0607044186653 C 347.9030830540306,335.5226542260182, 345.77097834690284,334.98460403337106, 343.6388736397751,334.44655384072394 C 341.8914118671262,334.44655384072394, 340.1439500944773,342.78410664966265, 340.1439500944773,351.12165945860136" fill="black" stroke="none" stroke-width="1"/>
  <path d="M 406.93928939111635,429.9261439949897  C 408.2741043866459,430.25023153343534, 409.6089193821754,430.574319071881, 410.9437343777049,430.8984066103267 C 412.4530880696827,431.58519621671616, 413.9624417616605,432.2719858231057, 415.47179545363826,432.9587754294952 C 416.54490935122345,434.04065045202714, 417.6180232488086,435.12252547455904, 418.69113714639377,436.204400497091 C 419.0592402649699,437.6152220063793, 419.427343383546,439.0260435156677, 419.7954465021221,440.43686502495603 C 420.66680836924047,441.6823140668373, 421.5381702363588,442.9277631087185, 422.40953210347715,444.1732121505998 C 423.09494691708016,445.9588242969059, 423.78036173068324,447.74443644321195, 424.46577654428626,449.53004858951806 C 425.1204396053194,451.37497808057543, 425.77510266635255,453.2199075716328, 426.4297657273857,455.0648370626902 C 427.3769368998167,456.8156481919231, 428.3241080722477,458.56645932115606, 429.27127924467874,460.317270450389 C 430.04947338017007,462.211203590464, 430.82766751566135,464.1051367305389, 431.6058616511527,465.9990698706139 C 432.7672900623262,467.7360415778729, 433.92871847349977,469.4730132851319, 435.0901468846733,471.20998499239096 C 435.9106591066471,473.02079295850507, 436.73117132862086,474.8316009246192, 437.55168355059465,476.6424088907333 C 438.26634909354823,478.33424147001404, 438.9810146365018,480.0260740492948, 439.6956801794554,481.7179066285755 C 440.38856527631845,483.53149361788905, 441.08145037318144,485.34508060720253, 441.7743354700445,487.15866759651607 C 442.7819618323511,488.65526219923163, 443.78958819465765,490.1518568019472, 444.79721455696426,491.64845140466275 C 445.9865647135872,493.44849473541933, 447.1759148702101,495.24853806617585, 448.365265026833,497.04858139693243 C 448.68399780858863,498.31353893497214, 449.0027305903443,499.57849647301185, 449.3214633720999,500.84345401105156 C 450.1789987025116,502.28948093387277, 451.0365340329232,503.73550785669397, 451.8940693633349,505.1815347795152 C 452.8069340622549,506.66407441636903, 453.71979876117496,508.14661405322295, 454.632663460095,509.6291536900768 C 455.0917472494903,510.8442294495563, 455.5508310388856,512.0593052090358, 456.0099148282809,513.2743809685153 C 456.70881222290217,514.5431338598048, 457.4077096175234,515.8118867510942, 458.10660701214465,517.0806396423837 C 458.81525360781643,518.1939040651591, 459.5239002034882,519.3071684879344, 460.23254679916,520.4204329107098 C 460.4165223164582,521.7043224447876, 460.6004978337565,522.9882119788656, 460.7844733510547,524.2721015129434 C 461.6351143314656,525.6682283686124, 462.4857553118766,527.0643552242813, 463.3363962922875,528.4604820799502 C 463.76058254153025,529.778265942134, 464.18476879077303,531.0960498043178, 464.6089550400158,532.4138336665015 C 464.97249097015543,534.1727800458125, 465.336026900295,535.9317264251235, 465.6995628304346,537.6906728044345 C 466.3251028385222,539.3169929577386, 466.9506428466097,540.9433131110429, 467.57618285469727,542.5696332643471 C 468.4747994892972,544.0315335625716, 469.3734161238972,545.4934338607959, 470.2720327584971,546.9553341590204 C 470.6732654548321,548.7174554661817, 471.0744981511672,550.4795767733432, 471.4757308475022,552.2416980805045 C 471.6775017686521,553.4944653870031, 471.87927268980206,554.7472326935015, 472.081043610952,556.0 C 477.41193672653577,555.0625009086094, 482.74282984211953,554.1250018172187, 488.0737229577033,553.1875027258282 C 487.60269148925937,551.5919369520888, 487.1316600208155,549.9963711783492, 486.6606285523716,548.4008054046099 C 486.30857439531167,546.5025002788179, 485.95652023825176,544.6041951530261, 485.60446608119184,542.7058900272342 C 484.97463923485236,541.4053988545419, 484.3448123885129,540.1049076818497, 483.7149855421734,538.8044165091574 C 482.75379398703427,536.8389079144093, 481.7926024318951,534.8733993196613, 480.83141087675597,532.9078907249133 C 480.43038637399104,531.0913850388785, 480.02936187122606,529.2748793528438, 479.62833736846113,527.4583736668089 C 478.86586951403916,525.9266782160395, 478.10340165961725,524.3949827652701, 477.3409338051953,522.8632873145007 C 476.27918684852546,521.5071689069704, 475.2174398918556,520.15105049944, 474.15569293518575,518.7949320919097 C 473.64501960352436,517.186262936878, 473.13434627186297,515.5775937818463, 472.6236729402016,513.9689246268147 C 471.8181234556247,513.0030780914178, 471.01257397104786,512.037231556021, 470.20702448647097,511.07138502062406 C 469.7397345751876,509.91302356203704, 469.27244466390425,508.75466210345, 468.80515475262087,507.596300644863 C 468.2835670233941,506.1975812016506, 467.7619792941673,504.7988617584382, 467.2403915649405,503.4001423152258 C 466.54135766332286,502.12154405222657, 465.8423237617052,500.8429457892273, 465.1432898600875,499.56434752622806 C 464.59822897307305,498.0886402431295, 464.05316808605863,496.61293296003095, 463.50810719904416,495.13722567693236 C 463.09113179460724,493.63186241697497, 462.67415639017025,492.12649915701763, 462.2571809857333,490.62113589706024 C 461.08171632737947,488.8452508520956, 459.90625166902555,487.06936580713096, 458.7307870106717,485.2934807621663 C 458.1697048009908,484.0018488366449, 457.60862259131,482.7102169111235, 457.0475403816291,481.4185849856021 C 456.33634914714366,479.5877712579863, 455.62515791265827,477.7569575303704, 454.9139666781728,475.9261438027546 C 454.0943604265001,474.02459337420225, 453.2747541748273,472.1230429456499, 452.4551479231546,470.22149251709754 C 451.832567339697,468.43899693605573, 451.20998675623946,466.65650135501386, 450.58740617278187,464.87400577397204 C 449.3768850356283,463.01767353176626, 448.16636389847463,461.1613412895604, 446.95584276132104,459.30500904735464 C 446.25827204290107,457.60563823847815, 445.56070132448104,455.9062674296016, 444.8631306060611,454.2068966207251 C 443.75672993483676,452.36440436535497, 442.6503292636125,450.5219121099849, 441.54392859238817,448.67941985461476 C 440.881727264391,446.9306810118733, 440.2195259363937,445.18194216913184, 439.5573246083965,443.43320332639036 C 438.9172771883125,441.75551963427836, 438.2772297682284,440.0778359421663, 437.63718234814434,438.4001522500543 C 436.40184280993185,436.6776773081512, 435.1665032717193,434.95520236624816, 433.9311637335068,433.23272742434506 C 432.7810027608153,431.05191828675936, 431.6308417881238,428.8711091491736, 430.48068081543227,426.6903000115879 C 428.89733234601425,424.929683995939, 427.3139838765963,423.16906798029015, 425.7306354071783,421.40845196464124 C 423.66699270504927,420.15798755112405, 421.6033500029202,418.90752313760686, 419.5397073007912,417.65705872408967 C 417.28119218939844,416.5100841044126, 415.02267707800564,415.3631094847356, 412.7641619666129,414.21613486505856 C 409.8517256788646,414.21613486505856, 406.93928939111635,422.0711394300241, 406.93928939111635,429.9261439949897" fill="black" stroke="none" stroke-width="1"/>
  <path d="M 415.65035795385523,393.1688235920513  C 416.73152864628383,391.9979644497746, 417.81269933871243,390.82710530749796, 418.89387003114103,389.65624616522126 C 419.61159563792097,387.96738159199293, 420.3293212447009,386.2785170187646, 421.04704685148084,384.5896524455363 C 421.347838215724,382.60821526375105, 421.64862957996706,380.6267780819659, 421.9494209442102,378.64534090018066 C 422.1623097220195,376.9418786532849, 422.3751984998287,375.23841640638915, 422.58808727763795,373.5349541594934 C 422.7469026443696,371.93457976836925, 422.90571801110116,370.33420537724515, 423.0645333778328,368.733830986121 C 423.1542863298974,367.0869999490031, 423.24403928196193,365.4401689118852, 423.33379223402653,363.7933378747673 C 423.92501596241925,362.042436460317, 424.516239690812,360.29153504586674, 425.1074634192047,358.5406336314164 C 425.1814350054562,356.77583491808224, 425.25540659170764,355.011036204748, 425.32937817795914,353.2462374914138 C 425.3744139845301,351.5074920224247, 425.41944979110116,349.7687465534355, 425.46448559767214,348.0300010844464 C 425.0677661993828,346.15548410997206, 424.6710468010935,344.2809671354978, 424.27432740280415,342.4064501610235 C 424.28597046115203,340.739549971767, 424.2976135195,339.0726497825105, 424.30925657784786,337.40574959325403 C 423.859506836355,335.6656131013746, 423.4097570948622,333.92547660949515, 422.96000735336935,332.18534011761574 C 422.95335733689325,330.4282029492613, 422.94670732041715,328.6710657809069, 422.94005730394105,326.9139286125524 C 422.52512528199924,325.1632184681287, 422.1101932600574,323.41250832370497, 421.69526123811556,321.6617981792813 C 421.31845284560166,319.90708193126227, 420.9416444530878,318.15236568324326, 420.5648360605739,316.39764943522425 C 420.0781098598642,314.6400866530326, 419.59138365915453,312.88252387084094, 419.1046574584448,311.1249610886493 C 418.3804581765581,309.3804575935747, 417.65625889467134,307.63595409850006, 416.9320596127846,305.8914506034255 C 416.06765932553856,304.1328551693193, 415.2032590382925,302.3742597352131, 414.3388587510465,300.61566430110696 C 413.36687820692174,298.86654259423125, 412.39489766279706,297.1174208873555, 411.42291711867233,295.36829918047977 C 410.7000960560247,293.71082495980926, 409.977274993377,292.0533507391388, 409.25445393072937,290.3958765184683 C 408.44631161392726,289.02962878537335, 407.63816929712516,287.66338105227845, 406.83002698032305,286.2971333191835 C 406.2352585401174,285.00516880259283, 405.6404900999117,283.71320428600217, 405.04572165970603,282.4212397694115 C 404.23963853774706,280.8519787682124, 403.43355541578813,279.28271776701337, 402.62747229382916,277.71345676581427 C 401.7459722936819,276.3683150935524, 400.8644722935347,275.02317342129044, 399.98297229338743,273.67803174902855 C 399.1361706893211,271.9732062399656, 398.2893690852547,270.26838073090266, 397.44256748118835,268.5635552218397 C 396.6753461405116,267.2993374135433, 395.90812479983475,266.03511960524696, 395.140903459158,264.77090179695057 C 394.4650198538377,262.9800356198069, 393.78913624851737,261.1891694426633, 393.1132526431971,259.39830326551964 C 392.3702010791529,258.159043593515, 391.6271495151086,256.9197839215104, 390.8840979510644,255.68052424950574 C 389.7338984826676,254.02018317537656, 388.58369901427085,252.35984210124735, 387.43349954587404,250.69950102711817 C 382.7460040889211,253.1902994719745, 378.0585086319682,255.6810979168308, 373.37101317501526,258.1718963616871 C 374.5058784342303,259.82285181586604, 375.6407436934453,261.47380727004503, 376.7756089526603,263.12476272422396 C 377.57931826299597,264.3937757476081, 378.38302757333156,265.6627887709923, 379.1867368836672,266.93180179437644 C 379.93209098442816,268.50796672520056, 380.6774450851891,270.0841316560247, 381.42279918595005,271.6602965868488 C 382.1948068240923,272.92184013781247, 382.96681446223454,274.18338368877613, 383.7388221003768,275.4449272397398 C 384.3782161083783,277.0929486760494, 385.01761011637984,278.74097011235904, 385.65700412438133,280.3889915486686 C 386.48792060792044,281.5560690270822, 387.31883709145956,282.72314650549566, 388.14975357499867,283.8902239839092 C 389.17166244508593,285.6320584475204, 390.19357131517324,287.3738929111316, 391.2154801852605,289.1157273747428 C 391.6296524208437,290.37866650778886, 392.0438246564269,291.6416056408349, 392.4579968920101,292.90454477388096 C 393.18442850917955,294.0755277236833, 393.910860126349,295.2465106734857, 394.63729174351846,296.41749362328807 C 395.37361621696886,298.07258857158615, 396.1099406904193,299.7276835198843, 396.8462651638697,301.3827784681824 C 397.37431618585333,302.9405499200506, 397.90236720783696,304.49832137191885, 398.4304182298206,306.0560928237871 C 399.22068889844354,307.6043785300894, 400.01095956706655,309.15266423639173, 400.8012302356895,310.700949942694 C 401.4500701031569,312.26332761758687, 402.09890997062433,313.82570529247965, 402.74774983809175,315.3880829673725 C 403.148218443982,316.93740135533045, 403.5486870498723,318.48671974328846, 403.9491556557625,320.0360381312464 C 404.2420645413828,321.58820305337713, 404.53497342700297,323.14036797550784, 404.8278823126232,324.69253289763856 C 405.1622335931922,326.2487039233646, 405.4965848737611,327.80487494909056, 405.83093615433006,329.3610459748166 C 405.7516811165608,330.91078997661185, 405.67242607879155,332.46053397840717, 405.5931710410223,334.01027798020243 C 405.9711008612732,335.57702265847274, 406.3490306815242,337.143767336743, 406.7269605017751,338.7105120150133 C 406.7036352327974,340.35049299590656, 406.68030996381964,341.9904739767998, 406.6569846948419,343.6304549576931 C 407.05309423511073,345.0628191533685, 407.4492037753796,346.4951833490439, 407.8453133156484,347.9275475447193 C 407.8856697520642,349.4956832458799, 407.92602618848,351.06381894704055, 407.9663826248958,352.63195464820114 C 407.7981836446322,354.1740371050167, 407.6299846643686,355.7161195618322, 407.461785684105,357.25820201864775 C 406.9692921105425,358.8141817743471, 406.4767985369799,360.3701615300465, 405.9843049634174,361.92614128574587 C 405.88912817217505,363.5861914187783, 405.79395138093275,365.2462415518107, 405.6987745896904,366.90629168484315 C 405.4959353294948,368.6127984644174, 405.2930960692991,370.3193052439916, 405.0902568091035,372.02581202356583 C 404.9105265490593,373.6292310196808, 404.7307962890151,375.23265001579574, 404.55106602897087,376.8360690119107 C 404.88970928407997,378.1614724449215, 405.228352539189,379.4868758779324, 405.5669957942981,380.8122793109432 C 404.98623318709934,382.41393390623836, 404.4054705799006,384.01558850153356, 403.82470797270184,385.6172430968287 C 403.145721851851,386.2594384124551, 402.46673573100026,386.90163372808144, 401.78774961014943,387.54382904370783 C 408.71905378200233,387.54382904370783, 415.65035795385523,390.35632631787956, 415.65035795385523,393.1688235920513" fill="black" stroke="none" stroke-width="1"/>
  <path d="M 229.10677042486859,204.63043785069806  C 229.03880925483304,205.1320618138739, 228.9708480847975,205.6336857770497, 228.90288691476195,206.13530974022552 C 229.29207130499407,206.6463589270583, 229.68125569522616,207.15740811389105, 230.07044008545827,207.66845730072382 C 230.1911241586181,208.18625266783567, 230.3118082317779,208.70404803494756, 230.4324923049377,209.22184340205942 C 230.7078429405312,209.74464333837187, 230.98319357612473,210.26744327468435, 231.25854421171823,210.7902432109968 C 231.23532122423842,211.31685636349928, 231.2120982367586,211.8434695160018, 231.1888752492788,212.37008266850427 C 231.17844011906757,212.89965279293963, 231.16800498885632,213.429222917375, 231.1575698586451,213.95879304181037 C 231.15189506614612,214.4907303642943, 231.14622027364717,215.02266768677822, 231.1405454811482,215.55460500926216 C 231.14606992932457,216.1146263086619, 231.15159437750094,216.67464760806166, 231.15711882567732,217.2346689074614 C 231.10945723404708,217.66644193339576, 231.06179564241688,218.09821495933014, 231.01413405078665,218.52998798526448 C 230.99568748602422,219.03226240542145, 230.97724092126177,219.53453682557844, 230.95879435649934,220.0368112457354 C 230.93513302539347,220.52649412677079, 230.91147169428763,221.01617700780614, 230.88781036318176,221.5058598888415 C 230.8880464422447,222.0532369664629, 230.88828252130762,222.60061404408424, 230.88851860037056,223.14799112170562 C 230.88889746104576,223.69571291057542, 230.88927632172098,224.24343469944526, 230.88965518239618,224.79115648831507 C 230.88961882612458,225.33787583798812, 230.88958246985297,225.88459518766115, 230.88954611358136,226.4313145373342 C 230.8896336491577,226.97833299028107, 230.88972118473407,227.52535144322795, 230.8898087203104,228.07236989617482 C 230.89013019245925,228.6199531248024, 230.8904516646081,229.16753635343, 230.89077313675693,229.71511958205758 C 230.8858289206228,230.24999025635282, 230.8808847044887,230.78486093064802, 230.87594048835456,231.31973160494326 C 230.9242379070828,231.983138976998, 230.97253532581104,232.64654634905273, 231.0208327445393,233.30995372110746 C 231.01809217511212,233.85014708712774, 231.0153516056849,234.390340453148, 231.01261103625774,234.9305338191683 C 231.0137433748772,235.48007031014816, 231.01487571349668,236.029606801128, 231.01600805211615,236.5791432921079 C 231.01609521747315,237.1260521857717, 231.01618238283015,237.67296107943554, 231.01626954818715,238.21986997309935 C 231.01591857054703,238.76625871532121, 231.01556759290688,239.31264745754308, 231.01521661526675,239.85903619976494 C 231.01648543684317,240.41298487559376, 231.01775425841961,240.96693355142258, 231.01902307999603,241.5208822272514 C 231.0340322261753,242.07618459211784, 231.0490413723546,242.63148695698428, 231.06405051853386,243.1867893218507 C 231.12339065784906,243.7437060291987, 231.18273079716428,244.3006227365467, 231.24207093647948,244.8575394438947 C 231.58792408184271,245.41635232216834, 231.93377722720592,245.97516520044195, 232.27963037256916,246.5339780787156 C 232.25897786209893,247.0952907011028, 232.23832535162867,247.65660332349, 232.21767284115845,248.21791594587722 C 232.22271089427446,248.78260200282773, 232.22774894739044,249.3472880597782, 232.23278700050645,249.91197411672871 C 232.24302866482728,250.4813728316076, 232.2532703291481,251.05077154648646, 232.26351199346894,251.62017026136533 C 238.14357936207685,251.2318454229989, 244.0236467306848,250.8435205846325, 249.9037140992927,250.45519574626607 C 249.9121879227877,249.9309802158986, 249.9206617462827,249.4067646855311, 249.92913556977769,248.88254915516362 C 249.93890891082,248.35362096686774, 249.94868225186232,247.8246927785719, 249.95845559290464,247.295764590276 C 249.99112485283737,246.76346296741684, 250.02379411277008,246.23116134455765, 250.0564633727028,245.69885972169848 C 249.72055612097353,245.16405835472577, 249.38464886924424,244.62925698775302, 249.04874161751496,244.0944556207803 C 248.99777653240568,243.55775808288195, 248.94681144729643,243.02106054498358, 248.89584636218714,242.48436300708522 C 248.88787490511345,241.94605112670527, 248.87990344803978,241.40773924632535, 248.8719319909661,240.8694273659454 C 248.87657942577803,240.32976179652786, 248.88122686059,239.7900962271103, 248.88587429540195,239.25043065769276 C 248.88587867536918,238.70320515466827, 248.8858830553364,238.15597965164378, 248.88588743530363,237.60875414861928 C 248.8858845798372,237.06204879703674, 248.8858817243708,236.51534344545416, 248.88587886890437,235.96863809387162 C 248.88700761306498,235.42456033960514, 248.88813635722556,234.88048258533865, 248.88926510138617,234.33640483107217 C 248.88652665544706,233.78298395184606, 248.8837882095079,233.22956307261998, 248.8810497635688,232.67614219339387 C 248.92934715422183,232.24593532020222, 248.97764454487486,231.8157284470106, 249.0259419355279,231.38552157381895 C 249.02099767409402,230.82677800286783, 249.01605341266014,230.26803443191667, 249.01110915122626,229.70929086096555 C 249.01143062634316,229.16325984434678, 249.01175210146005,228.617228827728, 249.01207357657694,228.07119781110924 C 249.012161112773,227.52460201880973, 249.01224864896906,226.97800622651025, 249.0123361851651,226.43141043421073 C 249.012299827944,225.88451553863743, 249.0122634707229,225.3376206430641, 249.01222711350178,224.7907257474908 C 249.01260598715538,224.24483329111425, 249.012984860809,223.6989408347377, 249.01336373446262,223.15304837836115 C 249.01359982158007,222.60681121073614, 249.0138359086975,222.06057404311116, 249.01407199581496,221.51433687548615 C 248.99041005570894,220.91040551127514, 248.96674811560288,220.30647414706414, 248.94308617549686,219.70254278285313 C 248.92464064159802,219.11120295776374, 248.9061951076992,218.51986313267435, 248.88774957380036,217.92852330758495 C 248.8401137994629,217.26668208827294, 248.7924780251254,216.60484086896093, 248.74484225078794,215.94299964964893 C 248.75026478508445,215.40940670380232, 248.755687319381,214.8758137579557, 248.7611098536775,214.3422208121091 C 248.75446610040157,213.78054388934666, 248.74782234712563,213.21886696658424, 248.7411785938497,212.6571900438218 C 248.7373341272129,212.0931459230108, 248.7334896605761,211.5291018021998, 248.72964519393932,210.9650576813888 C 248.73613894881487,210.39805658864492, 248.74263270369042,209.831055495901, 248.74912645856597,209.26405440315713 C 248.45388761864382,208.69324009422326, 248.1586487787217,208.12242578528935, 247.86340993879955,207.55161147635548 C 247.71869174043766,206.97579259822098, 247.57397354207575,206.39997372008645, 247.42925534371386,205.82415484195195 C 247.01044810954804,205.24158978353833, 246.59164087538218,204.65902472512474, 246.17283364121636,204.07645966671112 C 246.203363856384,203.4844693846406, 246.2338940715516,202.89247910257004, 246.26442428671922,202.3004888204995 C 237.6855973557939,202.3004888204995, 229.10677042486859,203.46546333559877, 229.10677042486859,204.63043785069806" fill="black" stroke="none" stroke-width="1"/>
</svg>
